<svg id="Layer_1" data-name="Layer 1" xmlns="http://www.w3.org/2000/svg" viewBox="0 0 300 300"><defs><style>.cls-1,.cls-2{fill:#aee6ff;}.cls-1{opacity:0.63;}.cls-2{opacity:0.39;}.cls-3{fill:#514a51;}.cls-4{fill:#ffe35a;}.cls-5{fill:none;stroke:#876c58;stroke-linecap:round;stroke-linejoin:round;stroke-width:2.72px;}.cls-6{fill:#fff;}.cls-7{fill:#ffa9a9;}</style></defs><title>favicon</title><path class="cls-1" d="M102.66,175.46s32.29-53,22.35-71.7c-17.35-32.67-67.28-16.55-59.08,22.12S102.66,175.46,102.66,175.46Z"/><path class="cls-2" d="M99.36,171s-25-56.78-46.07-59.31c-36.73-4.43-52,45.76-15.61,61.13S99.36,171,99.36,171Z"/><path class="cls-3" d="M84.64,192.67a35.62,35.62,0,0,1,4.3-19.92c-28.7,3.29-38.7,21.66-37.55,38.92,1.19,17.81,26.13,46.32,65.91,36.22,16-4.06,26.32-11.08,33.28-19h0C110.77,239,85.83,210.48,84.64,192.67Z"/><path class="cls-4" d="M109.58,170.1c0-.1,0-.2,0-.3a102.75,102.75,0,0,1-17.8,2.68c-1,.07-1.91.16-2.83.27a35.62,35.62,0,0,0-4.3,19.92c1.19,17.81,26.13,46.32,65.92,36.22h0a66.24,66.24,0,0,0,11.85-20.55C130.32,210,110.63,185.88,109.58,170.1Z"/><path class="cls-3" d="M137.32,155.3c-11.25,5.69-14.76,11.14-27.75,14.5a1,1,0,0,1,0,.3c-2.45,17.88,19.18,49.7,52.85,38.23,3.15-8.25,4.91-15.68,7.86-20.11C151.44,182.42,139.7,167.25,137.32,155.3Z"/><path class="cls-4" d="M170.29,188.22a9,9,0,0,1,4.61-3.87c14.25-4.75-6.53-43.34-35-30.28-.9.41-1.74.82-2.55,1.23C139.7,167.25,151.44,182.42,170.29,188.22Z"/><polygon class="cls-3" points="55.32 218.81 37.14 237.8 62.36 231 55.32 218.81"/><ellipse class="cls-4" cx="177.57" cy="146.03" rx="65.59" ry="54.66"/><path class="cls-5" d="M172.74,169.4c1.83,8.4,14.56,9.68,19.65,2"/><circle class="cls-3" cx="150.79" cy="144.45" r="11.88"/><circle class="cls-6" cx="146.83" cy="140.49" r="3.17"/><circle class="cls-3" cx="212.06" cy="151.03" r="11.88"/><circle class="cls-6" cx="208.1" cy="145.49" r="3.17"/><circle class="cls-7" cx="138.02" cy="163.36" r="8.62"/><circle class="cls-7" cx="219.62" cy="171.72" r="8.62"/><path class="cls-3" d="M178,96.9s-16.61-65.72-48.3-64.14-6.33,41.19,6.34,19c0,0,5.57-10.93,19,4.75,9.51,11.09,19,25.35,17.5,42.14C177.27,99.3,178,96.9,178,96.9Z"/><path class="cls-3" d="M200.45,101.82s28.07-61.71,59-54.5S258.3,89,249.79,64.9c0,0-3.53-11.75-19.56,1.28C218.9,75.4,207,87.73,205.5,104.52,200.78,104.31,200.45,101.82,200.45,101.82Z"/></svg>