<svg id="Слой_1" data-name="Слой 1" xmlns="http://www.w3.org/2000/svg" viewBox="0 0 3550 2000"><defs><style>.cls-1,.cls-6{fill:#fff;}.cls-2{fill:#b9e3ed;}.cls-10,.cls-11,.cls-12,.cls-13,.cls-14,.cls-15,.cls-16,.cls-17,.cls-18,.cls-19,.cls-2,.cls-20,.cls-21,.cls-22,.cls-23,.cls-24,.cls-25,.cls-26,.cls-27,.cls-28,.cls-29,.cls-3,.cls-30,.cls-31,.cls-32,.cls-33,.cls-34,.cls-35,.cls-36,.cls-37,.cls-38,.cls-39,.cls-4,.cls-40,.cls-41,.cls-5,.cls-6,.cls-7,.cls-8,.cls-9{fill-rule:evenodd;}.cls-3{fill:#abc546;}.cls-4{fill:#bfdb4f;}.cls-5{fill:#9cb53a;}.cls-7{fill:#efbe37;}.cls-8{fill:#fbc9a6;}.cls-9{fill:#263747;}.cls-10{fill:#ceb690;}.cls-11{fill:#a8415e;}.cls-12{fill:#bb6f2b;}.cls-13{fill:#d06271;}.cls-14{fill:#5d6c83;}.cls-15{fill:#e79f79;}.cls-16{fill:#5c3f24;}.cls-17{fill:#5d262c;}.cls-18{fill:#f27d73;}.cls-19{fill:#fff6f0;}.cls-20{fill:#875c32;}.cls-21{fill:#e6e6e6;}.cls-22{fill:#a65f20;}.cls-23{fill:#ccc;}.cls-24{fill:#4c6fa2;}.cls-25{fill:#2c4f80;}.cls-26{fill:#612919;}.cls-27{fill:#773320;}.cls-28{fill:#965923;}.cls-29{fill:#de6f7d;}.cls-30{fill:#c29825;}.cls-31{fill:#f7961e;}.cls-32{fill:#eb8c17;}.cls-33{fill:#fe802b;}.cls-34{fill:#ceeef5;}.cls-35{fill:#bed3e4;}.cls-36{fill:#976d30;}.cls-37{fill:#7e581e;}.cls-38{fill:#ebe6c3;}.cls-39{fill:#9c9;}.cls-40{fill:#f60;}.cls-41{fill:#446597;}</style></defs><title>jump</title><rect class="cls-1" width="3550" height="2000"/><path class="cls-2" d="M2071.8,704.6c-168.7,110-512.1,471.8-711.7,383.7s-427.8-122.4-639.3-28.7c-419.1,185.6-9.3,660.1-267.3,561.9-370.3-141-175.7,201.6-219,276l3059.9.7c97.5-199.2,203.5-643.4,58.5-967.7-141.1-315.7-625.8-653.1-1281.1-225.9Z"/><path class="cls-3" d="M140.4,1898.2c48.2-99.7,154.9-156.5,241.3-182.3,383.8-114.7,513.3,59.3,874.3-32.5,1235.9-314.3,671.7,115.4,1356.2,4.2,269.9-43.8,537.6,63.3,682.2,210.6Z"/><path class="cls-4" d="M3270.8,1875.5c8.2,7.4,16.1,15,23.6,22.7H202.4c332.7-132,1249.4-205.2,1875.3-170.3,553.5,31,244.6,10.4-15.8,103.3-105.7,37.8-48.5,64.2,80.5,64.2,320.5,0,835.5-102.2,1103-29a142.7,142.7,0,0,1,25.4,9.1Z"/><path class="cls-5" d="M2817,1802.4c.2,2.4,3.6,4.3,9,5.9,35.2,10.4,296.4,11,296.4-.9,0-3.8-30.8-7.4-76-9.5,6.4-1.7,11.5-1.7,10.1-5.8-2.4-7.5-241.3-7.8-239.5,10.3Z"/><path class="cls-5" d="M774.7,1726.9c-.3,3.4-4.7,6.1-11.6,8.4-45.3,14.8-381.6,15.7-381.6-1.3,0-5.4,39.6-10.5,97.8-13.5-8.3-2.5-14.8-2.4-13-8.4,3.1-10.7,310.6-11.1,308.4,14.8Z"/><path class="cls-5" d="M2264.1,1760.1c-3.4,2.2,3.5,6.4,8.5,8.8,33.2,15.6,299.5,11.9,295.9-12.5-2.8-19.2-262.9-23.5-304.4,3.7Z"/><path class="cls-5" d="M911,1792.3c-3.4,2.3,3.5,6.4,8.5,8.8,33.3,15.6,299.6,11.9,296-12.5-2.9-19.2-263-23.5-304.5,3.7Z"/><path class="cls-5" d="M1475.8,1751.3c-6.9,2.3,6.8,6.5,16.8,8.8,65.9,15.6,594.3,11.9,587.2-12.4-5.6-19.3-521.7-23.6-604,3.6Z"/><path class="cls-6" d="M1445.2,1802.4c.5,1.6,16.1,7.4,21.6,10.6s5.2,3.3,11.6,5c3.2.9,12.5,3.2,15.7,1.9s1.6-3.3.8-4.5c-5.1-8.2-37.5-13.7-47.7-13.8l-2,.8Zm6-6.4-.3,1.9h1.1c6.4-.1,30.8-2.3,38.9-3.3l5.7-1c2.5-.5,4-.8,4.7-2.4-3.7-3.1-20.4-1.2-26.4-.3s-20.6,3.7-23.7,5.1Zm-78.7-4.6c3.8,4.8,41.9,7.1,52.3,6,.2-1.2,0-.9-4.7-2.1l-6-1.5c-8.6-2-36.3-6.9-41.6-2.4Zm50.6.1a32.8,32.8,0,0,1-3.7-2.2l-3.6-2.2c-2-1.1-5.1-2.7-7.4-3.7-5.7-2.7-16.8-7-24.7-7.5-2.6-.1-3.2,0-4.1.7-4.5,3.4,16.5,9.1,19.8,10.1s24.8,7.5,26.2,7.5-1.5-2-2.5-2.7Zm35.2-18.3c-1.9.4-6.4,5.8-7.7,7.4s-6.3,7.8-5,9.6,1.7.9,3.5,1.6a108.7,108.7,0,0,1,19.1-12.9c5.2-2.6,4.8-7.4,2.7-8.6-4.4-2.4-10.7,1.1-12.6,2.9Zm-14.6,30.3c-2.3-.5-.8-.2-1.3.1l5.9,7.4c4.1,4,22.3,16.7,29.7,16.1,2.6-3.3-1.3-6.7-3.4-8.1a123.9,123.9,0,0,0-30.9-15.5Zm-12.1-14,2.7-.2c2-4.9-1.7-19.8-8-24.5-8.2-6.2-18.3-5.1-5.1,12,1.8,2.3,3.1,4.2,5,6.5l5.4,6.2Zm6.3-1,3.2.3c4.9-3.2,12.2-15.2,10.1-22-.6-1.9-2.2-4.6-4.6-5.4-7-2.7-9.6,9.2-10,12.6s-.1,10.7,1.3,14.5Zm-38.6,27.8c-.2,1.4-2.3,5.5,8.2,4.3,12.3-1.4,21.5-9.6,25.1-17.4-1.6-.4-2.9-1.2-4.1-1.4s-2.1.9-4.2,1.7l-12.3,4c-6,2.7-11.3,8-12.7,8.8Zm24.8-25.6,2.9,1.5,3.4-2.1c-2.2-3.3-6.6-7.8-9.8-10.8l-7.5-6.4c-2.9-2.4-11-7.6-16.6-6.7-12.7,2.3,22.8,22.2,27.6,24.5Zm27,8.3-2.1,1.1c.9.8-1.1.1,1.2.7,6.3.9,64.1,8.7,58.4.4s-45.3-3-57.5-2.2Zm-23.3,2c-1.1-.6-1.3-.6-1.6-1.6a109.6,109.6,0,0,0-26.8-.4c-11.5,1.3-26.5,6.2-14.5,9.1,9.2,2.2,23.8.1,32.8-2.8,2.8-1,8.7-3.2,10.1-4.3Zm21.8-8.5c.8,1,1,2,1.8,2.7,10.6-2.2,13.4-3.2,22.5-6.4,2.8-1,19.1-7.5,14.8-11.3-2.6-2.2-8-2.1-12.1-1.1-8.9,2.1-24.6,12.8-27,16.1Zm-14.3,11.3c-4.8,2.8-7.2,11.9-6.6,15.8a8.4,8.4,0,0,0,3.9,6.3c4.1,2.7,7.7.4,11,.2,2.3-2.2,4-2,5.2-5.9s-3.8-14.2-7.7-16.4Z"/><path class="cls-7" d="M1435.4,1804.4c8.7.6,17.1-2.4,18.5-6.9s-4.4-8.7-13.1-9.3-17.1,2.4-18.6,6.8,4.4,8.7,13.2,9.4Z"/><path class="cls-6" d="M1168.8,1847c.3,1.5,10,7.4,13.4,10.6a18.6,18.6,0,0,0,7.3,5c2,.9,7.8,3.2,9.8,1.9s1-3.3.5-4.6c-3.2-8.1-23.4-13.7-29.8-13.7l-1.2.8Zm3.7-6.4-.2,1.9h.7c4,0,19.3-2.2,24.3-3.2l3.6-1c1.5-.6,2.4-.8,2.9-2.4-2.4-3.1-12.8-1.2-16.5-.3s-12.8,3.7-14.8,5.1Zm-49.1-4.6c2.4,4.8,26.2,7.1,32.7,6,.1-1.3,0-.9-3-2.1l-3.7-1.5c-5.4-2.1-22.7-6.9-26-2.4Zm31.6.1a16.1,16.1,0,0,1-2.3-2.2l-2.3-2.2a57.2,57.2,0,0,0-4.6-3.7c-3.6-2.7-10.5-7.1-15.4-7.5-1.6-.1-2,0-2.6.7-2.8,3.4,10.3,9.1,12.4,10.1s15.5,7.4,16.3,7.4-.9-1.9-1.5-2.6Zm22-18.3c-1.2.4-4,5.8-4.8,7.4s-4,7.8-3.2,9.6,1.1.9,2.2,1.6a68.3,68.3,0,0,1,12-12.9c3.2-2.6,2.9-7.4,1.6-8.6s-6.7,1.1-7.8,2.9Zm-9.1,30.2c-1.5-.4-.6-.1-.9.2l3.7,7.4c2.5,4,13.9,16.7,18.6,16.1,1.6-3.3-.9-6.7-2.2-8.1a73.4,73.4,0,0,0-19.2-15.6Zm-7.6-13.9,1.7-.2c1.2-4.9-1.1-19.8-5-24.6s-11.5-5-3.2,12.1c1.1,2.3,1.9,4.2,3.1,6.5l3.4,6.2Zm3.9-1,2,.3c3.1-3.2,7.6-15.2,6.3-22-.3-1.9-1.4-4.6-2.8-5.4-4.4-2.7-6.1,9.2-6.3,12.5a63.8,63.8,0,0,0,.8,14.6Zm-24.1,27.7c-.1,1.5-1.4,5.6,5.2,4.4s13.3-9.6,15.6-17.4c-1-.4-1.8-1.3-2.6-1.4s-1.3.8-2.6,1.7l-7.6,4c-3.8,2.7-7.1,8-8,8.7Zm15.5-25.6,1.8,1.6a20.2,20.2,0,0,1,2.2-2.1,81.8,81.8,0,0,0-6.2-10.8l-4.6-6.4c-1.9-2.4-6.9-7.6-10.4-6.7-7.9,2.2,14.2,22.2,17.2,24.4Zm16.9,8.3-1.3,1.2c.5.7-.7.1.7.7,4,.9,40,8.7,36.4.4s-28.2-3.1-35.8-2.3Zm-14.6,2.1a2.1,2.1,0,0,1-1-1.6,42.8,42.8,0,0,0-16.7-.4c-7.2,1.3-16.5,6.2-9,9.1,5.7,2.2,14.8.1,20.4-2.8,1.8-1,5.4-3.2,6.3-4.3Zm13.6-8.5c.6,1,.6,1.9,1.1,2.7a62.5,62.5,0,0,0,14.1-6.4c1.7-1,11.9-7.5,9.2-11.3-1.6-2.2-5-2.2-7.5-1.2-5.6,2.2-15.4,12.9-16.9,16.2Zm-8.9,11.3c-3,2.8-4.5,11.9-4.1,15.8s1,4.8,2.4,6.3,4.8.4,6.9.2c1.4-2.2,2.5-2,3.2-5.9s-2.3-14.2-4.8-16.4Z"/><path class="cls-7" d="M1162.7,1848.9c5.4.7,10.6-2.3,11.5-6.8s-2.7-8.7-8.2-9.3-10.6,2.3-11.5,6.8,2.7,8.7,8.2,9.3Z"/><path class="cls-6" d="M283.2,1763.1c1,1.8,18.1,6.4,24.4,9.4s6.1,3,13,4.2c3.4.5,13.2,2,15.9,0s.5-4.1-.6-5.4c-7.6-8.8-41-10.7-51-9.3l-1.7,1.1Zm3.9-8.2.3,2.2,1-.2c6.2-.9,29.4-6.9,37-9.3l5.3-1.9c2.3-1,3.6-1.6,3.9-3.4-4.7-3.2-20.4,1.4-26,3.2s-19,7.3-21.5,9.4Zm-78.5,5.7c5.2,5,43.2,2.4,53.1-.4-.2-1.5-.3-1-5.3-1.8l-6.4-.9c-9-1.2-37.6-2.9-41.4,3.1Zm49.6-7a44.9,44.9,0,0,1-4.4-2.1l-4.2-2a71.4,71.4,0,0,0-8.5-3.3c-6.3-2.4-18.5-5.9-26.4-5.2-2.6.2-3.2.4-3.8,1.3-3.3,4.6,18.9,8.3,22.5,9s26.6,5.2,28,5-2.1-2.1-3.2-2.7Zm28.6-26.3c-1.7.7-4.4,7.6-5.2,9.7s-3.7,10-1.8,11.9c2.7.1,1.9.8,3.8,1.3a89.3,89.3,0,0,1,14.7-17.7c4.3-3.7,2.4-9.3-.1-10.3-5.1-2.3-10.1,2.7-11.4,5.1Zm-4.7,37.3c-2.5-.2-.9,0-1.3.3l8.1,7.9c5.2,4,27.1,16.3,34.2,14.5,1.5-4.2-3.4-7.5-5.9-8.9a139.6,139.6,0,0,0-35.1-13.8ZM265.8,1750l2.6-.6c.4-6-7.9-22.8-15.5-27.5-10-6-19.6-3.3-1.3,14.8l7,6.9,7.2,6.4Zm5.8-2h3.3c3.8-4.5,7.1-19.4,3-27.1-1.2-2.1-3.7-5-6.2-5.7-7.8-2.1-6.6,12.1-5.9,16.1s3.3,12.6,5.8,16.8Zm-29,37.8c.3,1.7-.5,6.7,9.4,3.9,11.6-3.3,18-14.2,19.1-23.9-1.7-.2-3.2-1-4.5-1s-1.7,1.3-3.6,2.6l-10.7,6.4c-5.1,4-8.5,10.9-9.7,12Zm16.2-33.4,3.3,1.5a29.2,29.2,0,0,1,2.8-3c-3.3-3.6-9-8.1-13.1-11.2l-9.3-6.4c-3.6-2.4-13.2-7.4-18.3-5.5-11.8,4.4,29.2,22.7,34.6,24.6Zm29.1,5.9-1.7,1.6c1.1.8-1.1.3,1.4.7,6.5.2,65.5,1.1,57.2-7.8s-45.3,2.9-56.9,5.5Zm-22.1,5.7c-1.4-.5-1.6-.6-2.2-1.7a87.1,87.1,0,0,0-26.3,3.4c-10.8,3.1-23.9,10.9-11.3,12.6,9.7,1.3,23.3-3.2,31.2-7.9,2.4-1.5,7.5-4.9,8.6-6.4Zm18.6-12.9c1.1.9,1.5,2,2.6,2.8,9.6-4,12.1-5.6,20-10.6,2.4-1.6,16.3-11.5,10.9-15.3-3.2-2.2-8.5-1.4-12.2.4-8,3.8-20,18.4-21.3,22.7Zm-10.5,15.1c-3.7,4-3.3,14.9-1.4,19.4a12.1,12.1,0,0,0,5.7,6.8c4.9,2.5,7.7-.6,10.8-1.4,1.6-2.8,3.4-2.8,3.3-7.6-.2-6.4-8.2-16-12.7-18l-5.7.8Z"/><path class="cls-7" d="M274.2,1766.8c8.8-.4,15.9-5.2,16-10.6s-7-9.5-15.8-9-16,5.2-16,10.6,7,9.5,15.8,9Z"/><path class="cls-6" d="M2673.9,1813.9c.9,1.4,14.3,4,19.4,6s5,2.1,10.2,2.5c2.6.2,10.1.7,11.9-1.2s-.2-3.5-1.3-4.5c-6.9-6.9-31.9-5.9-39.2-3.9l-1,1.1Zm1.6-7.3.6,1.9.7-.3c4.5-1.3,20.9-8.2,26.2-10.8a26.4,26.4,0,0,0,3.7-2c1.5-1,2.4-1.6,2.3-3.2-3.9-2.3-14.9,2.8-18.8,4.8s-13.1,7.6-14.7,9.6Zm-57.4,11c4.5,3.9,32.4-1.3,39.3-4.5-.3-1.2-.3-.8-4.1-1.1l-4.9-.3c-6.9-.2-28.4.5-30.3,5.9Zm35.8-9.8c-1.3-.4-2.4-1-3.5-1.4l-3.4-1.4-6.8-2.2c-5.1-1.4-14.6-3.4-20.4-2.3-1.9.4-2.3.6-2.6,1.5-1.8,4.1,15.2,5.5,18,5.8s20.5,2.3,21.5,2-1.9-1.6-2.8-2Zm17.5-24.5c-1.2.7-2.2,6.8-2.4,8.6s-1.4,8.8.3,10.2,1.5.6,3,.9a68.5,68.5,0,0,1,8.4-16.2c2.6-3.5.5-8-1.5-8.7-4.1-1.6-7.2,3.1-7.8,5.2Zm1.8,31.9c-1.8,0-.7.1-.9.4l7.2,6c4.4,3,22.4,11.8,27.4,9.7.5-3.7-3.6-6.2-5.6-7.1a105.1,105.1,0,0,0-28.1-9Zm-14.1-11,1.8-.7c-.5-5.2-9.1-18.8-15.5-22.1-8.2-4.3-14.9-1.2,1.2,12.6l6.2,5.3,6.3,4.9Zm4-2.2,2.4-.3c2.2-4.1,2.5-17-1.6-23.2-1.2-1.7-3.4-4-5.5-4.3-6-1.2-3.1,10.8-2,14a60.8,60.8,0,0,0,6.7,13.8Zm-16.2,34.3c.4,1.4.6,5.7,7.6,2.5s11.3-13.4,10.7-21.7c-1.2,0-2.5-.6-3.5-.5s-1.1,1.3-2.2,2.5l-7.1,6.3c-3.2,3.7-4.8,9.9-5.5,10.9Zm7.3-29.5,2.7.9,1.6-2.7a84.9,84.9,0,0,0-11.3-8.4l-7.8-4.7c-3-1.8-10.9-5.3-14.4-3.2-8.1,4.6,24.9,16.9,29.2,18.1Zm22.4,2.7-1,1.5c.9.5-.8.3,1.1.4,4.9-.3,48.8-4.2,41.4-11.1s-33.2,6-41.5,9.2ZM2661,1816a2.6,2.6,0,0,1-1.8-1.2,54.3,54.3,0,0,0-19.1,4.9c-7.6,3.4-16.2,11.1-6.6,11.5,7.4.4,16.9-4.5,22-9.1,1.7-1.5,4.9-4.7,5.5-6.1Zm12-12.4c1,.7,1.4,1.6,2.3,2.2,6.6-4.2,8.2-5.7,13.4-10.6,1.6-1.5,10.5-10.9,5.9-13.7-2.7-1.6-6.5-.5-9,1.2-5.4,3.9-12.3,17.2-12.6,20.9Zm-5.6,13.6c-2.2,3.7-.3,12.9,1.7,16.6s3,4.3,5.2,5.2c4,1.8,5.6-1.1,7.8-2,.8-2.5,2.1-2.6,1.3-6.7s-8.3-12.9-11.9-14.2l-4.1,1.1Z"/><path class="cls-7" d="M2667.7,1817.7c6.4-1,11.1-5.6,10.3-10.2s-6.5-7.5-13-6.4-11.1,5.6-10.3,10.2,6.5,7.5,13,6.4Z"/><path class="cls-6" d="M1371,1828.3c-.4,1.2-12.5,5.7-16.7,8.2s-4,2.5-9,3.9c-2.5.6-9.7,2.5-12.2,1.4s-1.2-2.5-.6-3.5c4-6.3,29-10.6,36.9-10.6l1.6.6Zm-4.7-4.9.3,1.4h-.8c-5-.1-23.9-1.8-30.2-2.6l-4.4-.7c-2-.4-3.1-.6-3.7-1.8,3-2.5,15.9-1,20.5-.3s15.9,2.8,18.3,4Zm61-3.6c-2.9,3.7-32.5,5.5-40.5,4.6-.2-.9,0-.6,3.6-1.6l4.7-1.2c6.6-1.5,28.1-5.3,32.2-1.8Zm-39.2.1a28.2,28.2,0,0,0,2.9-1.8l2.7-1.6c1.6-.9,4-2.1,5.8-2.9,4.4-2.1,13-5.5,19.1-5.8,2-.1,2.5,0,3.2.5,3.5,2.7-12.8,7-15.3,7.8s-19.2,5.8-20.3,5.8,1.1-1.5,1.9-2Zm-27.3-14.2c1.5.3,5,4.5,6,5.7s4.9,6.1,3.9,7.5-1.3.7-2.7,1.2a77.1,77.1,0,0,0-14.8-10c-4-2-3.8-5.7-2.1-6.6,3.4-1.9,8.3.8,9.7,2.2Zm11.3,23.4c1.8-.4.7-.1,1.1.1l-4.6,5.8c-3.1,3-17.2,12.9-23,12.4-2-2.6,1-5.1,2.6-6.2a98.9,98.9,0,0,1,23.9-12.1Zm9.4-10.8-2.1-.2c-1.5-3.7,1.3-15.3,6.2-18.9s14.2-4,4,9.3c-1.4,1.8-2.4,3.2-3.9,5l-4.2,4.8Zm-4.8-.8-2.5.3c-3.8-2.5-9.5-11.8-7.9-17,.5-1.5,1.8-3.6,3.6-4.3,5.4-2,7.5,7.2,7.8,9.8a32.1,32.1,0,0,1-1,11.2Zm29.8,21.5c.2,1.1,1.8,4.3-6.3,3.4s-16.6-7.4-19.4-13.5c1.2-.3,2.2-.9,3.2-1.1s1.5.7,3.2,1.3l9.5,3.1c4.7,2.1,8.7,6.3,9.8,6.8Zm-19.2-19.8-2.2,1.2a30.9,30.9,0,0,0-2.7-1.6,73.9,73.9,0,0,1,7.6-8.4l5.8-4.9c2.3-1.9,8.6-6,12.9-5.2,9.8,1.7-17.6,17.2-21.4,18.9Zm-20.9,6.4,1.6.9c-.6.6.9.1-.9.6-4.9.7-49.6,6.7-45.2.2s35.1-2.3,44.5-1.7Zm18,1.6c.9-.4,1.1-.5,1.3-1.2a80.7,80.7,0,0,1,20.8-.3c8.8,1,20.4,4.8,11.2,7-7.2,1.7-18.5.1-25.4-2.2-2.2-.7-6.8-2.4-7.9-3.3Zm-16.8-6.5c-.7.7-.8,1.4-1.4,2.1a108.8,108.8,0,0,1-17.4-5c-2.2-.8-14.8-5.8-11.4-8.8,1.9-1.7,6.1-1.6,9.3-.9,6.9,1.7,19,10,20.9,12.6Zm11.1,8.7c3.6,2.2,5.5,9.2,5.1,12.3a7.1,7.1,0,0,1-3,4.8c-3.3,2.1-6,.3-8.5.1s-3.2-1.5-4.1-4.6,3-10.9,6-12.6Z"/><path class="cls-7" d="M1378.6,1829.8c-6.8.5-13.2-1.8-14.4-5.3s3.4-6.7,10.2-7.2,13.2,1.8,14.4,5.3-3.4,6.7-10.2,7.2Z"/><path class="cls-6" d="M1222.6,1869.1c-.2.9-7.7,3.9-10.4,5.7a13.3,13.3,0,0,1-5.6,2.6c-1.5.4-6,1.5-7.6.5s-.7-2.1-.4-2.8c2.5-4.9,18.2-7,23.1-6.6l.9.6Zm-2.8-4.3v1.2h-.5c-3.1-.2-14.9-2.6-18.8-3.6a22.9,22.9,0,0,1-2.8-.9c-1.2-.4-1.9-.6-2.3-1.6,1.9-1.8,9.9,0,12.8.8s10,3.2,11.5,4.2Zm38,.5c-1.8,2.8-20.3,2.6-25.3,1.5-.1-.8,0-.5,2.3-1.1l2.9-.7c4.2-.9,17.5-2.8,20.1.3Zm-24.5-2.1a11.3,11.3,0,0,0,1.8-1.2l1.8-1.2a17.7,17.7,0,0,1,3.6-2c2.7-1.5,8-3.7,11.9-3.6,1.2,0,1.5.1,2,.5,2.1,2.4-8,5-9.6,5.5s-12,3.6-12.7,3.6.8-1.2,1.2-1.6Zm-17-12.9c.9.4,3.1,3.9,3.7,5s3.1,5.1,2.5,6.2-.9.4-1.7.8a59.5,59.5,0,0,0-9.3-8.9c-2.5-1.8-2.3-4.7-1.3-5.4s5.2,1.1,6.1,2.3Zm7.1,19.5c1.1-.2.4-.1.6.1l-2.9,4.4c-1.9,2.3-10.7,9.5-14.3,8.8-1.3-2.2.6-4.1,1.6-4.9a51.7,51.7,0,0,1,15-8.4Zm5.8-8.2-1.3-.2c-1-3.2.8-12.3,3.9-15s8.9-2.4,2.5,7.7c-.9,1.4-1.5,2.5-2.5,3.9l-2.6,3.6Zm-3-.9h-1.6c-2.3-2.3-5.8-10-4.8-14.1a4.5,4.5,0,0,1,2.2-3.3c3.4-1.3,4.6,6.2,4.8,8.3a29.7,29.7,0,0,1-.6,9Zm18.6,18.9c.2.9,1.1,3.5-3.9,2.4s-10.4-6.9-12.1-11.9a9.6,9.6,0,0,1,2-.7,15.1,15.1,0,0,1,2,1.2l5.9,3c2.9,2,5.5,5.5,6.1,6Zm-11.9-17-1.4.9-1.7-1.5a40.4,40.4,0,0,1,4.8-6.3l3.6-3.7c1.4-1.3,5.3-4.3,8-3.4,6.1,1.9-11,12.9-13.3,14Zm-13.1,4.1,1,.8c-.4.4.6.1-.6.4-3,.3-30.9,2.7-28.2-2.3s21.9.1,27.8,1.1Zm11.2,2.2c.6-.3.7-.3.9-.9a39.8,39.8,0,0,1,12.9.9c5.5,1.2,12.8,4.9,7,6.2s-11.5-.9-15.8-3.1a25.4,25.4,0,0,1-5-3.1Zm-10.5-6.2c-.4.6-.4,1.2-.8,1.6a57.2,57.2,0,0,1-10.9-4.9c-1.4-.7-9.3-5.5-7.1-7.7s3.8-1,5.8-.2c4.3,1.8,11.9,9,13,11.2Zm7,7.7c2.2,1.9,3.4,7.7,3.1,10.1a5.1,5.1,0,0,1-1.8,3.7c-2,1.5-3.8,0-5.3-.3s-2-1.4-2.6-3.9,1.9-8.7,3.8-9.9l2.8.3Z"/><path class="cls-7" d="M1227.4,1870.7c-4.2,0-8.2-2.2-9-5.1s2.2-5.2,6.4-5.2,8.2,2.2,9,5-2.2,5.2-6.4,5.3Z"/><path class="cls-6" d="M1128.8,1861.6c.2,1,5.9,4.1,7.9,6a8.6,8.6,0,0,0,4.3,2.7c1.1.5,4.5,1.6,5.7.6a3.2,3.2,0,0,0,.3-3c-1.9-5.1-13.7-7.3-17.4-6.9l-.8.6Zm2.2-4.4v1.2h.4a117.9,117.9,0,0,0,14.2-3.9l2.1-.8c.9-.5,1.4-.7,1.7-1.8-1.4-1.9-7.5.1-9.6.9s-7.5,3.4-8.7,4.5Zm-28.7.4c1.4,3,15.3,2.8,19.1,1.6.1-.8,0-.5-1.7-1.1l-2.2-.8c-3.2-.9-13.3-2.9-15.2.3Zm18.5-2.2a8.3,8.3,0,0,1-1.4-1.3l-1.3-1.2a17.8,17.8,0,0,0-2.7-2.1c-2.1-1.6-6.1-3.9-9-3.8-1,0-1.2.1-1.5.6-1.6,2.4,6,5.2,7.2,5.7s9.1,3.8,9.6,3.8-.6-1.3-.9-1.7Zm12.8-13.5c-.7.4-2.3,4.1-2.8,5.2s-2.3,5.4-1.8,6.5.6.5,1.2.9a56.3,56.3,0,0,1,7-9.3c1.9-1.9,1.8-5,1-5.7s-3.9,1.1-4.6,2.4Zm-5.3,20.4c-.9-.2-.3,0-.5.2l2.2,4.6c1.4,2.4,8.1,10,10.8,9.2,1-2.3-.5-4.3-1.2-5.1a39.4,39.4,0,0,0-11.3-8.9Zm-4.4-8.6.9-.2c.8-3.3-.6-12.9-2.9-15.7s-6.7-2.5-1.8,8.1c.6,1.4,1.1,2.6,1.8,4l2,3.8Zm2.2-.9h1.2c1.8-2.4,4.5-10.5,3.7-14.9-.2-1.2-.8-2.8-1.7-3.3-2.5-1.4-3.5,6.4-3.6,8.7a48.3,48.3,0,0,0,.4,9.4Zm-14,19.9c-.1.9-.9,3.7,3,2.5s7.8-7.2,9.1-12.6c-.6-.1-1-.6-1.5-.7s-.7.7-1.5,1.3l-4.5,3.2c-2.2,2-4.1,5.7-4.6,6.3Zm9-17.9,1.1.9c.4-.6.9-1.1,1.2-1.5a38.2,38.2,0,0,0-3.6-6.6l-2.7-3.9c-1-1.4-4-4.5-6-3.6-4.7,2,8.3,13.5,10,14.7Zm9.9,4.3-.8.8c.3.5-.4.1.4.4,2.4.4,23.5,2.9,21.4-2.3s-16.6,0-21,1.1Zm-8.5,2.4c-.4-.4-.5-.4-.6-1a21.8,21.8,0,0,0-9.8.9c-4.2,1.3-9.6,5.2-5.3,6.6s8.7-1,12-3.3a31.6,31.6,0,0,0,3.7-3.2Zm7.9-6.5c.3.5.4,1.2.7,1.6a40.7,40.7,0,0,0,8.2-5.2c1-.7,7-5.7,5.4-8s-2.9-1.1-4.4-.2c-3.3,1.8-9,9.4-9.9,11.8Zm-5.2,8c-1.7,2-2.6,8.1-2.4,10.6a6.4,6.4,0,0,0,1.4,3.9c1.5,1.6,2.8,0,4-.3s1.5-1.5,1.9-4.1-1.3-9.1-2.8-10.4l-2.1.3Z"/><path class="cls-7" d="M1125.2,1863.3a6.8,6.8,0,0,0,6.8-5.3c.6-3-1.6-5.5-4.8-5.5a6.7,6.7,0,0,0-6.7,5.3c-.6,3,1.6,5.4,4.7,5.5Z"/><path class="cls-6" d="M218.7,1803.8c0,1.5-10.4,8.5-13.7,12s-3.2,3.4-7.6,5.7c-2.2,1.1-8.7,4.3-11.5,3.4s-2-2.8-1.7-4c1.9-7.9,25.1-16.4,32.8-17.6l1.7.5Zm-6.1-5.1.7,1.7h-.8c-4.9.7-23.9,1.4-30.3,1.3a35.4,35.4,0,0,1-4.6-.2c-2-.2-3.2-.3-4.1-1.6,2.1-3.3,15.2-3.4,19.9-3.2s16.5,1,19.2,2Zm58.5-12.7c-1.7,4.7-30,11-38.2,11-.4-1-.2-.7,3.1-2.3l4.2-2.1c6-2.7,25.8-10.1,30.9-6.6Zm-38.3,5.6c.9-.8,1.5-1.7,2.3-2.4l2.2-2.4c1.2-1.2,3.2-3,4.7-4.2,3.6-3,11-8.1,16.8-9.4,2-.4,2.5-.4,3.3.2,4.3,2.6-10.2,9.9-12.5,11.2s-17,9.5-18,9.6.6-1.9,1.2-2.6Zm-31.1-12.7c1.5.2,6.2,4.5,7.6,5.9s6.7,6.3,6.2,8.1-1.1,1-2.3,1.7a102,102,0,0,0-17.7-9.5c-4.5-1.8-5.4-6.1-4-7.4s8.3-.2,10.2,1.2Zm18.4,25.7c1.7-.7.6-.2,1.1,0l-2.7,7.3c-2.1,4.1-12.8,17.6-18.6,17.8-2.8-2.7-.6-6.2.6-7.7a77.7,77.7,0,0,1,19.6-17.4Zm5.8-13.9h-2.1c-2.7-4.2-3.6-18.1.1-23,4.7-6.5,12.6-6.6,6.8,10.3-.8,2.2-1.4,4.1-2.3,6.4l-2.5,6.2Zm-5-.3-2.4.7c-4.5-2.4-12.9-12.4-13-18.7,0-1.9.6-4.4,2.2-5.5,4.6-3.1,9.5,7.3,10.6,10.3s2.7,9.7,2.6,13.2Zm36,20.9c.5,1.3,3,4.7-5.2,4.8s-18.6-6.2-23.2-13c1.1-.5,1.9-1.4,2.8-1.7s1.7.6,3.5,1.1l10.3,2.3c5.3,1.8,10.5,6,11.8,6.5Zm-25-20.4-1.8,1.7-3.2-1.5c.9-3.3,3.2-7.7,4.9-10.8l4-6.6c1.7-2.5,6.5-8.1,11-7.8,10.2.6-11.8,22.5-14.9,25Zm-18.5,10.5,1.9.8c-.5.7.8-.1-.7.7-4.6,1.6-46.5,14.9-44.2,6.7s33.6-7.6,43-8.2Zm18.1-.7c.8-.7.9-.8.9-1.7a69.9,69.9,0,0,1,20.2-3.2c9-.1,21.5,2.7,13.2,6.6-6.5,3-18,2.7-25.5,1a48.6,48.6,0,0,1-8.8-2.7Zm-18.5-5.3c-.4,1-.3,1.8-.7,2.6a98.5,98.5,0,0,1-18.7-3.3c-2.3-.6-16.2-4.7-13.8-8.6,1.3-2.3,5.5-2.8,8.8-2.4,7.3,1,21.8,8.9,24.4,11.7Zm13.6,8.6c4.3,2.1,8.3,10,8.8,13.6a7,7,0,0,1-1.4,6.1c-2.5,2.8-5.7,1.2-8.3,1.3-2.2-1.7-3.5-1.3-5.3-4.8s-.6-13.2,1.8-15.5l4.4-.7Z"/><path class="cls-7" d="M226.6,1804.5c-6.4,1.6-13.5-.3-15.7-4.2s1.2-8.2,7.7-9.8,13.5.3,15.7,4.2-1.2,8.2-7.7,9.8Z"/><path class="cls-6" d="M685.4,1846.3c-.8,1.1-10.9,2.2-14.8,3.5a16.1,16.1,0,0,1-7.8,1.2c-1.9,0-7.6-.3-8.8-2.1s.3-2.9,1.2-3.7c5.5-5.3,24.2-2.3,29.5,0l.7,1.1Zm-.9-6.4-.5,1.5-.5-.2c-3.3-1.5-15.2-8.8-19-11.5a27.8,27.8,0,0,1-2.7-2.1c-1.1-1-1.8-1.5-1.6-2.9,3-1.6,11,3.7,13.8,5.7s9.4,7.6,10.5,9.5Zm42.5,14.3c-3.6,2.9-24.2-4-29.2-7.2.3-1,.3-.7,3.1-.6l3.7.2c5.2.3,21.2,2.8,22.4,7.6Zm-26.3-11.5,2.7-.9,2.6-.9a39.6,39.6,0,0,1,5.2-1.2c3.8-.9,11.1-1.7,15.3-.3,1.4.5,1.7.7,2,1.5,1.1,3.7-11.8,3.4-13.8,3.4s-15.5.3-16.2-.1,1.4-1.2,2.2-1.5Zm-12-22.4c.9.7,1.4,6,1.5,7.6s.6,7.6-.8,8.7-1.1.3-2.3.4a63.4,63.4,0,0,0-5.5-14.5c-1.8-3.2.1-6.9,1.6-7.3,3.2-1,5.2,3.2,5.5,5.1Zm-2.8,27.2c1.3.1.4.1.6.4l-5.6,4.5c-3.5,2.2-17.4,8.1-21,5.9-.2-3.2,3-5,4.5-5.6a65.8,65.8,0,0,1,21.5-5.2Zm11.1-8.3-1.3-.8c.6-4.3,7.7-15.2,12.6-17.5s11.3.2-1.5,10.7l-4.9,4-4.9,3.6Zm-2.9-2.2-1.8-.5c-1.5-3.7-1.1-14.7,2.3-19.6,1-1.4,2.8-3.1,4.3-3.3,4.6-.5,1.8,9.5.9,12.2a51.3,51.3,0,0,1-5.7,11.2Zm10.4,30.7c-.4,1.2-.7,4.8-5.8,1.5s-7.8-12.4-7-19.4c1,0,2-.3,2.7-.2s.7,1.2,1.5,2.3l5,6c2.2,3.5,3.1,8.9,3.6,9.8Zm-4-25.9-2,.6c-.4-1-.9-1.9-1.1-2.4a54.3,54.3,0,0,1,8.8-6.3l6.1-3.3c2.4-1.3,8.4-3.6,10.9-1.6,5.9,4.7-19.5,12.4-22.7,13Zm-16.9.4.7,1.4c-.7.4.5.3-.9.3-3.6-.7-36.3-7.7-30.4-13s24.5,7.9,30.6,11.3Zm11.3,6.9a1.6,1.6,0,0,0,1.5-.9,39.7,39.7,0,0,1,14,5.9c5.5,3.6,11.6,10.9,4.4,10.4-5.6-.3-12.4-5.3-16-9.7-1.2-1.4-3.5-4.4-3.9-5.7Zm-8.3-11.6c-.8.6-1.2,1.3-1.9,1.7-4.7-4.1-5.8-5.6-9.5-10.2-1.1-1.4-7.3-10.2-3.7-12.2s4.9.1,6.7,1.8c3.8,3.7,8.3,15.7,8.4,18.9Zm3.5,12.2c1.5,3.3-.4,11-2.1,13.9s-2.4,3.5-4.1,4.1-4.2-1.4-5.8-2.4-1.4-2.4-.6-5.8,6.8-10.3,9.6-11.1l3,1.3Z"/><path class="cls-7" d="M689.9,1850.1c-4.8-1.5-8.1-5.8-7.3-9.7s5.3-5.8,10.1-4.3,8,5.7,7.2,9.6-5.2,5.8-10,4.4Z"/><path class="cls-6" d="M2109.2,1710.1c.8,1.1,10.9,2.1,14.9,3.5s3.8,1.3,7.7,1.2c2,0,7.6-.3,8.8-2.1s-.3-2.9-1.1-3.7c-5.5-5.3-24.2-2.3-29.5,0l-.8,1.1Zm.9-6.4.5,1.5.5-.2a215,215,0,0,0,19.1-11.5,18.3,18.3,0,0,0,2.6-2.1c1.2-1,1.8-1.5,1.7-2.9-3.1-1.6-11.1,3.7-13.9,5.7s-9.4,7.6-10.5,9.5Zm-42.4,14.3c3.6,2.9,24.2-4,29.2-7.2-.4-1-.3-.7-3.2-.6l-3.6.2c-5.2.3-21.3,2.8-22.4,7.6Zm26.3-11.5a17.1,17.1,0,0,1-2.7-.9l-2.6-.9a48.7,48.7,0,0,0-5.2-1.2c-3.9-.9-11.1-1.8-15.4-.3-1.4.5-1.7.7-1.9,1.5-1.1,3.7,11.7,3.4,13.7,3.4s15.5.3,16.3-.1-1.5-1.2-2.2-1.5Zm11.9-22.4c-.9.7-1.3,6-1.4,7.6s-.6,7.6.7,8.7,1.2.3,2.3.4a68.4,68.4,0,0,1,5.5-14.5c1.8-3.2,0-6.9-1.6-7.4s-5.1,3.3-5.5,5.2Zm2.9,27.1c-1.4.2-.5.1-.7.4l5.7,4.5c3.5,2.3,17.3,8.2,21,6,.2-3.2-3-5-4.6-5.6a67.9,67.9,0,0,0-21.4-5.3Zm-11.1-8.2,1.3-.8c-.6-4.3-7.7-15.2-12.6-17.5s-11.3.2,1.5,10.6l4.8,4,5,3.7Zm2.9-2.2,1.8-.5c1.4-3.7,1-14.7-2.4-19.6-1-1.4-2.7-3.2-4.3-3.3-4.5-.5-1.8,9.5-.8,12.2a51.3,51.3,0,0,0,5.7,11.2Zm-10.5,30.7c.4,1.2.8,4.8,5.8,1.5s7.8-12.4,7-19.4c-.9,0-1.9-.3-2.6-.2s-.8,1.2-1.6,2.3l-5,6c-2.2,3.5-3.1,8.9-3.6,9.8Zm4.1-25.9,2,.6,1.1-2.5a67.5,67.5,0,0,0-8.9-6.2l-6-3.4c-2.4-1.2-8.4-3.5-11-1.5-5.8,4.7,19.5,12.4,22.8,13Zm16.9.4-.7,1.4c.7.4-.6.3.8.3,3.6-.7,36.3-7.7,30.5-13s-24.6,7.9-30.6,11.3Zm-11.4,6.9c-.8-.2-1-.2-1.4-.9a42.9,42.9,0,0,0-14.1,5.8c-5.5,3.6-11.5,11-4.3,10.5,5.5-.4,12.4-5.3,16-9.7,1.1-1.4,3.4-4.4,3.8-5.7Zm8.3-11.6c.8.6,1.2,1.3,1.9,1.7a56.7,56.7,0,0,0,9.5-10.2c1.1-1.4,7.3-10.3,3.7-12.2-2-1.2-4.9.1-6.6,1.8-3.9,3.7-8.4,15.7-8.5,18.9Zm-3.5,12.2c-1.5,3.3.4,11,2.1,13.9a7.9,7.9,0,0,0,4.2,4.1c3,1.1,4.1-1.4,5.7-2.4s1.4-2.4.7-5.8-6.9-10.3-9.7-11.1l-3,1.3Z"/><path class="cls-7" d="M2104.8,1713.9c4.8-1.5,8-5.8,7.2-9.7s-5.2-5.8-10-4.3-8,5.7-7.3,9.6,5.3,5.8,10.1,4.4Z"/><path class="cls-6" d="M2590.7,1848.2c-.8,1.1-11.1,3.2-15,4.9a20.4,20.4,0,0,1-7.9,2c-2,.2-7.8.6-9.2-.8s.2-2.7,1-3.5c5.3-5.4,24.6-4.9,30.2-3.4l.9.8Zm-1.4-5.6-.4,1.4-.5-.2c-3.5-.9-16.2-6.1-20.3-8.1l-2.9-1.5c-1.2-.8-1.9-1.2-1.8-2.5,3-1.8,11.5,2.1,14.5,3.6s10.2,5.7,11.4,7.3Zm44.5,7.9c-3.5,3.1-25.1-.7-30.4-3.1.2-.9.2-.6,3.2-.9l3.7-.2c5.3-.3,22,.1,23.5,4.2Zm-27.7-7.2c.9-.3,1.8-.8,2.7-1.2l2.6-1.1a39.6,39.6,0,0,1,5.2-1.7c3.9-1.2,11.3-2.8,15.7-2,1.5.3,1.8.4,2.1,1.1,1.4,3.2-11.8,4.4-13.9,4.7s-15.8,2-16.6,1.8,1.4-1.3,2.2-1.6Zm-13.7-18.9c.9.6,1.7,5.3,1.9,6.7s1.1,6.8-.1,7.9-1.2.4-2.4.7a52.7,52.7,0,0,0-6.6-12.5c-2-2.6-.4-6.2,1.2-6.8,3.1-1.2,5.5,2.4,6,4Zm-1.2,24.8c1.4,0,.5.1.7.3l-5.5,4.7c-3.4,2.4-17.3,9.4-21.1,7.8-.5-2.9,2.7-4.8,4.3-5.6a81.9,81.9,0,0,1,21.6-7.2Zm10.8-8.7-1.4-.5c.4-4,6.9-14.6,11.8-17.3,6.4-3.4,11.6-1.1-.8,9.8l-4.7,4.1-4.9,3.9Zm-3.1-1.7-1.8-.2c-1.8-3.1-2.1-13.1,1.1-17.9.9-1.4,2.6-3.2,4.2-3.5,4.6-.9,2.4,8.4,1.6,10.9a43.9,43.9,0,0,1-5.1,10.7Zm12.7,26.5c-.3,1.1-.4,4.4-5.8,2s-8.8-10.2-8.4-16.7c.9,0,1.9-.5,2.6-.4s.9.9,1.8,1.9l5.5,4.8c2.5,2.9,3.8,7.6,4.3,8.4Zm-5.8-22.8-2,.7-1.3-2.1a93.2,93.2,0,0,1,8.6-6.6l6.1-3.7c2.3-1.4,8.3-4.2,11.1-2.7,6.3,3.5-19.2,13.4-22.5,14.4Zm-17.3,2.3.8,1.1c-.7.5.6.3-.9.4-3.7-.2-37.7-2.7-32-8.2s25.7,4.3,32.1,6.7Zm12.1,4.9c.8-.3,1-.3,1.4-1a44.1,44.1,0,0,1,14.8,3.6c5.9,2.6,12.6,8.5,5.1,8.9-5.7.4-13-3.3-17-6.8-1.3-1.1-3.9-3.6-4.3-4.7Zm-9.3-9.5c-.8.6-1.1,1.3-1.8,1.8a58.5,58.5,0,0,1-10.4-8.1c-1.2-1.2-8.2-8.4-4.6-10.7,2-1.2,5-.4,6.9.9,4.2,3,9.6,13.2,9.9,16.1Zm4.4,10.5c1.7,2.8.3,10-1.2,12.9a9.3,9.3,0,0,1-4,4.1c-3.1,1.4-4.4-.8-6.1-1.5s-1.6-2-1-5.2,6.3-10,9.1-11.1l3.2.8Z"/><path class="cls-7" d="M2595.5,1851.1c-5-.7-8.6-4.2-8.1-7.8s5-5.9,10-5.1,8.6,4.2,8.1,7.8-5,5.9-10,5.1Z"/><path class="cls-6" d="M2161.9,1693c-.4,1.8-12.5,8.7-16.7,12.5s-4,3.8-9,5.8c-2.5,1-9.7,3.8-12.1,2.3s-1.3-3.9-.7-5.4c4-9.6,29.1-16.1,36.9-16.1l1.6.9Zm-4.6-7.5.2,2.2h-.8c-5,0-23.9-2.6-30.1-3.8l-4.5-1.2c-1.9-.6-3.1-.9-3.6-2.7,2.9-3.8,15.8-1.5,20.4-.5s16,4.4,18.4,6.1Zm60.9-5.4c-2.9,5.6-32.4,8.3-40.5,7-.1-1.5,0-1,3.6-2.5l4.7-1.7c6.7-2.4,28.1-8.2,32.2-2.8Zm-39.2.1a25,25,0,0,0,2.9-2.7l2.8-2.5a55,55,0,0,1,5.8-4.4c4.3-3.2,12.9-8.2,19-8.7,2-.2,2.5-.1,3.2.7,3.5,4.1-12.7,10.7-15.3,11.9s-19.2,8.8-20.3,8.8,1.1-2.3,1.9-3.1Zm-27.2-21.6c1.5.5,4.9,6.8,5.9,8.8s4.9,9.1,3.9,11.3c-2.1.5-1.3,1-2.7,1.8a89.4,89.4,0,0,0-14.8-15.2c-4-3-3.7-8.6-2.1-10,3.5-2.9,8.3,1.2,9.8,3.3Zm11.3,35.6c1.8-.6.6-.1,1,.2l-4.6,8.7c-3.1,4.7-17.2,19.7-23,18.9-2-3.9,1-7.8,2.6-9.5a92.4,92.4,0,0,1,24-18.3Zm9.3-16.4-2-.2c-1.6-5.8,1.3-23.3,6.1-28.9,6.4-7.2,14.3-5.9,4,14.2-1.4,2.7-2.4,4.9-3.9,7.6l-4.2,7.3Zm-4.8-1.2-2.5.4c-3.8-3.8-9.4-17.9-7.8-25.8.4-2.3,1.7-5.4,3.5-6.5,5.5-3.1,7.5,10.9,7.8,14.8a68.8,68.8,0,0,1-1,17.1Zm29.9,32.7c.1,1.7,1.7,6.5-6.4,5.1s-16.6-11.3-19.4-20.5c1.2-.4,2.2-1.4,3.2-1.7s1.6,1.1,3.2,2.1l9.5,4.7c4.7,3.2,8.8,9.4,9.9,10.3Zm-19.2-30.1-2.2,1.8-2.7-2.5a81.1,81.1,0,0,1,7.6-12.6l5.7-7.6c2.3-2.8,8.6-9,12.9-7.9,9.8,2.7-17.6,26.2-21.3,28.8Zm-21,9.7,1.7,1.4c-.7.9.8.1-.9.8-5,1.1-49.7,10.3-45.3.4s35.1-3.5,44.5-2.6Zm18.1,2.4a2.3,2.3,0,0,0,1.3-1.9,55.5,55.5,0,0,1,20.7-.4c8.9,1.5,20.5,7.3,11.2,10.7-7.1,2.6-18.5.1-25.4-3.4-2.2-1.1-6.7-3.6-7.8-5Zm-16.9-9.9c-.6,1.1-.7,2.2-1.4,3.2a83.2,83.2,0,0,1-17.4-7.6c-2.2-1.2-14.8-8.8-11.4-13.3,1.9-2.6,6.2-2.5,9.3-1.3,6.9,2.5,19.1,15,20.9,19Zm11.1,13.3c3.7,3.3,5.6,14,5.1,18.6s-1.2,5.6-3,7.4-6,.4-8.5.1c-1.8-2.5-3.1-2.3-4-6.9-1.2-6.2,2.9-16.7,5.9-19.2Z"/><path class="cls-7" d="M2169.5,1695.3c-6.8.8-13.2-2.8-14.3-8.1s3.4-10.2,10.1-11,13.2,2.9,14.4,8.1-3.4,10.2-10.2,11Z"/><path class="cls-2" d="M1196.3,550.1c143.3-16.1,293,18.2,342.5-38.5,7.3-8.4,13.4-18.6,18.5-30.7,9.9-23.4-8-37.5-20.5-48.3-37.7-32.1-116.9-26.7-150.1,15.1-12,0,18.5-89.1-65.1-79.7-64.5,7.2-62.1,62.4-62.1,62.1,0-32.5,6.7-92.4-51.2-98.8s-84,69.8-84,104.3c0,77.8-2.9-12.9-66.6,2-59.7,14-120.6,141.8,138.6,112.5Z"/><path class="cls-2" d="M893,804c-98.5-9-115.4,10.1-175.2,3.3-103.3-11.6-52.9-127.8,44.3-119,44.3,4,87.5,49.1,87.5,48.9,0-18.1-4.6-51.4,35.1-55s57.8,38.9,57.8,58c0,43.3,2-7.1,45.8,1.2,41,7.8,82.8,78.8-95.3,62.6Z"/><path class="cls-6" d="M2636.4,750.2c91.9-4.3,185.2,17.8,216.5-38,4.7-8.3,8.5-18.3,11.8-30.1,6.2-23.1-5.1-37-13-47.6-23.9-31.6-73.9-26.2-94.9,14.9-7.6,0,11.7-87.7-41.2-78.5-40.8,7.1-39.1,61.4-39.2,61.1-64.8-89-220,126.5-40,118.2Z"/><polygon class="cls-8" points="2491.7 1431.3 2480.7 1422 2456.4 1337.2 2407.2 1352.2 2456.8 1430.5 2456.5 1450.3 2491.7 1431.3 2491.7 1431.3"/><polygon class="cls-8" points="2414 1412.9 2401.8 1405.3 2365.4 1324.9 2318.9 1347 2379.4 1417.2 2382.1 1436.8 2414 1412.9 2414 1412.9"/><path class="cls-9" d="M2437,1422.7l-27.8-17.4-13.3,14.9-15.9,9c0,27.6-3.7,31.2-18.1,55.1l-5.9,13.4-4.1,6.7,23.9-13.2,31-24.5,30.2-44Z"/><path class="cls-10" d="M2437,1422.7l13.9,14.1c-31,29.6-37.2,43.9-65.6,64.8-25.9,19-47.5,12.5-23.4-17.3l12.4,7.8c36.7-26.5,38-33.4,62.7-69.4Z"/><path class="cls-8" d="M2321.9,1025.6l6.4-38.3-133.8-23.6c1.3-17.9-31.6-40.2-24.3-19.9,6.6,18.6,6.4,8-26,7.2-.2,0-11.7,7.8,11.9,10.2,25.7,2.5-27.9-1-16.6,12.8.1.1,22.7-1,25-1.2s-.9,1.9-5.6,3.1c-.8,2.4-20.8,2.3-13.1,11.7,1.8,2.2,32.2-11.9,10.1,3.3-.8.5-5.8,10.3,8.5,4.6,2.7-1.1,33.3-6.5,34.3-6.3l88.8,30.7,34.4,5.7Z"/><path class="cls-8" d="M2541.7,1013.2l-7.3-38.2,133.3-26.5c-.9-9.7,7.5-18,14-22.8s9.5-6.2,6.3,3.2c-2,6.2-4.5,8.7-4.2,9.8s12.3-2.9,33.9-3.9c.3,0,11.9,7.5-11.7,10.4-25.6,3.1,27.9-1.6,16.9,12.5-.1.1-22.7-.5-25-.7s.9,1.9,5.7,2.9c.8,2.5,20.8,2,13.3,11.5-1.4,1.9-25.7-6.9-19.7-1.4,1.1,1.1,6,2.4,9.7,4.9.8.5,7.5,6.1-8.4,4.8-1.8-.2-10.9-.5-20.2-1.9-6.1-.9-13.8-3.8-14.2-3.7l-88.2,32.6-34.2,6.5Z"/><path class="cls-9" d="M2513.7,1442.6l-28.2-24-17.2,14.5-19.3,7.5c-4.5,30.8-9.3,34.1-29.2,58.5l-8.9,14-5.7,6.7,28.9-10.7,38.7-22.3,40.9-44.2Z"/><path class="cls-10" d="M2513.7,1442.6l13.3,18.1c-39.6,27.9-48.8,42.9-84,61.6-32,16.9-55.1,6.1-23.2-23.2l12.5,10.7c45.4-23.5,47.9-31,81.4-67.2Z"/><polygon class="cls-8" points="2376.6 1178 2518.4 1149.4 2531.2 1220.4 2399 1248.8 2376.6 1178 2376.6 1178"/><path class="cls-11" d="M2357.9,1319.4c13.7,17.5,16.2,18.1,41.9,69.4l-29.3,25c-15.2-18.2-80.2-81.7-95-119.2-15.7-40,88.9-50.4,116.4-54.9l-2.7-11.9c63.3-18.4,75.9-23.3,139.4-21.6,2.1,8.7,12.1,30.7,12.8,38.3,8.2,95.7-128.9,71.5-183.5,74.9Z"/><path class="cls-12" d="M2290.9,1321.5c-6.8-9.7-12.2-18.9-15.4-26.9s-1.1-16.1,4.9-22.3a49.2,49.2,0,0,1,13.4,23.8c2.4,10.1,1.1,19.2-2.9,25.4Z"/><path class="cls-13" d="M2535.3,1225.3c-23.2,4.8-110,15.9-155.1,31.3-26.5,9.1-24.1,26.9-3,59.5,24,37.2,59.8,87.7,64.8,99l37.1-7.7c-11.2-39.9-11.7-64.3-28.9-88.4,55.5,2.1,114-31.2,85.1-93.7Z"/><path class="cls-12" d="M2381,1256.3l-.8.3c-26.5,9.1-24.1,26.9-3,59.5l1.4,2.3c10.4-4.2,17.8-17.1,17.5-32.1-.2-13.4-6.4-24.9-15.1-30Z"/><path class="cls-14" d="M2450.6,986.3l-46.5,2.7-77.3-7.1-6.1,46.3,50.4,12.7c-6,59.5-.7,127.4,10.2,172.9,34.1-26.2,79.7-37.9,148.9-29.9-18.5-71-21.5-98.4-32.6-149.4l63-20-15.4-48.1-94.6,19.9Z"/><path class="cls-11" d="M2341.4,983.2l-14.6-1.3-6.1,46.3,14.6,3.7c5.2-13.5,7.5-30.4,6.1-48.7Z"/><path class="cls-11" d="M2548,1018.5l12.6-4-15.4-48.1-10.1,2.2a127.1,127.1,0,0,0,2.7,18.8,140.1,140.1,0,0,0,10.2,31.1Z"/><path class="cls-11" d="M2450.6,986.3l-46.5,2.7-18.5-1.7v.3c.4,25.1,19.1,45.2,41.7,44.9s40.6-21.1,40.2-46.2c0-1.2-.1-2.3-.2-3.5l-16.7,3.5Z"/><path class="cls-8" d="M2517.7,963.4c-12.3,1.7-23.6-6.5-25.2-18.3s7.2-22.7,19.5-24.4,23.6,6.6,25.2,18.4-7.2,22.7-19.5,24.3Z"/><path class="cls-8" d="M2333.7,959.5c-12.4,1.7-23.6-6.5-25.2-18.3s7.1-22.7,19.5-24.4,23.6,6.6,25.1,18.4-7.1,22.7-19.4,24.3Z"/><path class="cls-15" d="M2458.5,983.3l-52.2,17.3c5.9,37.6,38.8,24.4,52.2-17.3Z"/><path class="cls-8" d="M2417,794.5c-59.3,7.9-101.4,58.5-94.1,113,6.4,48.2,42.7,102.1,96.1,96.9,63.8-6.3,115.3-72.3,108-126.8s-50.7-91-110-83.1Z"/><path class="cls-15" d="M2396.4,896.2l1,2.7c3.1,9.3,7.1,20.8-.6,25.4l-1.5.9c-5.8,3.4-12.7,7.5-10.4,16.9a7.9,7.9,0,0,0,3.1,4.6c2.6,1.8,6.2,2.4,9.6,2.4a31.6,31.6,0,0,0,8.1-1,4.9,4.9,0,0,0,2-.8l-1.9-1.4c-.1.1-.1-.1-.6,0a34.3,34.3,0,0,1-7.6.9c-3,0-6.1-.5-8.2-2a5.4,5.4,0,0,1-2.3-3.3c-1.9-7.7,4.3-11.3,9.4-14.3l1.5-.9c9.3-5.6,5-18.1,1.6-28.2l-1-2.7-2.2.8Z"/><path class="cls-16" d="M2439.7,922.4c-4.4.6-8.6-3-9.2-7.9s2.3-9.6,6.8-10.1,8.5,2.9,9.2,7.9-2.4,9.5-6.8,10.1Z"/><path class="cls-16" d="M2369.4,920.6c-4.4.5-8.5-3-9.2-8s2.4-9.5,6.8-10.1,8.6,3,9.2,7.9-2.4,9.6-6.8,10.2Z"/><path class="cls-17" d="M2433.3,954l-52.5,7.2c13.8,46.2,57,29.1,52.5-7.2Z"/><path class="cls-18" d="M2396.1,985.1c11,7.6,24,4.1,31.4-6.1-10.4-6.7-23.7-5.3-31.4,6.1Z"/><path class="cls-19" d="M2429.5,954.5l-43,5.9c13.9,19.3,36.1,12.9,43-5.9Z"/><path class="cls-12" d="M2527.7,835.3c37.4,51.3-16,91.7-17.3,107.8,8.2-51.3-68-88.3-73.7-92.8-22.1-17.6-12.5-50.2,7.4-60.5,35.3-18.1,75.3,7.1,88.2,37.7.6,1.6,8-9.5,12.2-13.7,1.5,6,4.9,12-11.1,15.1,9.9,1.2,9.3,2.1,16.2,7.1-4.9,2.3-18.3,4.1-21.9-.7Z"/><path class="cls-12" d="M2330.8,818.5c-43.5,46.2-4.7,95.3,3.6,109.2,9.7-68.3,81.4-89.6,87.7-93.4,16.4-10,17.7-23.9,11.1-35.8,3.6-3.5,3.8-3.5,8.6-6.5s11.1-4.6,12.2-21c-19.5,2.6-20.8,16.5-22.6,16.5-.7-4.4-7.3-13.2-11.6-14.1.4,5.8.4,8.7,1.3,11.7a10.9,10.9,0,0,1-1.7-1.3c-32.8-22.4-75.6-2.3-92.2,26.4-.9,1.5-6.8-10.4-10.5-15.1-2.1,5.7-6.3,11.3,9.1,16.4-9.9-.1-9.4.9-16.9,5,4.6,2.9,17.6,6.3,21.9,2Z"/><path class="cls-20" d="M2432.2,788.2l1.9-.4c-12,32.2,15.9,49.3,43.4,66.1,12,7.4,24,14.7,32.6,23.2,13.8,13.7,18.9,30.5,1.7,55.3l-1.9.9c18-25.1,13.1-41.8-.6-55.4-8.5-8.4-20.3-15.7-32.3-23-26.6-16.3-53.6-32.8-45.4-62.8-13.8,31.9,12,50.2,37.7,68.4,9.6,6.8,19.1,13.6,26.6,21.1,12.5,12.3,19.4,26.5,11.8,45.6,0-.8-.1-1.7-.1-2.7,5.9-17.4-.8-30.6-12.4-42.1-7.4-7.4-16.9-14.1-26.5-20.9-26.9-19.2-54-38.5-36.5-73.3Zm6.6-1.1,1.1-.2c-10.1,30.9,19,45.2,47.6,59.3,14.5,7.1,28.8,14.1,37.9,23.1,5.6,5.6,9.2,11.9,9.8,19.4a83.6,83.6,0,0,1-3.4,17.1c-2.8,6.3-7.3,13.2-13.8,21l-.8-.7c22.5-26.7,20.2-43.3,7.5-55.9-9-9-23.2-15.9-37.6-23-28.9-14.2-58.4-28.6-48.3-60.1Z"/><path class="cls-20" d="M2421.9,789.9l-1.8-.7c6.7,33.7-23.6,46-53.5,58.2-13,5.3-26,10.6-35.9,17.6-15.8,11.3-23.6,27-10.6,54.3l1.7,1.2c-13.7-27.6-6.2-43.3,9.5-54.5,9.8-7,22.7-12.3,35.7-17.5,28.8-11.8,58.1-23.7,54.9-54.7,8.4,33.7-20,47.6-48.3,61.4-10.5,5.2-21,10.3-29.6,16.5-14.3,10.2-23.5,23.1-19.1,43.1.2-.8.4-1.7.7-2.6-3.1-18.2,5.6-30.1,18.9-39.6,8.6-6.1,19-11.2,29.5-16.3,29.8-14.6,59.6-29.2,47.9-66.4Zm-6.2-2.2-1.2-.4c5.1,32.2-26.1,41.6-56.5,50.8-15.4,4.7-30.7,9.3-41.1,16.7-6.5,4.6-11.1,10.3-12.9,17.6a90.2,90.2,0,0,0,.7,17.4c1.7,6.6,5,14.2,10.2,23l.9-.6c-17.9-30-12.9-46,1.6-56.4,10.4-7.4,25.5-12,40.8-16.6,30.8-9.3,62.3-18.8,57.5-51.5Z"/><polygon class="cls-20" points="2459.3 890.9 2461.3 882.1 2436.2 877.8 2433.6 886.1 2459.3 890.9 2459.3 890.9"/><polygon class="cls-20" points="2377.8 882 2374.8 873.5 2351.3 883.1 2353.4 891.5 2377.8 882 2377.8 882"/><path class="cls-8" d="M1179.9,1102.7l-25.2-40.3,96.7-90.9c-6.1-7.6-3.6-19.1-.8-26.7s4.6-10.4,7.1-.8c1.6,6.3.5,12.8,1.4,13.6s9.2-12.2,26.7-24.9c.2-.1,14.1-.1-4.1,15.2-19.8,16.5,22.5-16.6,20.9,1.2,0,.1-19.2,12-21.3,13.1,14.4-1.6,24.8-9.7,23.8,1.7-.2,2.4-25.3,8.2-17.3,9.6,1.5.3,6.3-1.2,10.7-1.2,1.1,0,10.6,3-4.4,8.6-5.9,2.2-28.6,8.3-29.4,9.1-19,25.6-34.3,57.1-53.6,80a352.4,352.4,0,0,1-31.2,32.7Z"/><path class="cls-13" d="M1109.8,1523.3l16-26.8,34.5,65.6c-2.6,8.6-9.8,12.5-18.6,13.1-8.9-13.9-16.6-34.7-31.9-51.9Z"/><polygon class="cls-8" points="1134.4 1343.8 1009.6 1315.7 1009.6 1287.4 1132.7 1286.1 1134.4 1343.8 1134.4 1343.8"/><path class="cls-9" d="M957.9,1542.3l-4.6,6.8c-16.1,13.6-24.7,26.9-17.1,30.6,2.2,11.1-3.4,20.9-3.6,30.5-.5,17.9,5.5,33.2,43.2,45.5,18.4-22.2,14.5-22.6,4.9-43.9l-8.2-18.3c.7-6.3,1.9-27,4.7-35a81.5,81.5,0,0,1-19.3-16.2Z"/><path class="cls-9" d="M1159.5,1557l2.4,7.8c11.7,17.7,16.2,32.8,7.9,34.2-5.2,10.1-2.6,21.1-5,30.3-4.6,17.3-14.6,30.4-54.2,31.6-11.6-26.5-7.7-25.7,7.4-43.5l13.1-15.3c1.1-6.2,5.7-26.4,5.3-34.9a83.9,83.9,0,0,0,23.1-10.2Z"/><path class="cls-13" d="M1012.7,1509l-14.1-27.9-39.1,63c2,8.8,8.9,13.2,17.7,14.4,9.8-13.2,19-33.5,35.5-49.5Z"/><path class="cls-21" d="M934.7,1626.1c4.1,11.2,15,21.1,41.1,29.6,14.4-17.3,15.1-21.4,10.2-32.4l-6.4-.7c-16.6-1.4-32.4,0-44.9,3.5Z"/><path class="cls-21" d="M1158.3,1644c-7.1,9.6-20.4,16.1-47.7,16.9-9-20.6-8.6-24.7-.9-34,2.1.4,4.3.7,6.4,1.2,16.4,3.3,31.1,9.1,42.2,15.9Z"/><path class="cls-12" d="M999,1449.2l-31.1,76.3,20.5,20.1c9.6-18.1,61.4-55.5,63-64,7.9-41.2,14.6-87.8,15.4-91.5s-7,46.5-1.6,90.1l61,75.9,25-11.3-30.9-72.6c11.1-78.9,20.2-76,29.5-153.9-40.3,9.1-86.2,4.3-146.7-9.1-1.1,65.4-4.3,89.1-4.1,140Z"/><path class="cls-22" d="M984.7,1484.2l-16.8,41.3,20.5,20.1c9.6-18.1,61.4-55.5,63-64,.7-3.5,1.4-7.1,2-10.7h-.9a181.2,181.2,0,0,0-67.8,13.3Zm79.6-12.9.9,8.9,61,75.9,25-11.3-24.6-58a185.3,185.3,0,0,0-62.3-15.5Z"/><path class="cls-23" d="M939.5,1562.9c-7.4,8.7-9.7,15.8-4.4,18.4,2.2,11.1-3.4,20.9-3.7,30.5-.4,15.2,3.9,28.6,28.5,39.9,14.9,6.7,25.4,4.8,26.7-10.9l-5.8,7.5c-37.7-12.3-43.7-27.6-43.2-45.5.2-9.6,5.8-19.4,3.6-30.5-3.3-1.6-3.8-5-1.7-9.4Z"/><path class="cls-23" d="M1171.3,1581.9c4.7,10.4,4.9,18-.9,19-5.2,10.1-2.6,21-5,30.3-3.9,14.7-11.7,26.4-38.5,30.3-16.1,2.3-25.7-2.5-22.6-17.9.8,2.1,2.4,6.3,3.5,8.8,39.7-1.2,49.7-14.3,54.2-31.6,2.5-9.2-.2-20.2,5.1-30.3,3.6-.6,4.9-4,4.1-8.8Z"/><polygon class="cls-21" points="960.2 1561.5 974.7 1573.2 973.6 1577.9 961.1 1582.3 973 1591.2 973.5 1595.3 962.9 1600 974.2 1600.5 976.6 1604.7 954.1 1603.9 953.9 1599.5 968.4 1593 955.4 1583.4 956.1 1579.6 970 1574.7 957.6 1564.7 960.2 1561.5 960.2 1561.5"/><polygon class="cls-21" points="1151.9 1574.8 1134.7 1582 1134.4 1586.9 1145.2 1594.6 1131.3 1599.8 1129.6 1603.6 1138.5 1611.1 1127.5 1608.3 1124.1 1611.8 1145.9 1617.3 1147.3 1613.1 1135.2 1602.8 1150.3 1597.2 1150.7 1593.4 1138.8 1584.8 1153.5 1578.7 1151.9 1574.8 1151.9 1574.8"/><path class="cls-24" d="M1042.9,1089.7l46.1,3.9,68.3-34.2,30.1,47-56.8,40.4c14.7,56.1,30.8,127.9,33.8,175.8-30.4,8.9-105.6,32-166.7-9.8,7-70.6,5.9-111.1,8.8-161.6l-58.9-24.4,18.2-55,77.1,17.9Z"/><path class="cls-25" d="M1156,1259.3l.4,2a22.9,22.9,0,0,1-3.1,4.2,29.9,29.9,0,0,1-5.3,4.8l-.6-.5c.4-2,3.5-7.4,6.2-9.4a4.3,4.3,0,0,1,2.4-1.1Zm16-163.7c-.1.8-4,2.8-5.4,4.1a5.4,5.4,0,0,1-2.8,1.9c-.8.2-3,.9-3.7,0a2.7,2.7,0,0,1,.1-2.3c1.6-3.8,9.1-4.8,11.4-4.2l.4.5Zm-52.5-17.3,3-1.5a19.2,19.2,0,0,1,4.6,2.1c.2.3,0,.2,0,.3h-2.8a18.6,18.6,0,0,1-4.8-1Zm3.3-1.6,2.9-1.5a9.9,9.9,0,0,1,1.8,2.9l-.2.4c-.5.2-3.2-1.4-4.5-1.8Zm3.3-1.7,1.8-.8c.1,1.1.2,2.2.3,2.9l-.3.5c-.3-.1.1.2-.2-.1s-.9-1.3-1.6-2.5Zm2.1-1,1.5-.8a19.2,19.2,0,0,1-.5,3.4l-.6.3h0a13.1,13.1,0,0,1-.4-2.8Zm2-1,3.8-1.9a20,20,0,0,1-3.6,5.2l-.9.2a11.4,11.4,0,0,1,.7-3.5Zm4.2-2.1,2.5-1.3c.9.4.1,1.9-.4,2.4a15.5,15.5,0,0,1-2.2,2.4c-.4.4-2.3,2.2-2.9,2.2s-.4-.1-.7-.3a31.7,31.7,0,0,0,3.4-5l.3-.4Zm34.7,6.9,1.9,3.1c.4,1,.8,2.7,1,3.4s1,4.3.6,5.1-.4.4-.9.6a41.6,41.6,0,0,0-3.6-7.6c-1-1.6-.7-4-.2-4.5a1.1,1.1,0,0,1,1.2-.1Zm3.3,5.2,2.5,3.9c-.2.8-.3,1.5-.5,2.1h-.7a20.9,20.9,0,0,1-1.3-6Zm2.9,4.5.9,1.5-.4.9-.6-.3a17.9,17.9,0,0,1,.1-2.1Zm1.1,1.8,1,1.6h0l-.7.6-.7-1.3a3.9,3.9,0,0,0,.4-.9Zm1.3,2,.6.9-1.4.4a1.6,1.6,0,0,1,.7-1.2Zm1.2,1.9,1.3,2a13.1,13.1,0,0,1-3.3-1c0-.6,0-.4,1.2-.7l.8-.3Zm1.6,2.5,4.1,6.4c-2.1.1-4.8-1.7-6.5-3.5a13.1,13.1,0,0,1-2.1-2.7.9.9,0,0,0,.5-.7,11,11,0,0,1,4,.5Zm-18.5,28.8-3.3,2.3a33.7,33.7,0,0,0,1.8-4.8c.3-1.5,1.9-2.6,2.5-2.5s.6,2,.2,2.7a12.9,12.9,0,0,1-1.2,2.3Zm-3.5,2.5-1.8,1.3a19.5,19.5,0,0,1,.1-4.8c0-.7.7-4.9,2.3-5.1s1.4.7,1.4,1.6-1.1,5-2,7Zm-2,1.4-.8.6a45.4,45.4,0,0,1-2.3-6.8,5,5,0,0,1-.2-1.2,1.3,1.3,0,0,1,.3-1.3c1.4-.2,2.3,3,2.5,4.2a29.4,29.4,0,0,1,.5,4.5Zm-1.1.8-.9.6c-1.9-1.8-7.7-7.9-4.8-8.9s4.7,5.7,5.7,8.3Zm-1.1.8-1.7,1.2-3-.6a4,4,0,0,1-2.6-.6c-.6-.3-2.2-1.3-2-2.1s.9-1.1,1.3-1.3c2.6-.9,6.3,1.6,8,3.4Zm-1.9,1.3-2.8,2c-2.3.1-5.2-.1-5.5-1a3.3,3.3,0,0,1,2.9-1.5,23.6,23.6,0,0,1,5.4.5Zm-134.2,193-2.1-1a17.5,17.5,0,0,1,.1-7.3c.5,0,.3,0,.7.9a11.7,11.7,0,0,1,.5,1.1c.5,1.2,1.4,4.5.8,6.3Zm-4.1-1.9-3.1-1.6a8.6,8.6,0,0,1,1.8-3.4,17.5,17.5,0,0,1,2-1.9c.2.2.2.3.6.3a9.1,9.1,0,0,1-.5,4.9,13,13,0,0,1-.8,1.7Zm-4.6-2.4-2.7-1.5c1.3-1.8,4.4-3.2,7.2-3.8.1.3.4.5.5.7l-.8.8-1.9,2.3a11.4,11.4,0,0,1-2.3,1.5Zm-9-39.1.3-3.7a6.3,6.3,0,0,1-.3,3.7Zm.5-7.1v-1.5l.8.5.7.6a18.5,18.5,0,0,1,1.4,1.4c1,1,2.4,3,2.4,4.4s0,.6-.3.8-3.3-2.9-3.6-3.5-.9-1.5-1.5-2.7Zm.2-2.1v-.5l.6-.4a25.2,25.2,0,0,1,4.1,1.7l2.4,1.3c.9.5,2.9,2,2.4,3s-8.5-4-9.3-4.8l-.2-.3Zm.3-4.5v-2.4l1.7-2c.5-.5,3.5-3.6,4.9-2.8s.7,1.4.2,2.2-5.3,4.3-6.9,5Zm.2-2.9.3-5.8a1.1,1.1,0,0,1,.9-.7c1.2.6.1,3.7-.4,4.8l-.8,1.7Zm132.6-175.7c-1.7.1-4.3-5.7-4.3-7.5.3-.3.2-.2.9.4l.7.7c1.1,1.1,4,4.8,2.7,6.4Zm-2.3-8.2.9.3.9.2,1.6.7c1.1.5,3.1,1.6,3.6,2.8a1.1,1.1,0,0,1,0,.8c-1,1.2-3.8-1.3-4.3-1.7a30.2,30.2,0,0,1-3.7-3.1c.3-.2.7,0,1,0Zm.3-1.6v-.5c1.5-1,6.7-2.7,8.5-2.4s2.6,2.2-3.7,2.6l-2.4.2Zm0-1.2-.2-.5a18.4,18.4,0,0,1,6.8-4.9,3.5,3.5,0,0,1,2-.1c1.2.8-2.6,3-3.7,3.5a25.3,25.3,0,0,1-4.9,2Zm-7.5,10.4c-.4.3-1.7,1.2-1.8-.7s2.2-4.8,4.7-6.6l.6.4c0,.5-.2.5-.4,1l-.7,2.5a24.4,24.4,0,0,1-2.4,3.4Zm7.4-7.8-.6-.3.5-.8a27.1,27.1,0,0,1,4-.1l2.5.2c1,.2,3.1.7,3,1.7s-8.4-.3-9.4-.7Zm-3.6.9a.6.6,0,0,0,.6,0,8.1,8.1,0,0,1,1.4,4.3c.1,2-.9,5.2-2.4,3.7s-1.1-3.8-.5-5.7a7.9,7.9,0,0,1,.9-2.3Zm-1.3-.7c-.7,1.1-3.6,2.9-4.9,3.4a4,4,0,0,1-2.3.3c-1.1-.3-.5-1.2-.6-1.7s.5-1,1.8-1.8,4.9-1.5,5.8-1.2l.2,1Zm-71.5,141.3c-.5.2-3.2-1.4-4.5-1.8a4.6,4.6,0,0,1-2.2-1.1c-.4-.4-1.6-1.5-1.3-2.3s1-.7,1.4-.8c3-.4,6.3,4,6.8,5.6l-.2.4Zm1.9-1.9-.6.4v-.2a66.2,66.2,0,0,1-.6-6.8v-1a1.6,1.6,0,0,1,.6-1.2c1.2.2,1.3,3.1,1.3,4.2a21.4,21.4,0,0,1-.6,4.6Zm5.1,12c-1.7.1-4.3-5.7-4.4-7.5.4-.3.3-.2,1,.4l.7.8c1.1,1,4,4.8,2.7,6.3Zm-2.3-8.1.9.2.9.3,1.6.6c1.1.5,3.1,1.6,3.6,2.8s.1.6-.1.8-3.7-1.3-4.2-1.7a31.8,31.8,0,0,1-3.7-3,1.2,1.2,0,0,1,1,0Zm4.5-8.5a15.5,15.5,0,0,1-2.2,2.4c-.5.5-2.3,2.2-2.9,2.3s-.4-.2-.7-.4a27.7,27.7,0,0,0,3.4-5c.6-1.2,2.2-1.9,2.7-1.7s.2,1.9-.3,2.4Zm-9.5,7c.3.3.1.1.1.2h-2.8c-1.5,0-6.6-1-6.7-2.3a3.5,3.5,0,0,1,2.9-.7,17.9,17.9,0,0,1,6.5,2.7Zm5.3-.2v-.5c1.5-1,6.7-2.7,8.5-2.4s2.6,2.2-3.7,2.7h-4.7Zm0-1.2-.2-.4a16.7,16.7,0,0,1,6.8-5,3.5,3.5,0,0,1,2-.1c1.2.8-2.6,3-3.7,3.5a25.3,25.3,0,0,1-4.9,2Zm-7.5,10.4c-.4.3-1.7,1.2-1.8-.7s2.2-4.8,4.7-6.6l.6.4c0,.5-.2.5-.4,1l-.7,2.6a29,29,0,0,1-2.4,3.3Zm7.4-7.8-.6-.2.5-.9a27.1,27.1,0,0,1,4-.1l2.5.3c1,.1,3.1.6,3,1.6s-8.4-.3-9.4-.7Zm-4-3.1-.3.5c-.3,0,.1.2-.3-.1s-5.8-9-2.8-9.3,3.1,6.8,3.4,8.9Zm.4,4a.6.6,0,0,0,.6.1,7.8,7.8,0,0,1,1.4,4.2c.1,2-.9,5.2-2.4,3.7s-1.1-3.8-.6-5.7a12.2,12.2,0,0,1,1-2.3Zm1.8-4.7h-1a23.7,23.7,0,0,1,1.1-4.6c.2-.6,1.7-4.2,3.1-4.1s1.1,1,1,1.8-3.2,5.9-4.2,6.8Zm-3.1,4c-.7,1.2-3.6,2.9-4.9,3.4a4,4,0,0,1-2.3.3c-1.1-.2-.5-1.1-.6-1.7s.5-1,1.8-1.7a9.5,9.5,0,0,1,5.7-1.3l.3,1Zm-41-3.1c-.5,0-1.8-1.9-2.6-2.6a2.8,2.8,0,0,1-1.2-1.4c-.2-.4-.7-1.5-.3-1.9a1.5,1.5,0,0,1,1.3-.2c2.1.6,3.2,4.6,3,5.9l-.2.2Zm1.8-.7h-.5a38.3,38.3,0,0,1,1.5-4.9,2.5,2.5,0,0,1,.4-.7c.2-.3.3-.5.7-.6s0,2.5-.3,3.3a12.6,12.6,0,0,1-1.8,3Zm0,9.7c-1.2-.4-1.3-5.1-.8-6.5s.3,0,.5.6l.3.8c.5,1,1.4,4.4,0,5.1Zm.8-6.3.6.5.5.4.9.9a5.7,5.7,0,0,1,1.7,3c0,.4-.1.4-.3.6s-2.2-2-2.4-2.4-1.7-3.1-1.7-3.3a1.5,1.5,0,0,1,.7.3Zm5.6-4.5a6.4,6.4,0,0,1-2.2,1c-.4.2-2.2.9-2.7.7s-.2-.2-.4-.4a20.2,20.2,0,0,0,3.9-2.5,2.8,2.8,0,0,1,2.4-.4c.6.6-.5,1.4-1,1.6Zm-8.5,2c0,.3,0,.1-.1.2l-1.9-.7c-1.1-.5-4.3-2.7-4-3.6a2.5,2.5,0,0,1,2.2.4,14.9,14.9,0,0,1,3.8,3.7Zm3.6,1.5v-.4c1.4-.3,5.4.1,6.6.9s1.1,2.2-3.4.7l-1.7-.6-1.6-.6Zm.4-.8v-.4a12.9,12.9,0,0,1,6.2-1.4,2.3,2.3,0,0,1,1.5.5c.6.9-2.7,1.3-3.7,1.3Zm-8.3,5c-.4,0-1.5.3-1-1s2.9-2.8,5.2-3.3a.9.9,0,0,0,.3.5c-.2.3-.3.3-.6.6l-1.3,1.5a13.7,13.7,0,0,1-2.6,1.7Zm7.5-3.3-.4-.3.6-.5,2.8,1.2,1.7.8c.6.4,1.9,1.4,1.5,2.1s-5.7-2.7-6.2-3.3Zm-1.9-3.3-.3.3c-.2-.2-.1.1-.2-.2s-1.4-7.9.8-7.3.1,5.7-.3,7.2Zm-.9,2.9c.1.1.1.2.4.2a6.1,6.1,0,0,1-.3,3.3c-.5,1.5-2.1,3.4-2.7,1.9s.3-3,1.2-4.1a5.7,5.7,0,0,1,1.4-1.3Zm2.6-2.8-.7-.2a14.6,14.6,0,0,1,2.1-2.8c.4-.4,2.4-2.5,3.4-1.9s.4,1,.1,1.5-3.9,3.1-4.9,3.4Zm-3.3,1.9a9.4,9.4,0,0,1-4.4.9,3.5,3.5,0,0,1-1.7-.4c-.7-.5,0-1,.1-1.4s.6-.5,1.7-.7a7.6,7.6,0,0,1,4.4.9v.7Zm54.5-96.8c-.7-.1-2.7-2.9-3.9-3.9a5.1,5.1,0,0,1-1.7-2.1c-.3-.6-1-2.2-.4-2.8a1.9,1.9,0,0,1,1.8-.2c3.2.8,4.7,6.7,4.5,8.6l-.3.4Zm2.7-1.2h-.8v-.2a65.7,65.7,0,0,1,2.3-7.2,5.4,5.4,0,0,1,.5-1.1c.3-.4.4-.7,1.1-.8s0,3.7-.5,4.8a30.1,30.1,0,0,1-2.6,4.4Zm0,14.4c-1.8-.6-1.9-7.6-1.2-9.5.5-.1.3,0,.8.8s.3.7.4,1.1,2,6.6,0,7.6Zm1.1-9.3.9.7.7.6a9.3,9.3,0,0,1,1.4,1.4c1,1,2.5,3,2.4,4.4s0,.6-.3.8-3.3-3-3.6-3.5-2.5-4.5-2.5-4.8.8.3,1,.4Zm8.3-6.6c-.2.4-2.5,1.2-3.2,1.5s-3.3,1.2-4,1-.3-.3-.6-.6a33.1,33.1,0,0,0,5.7-3.7c1.2-.9,3.1-.9,3.5-.5s-.7,1.9-1.4,2.3Zm-12.6,3c.1.4,0,.1-.1.2l-2.9-1c-1.5-.7-6.2-3.9-5.8-5.3a3.8,3.8,0,0,1,3.2.5,19.9,19.9,0,0,1,5.6,5.6Zm5.4,2v-.4c2-.5,8,.1,9.7,1.2s1.7,3.3-4.9,1.1l-2.6-.9-2.3-1Zm.5-1.1v-.6c1.4-.9,6.4-2.4,9.1-2.1a3.7,3.7,0,0,1,2.1.8c.9,1.3-4,1.9-5.3,2a38.3,38.3,0,0,1-5.9-.1Zm-12.1,7.3c-.6.1-2.3.5-1.6-1.4s4.4-4.1,7.7-4.8c.1.3.4.5.4.7s-.4.4-.8.8l-1.9,2.3a17.7,17.7,0,0,1-3.8,2.4Zm10.9-4.8-.5-.5.9-.6a25.2,25.2,0,0,1,4.1,1.7l2.4,1.3c.9.5,2.9,1.9,2.4,3s-8.5-4-9.3-4.9Zm-2.7-4.8-.5.4c-.3-.2-.1.2-.3-.2s-2-11.8,1.2-10.8.2,8.3-.4,10.6Zm-1.4,4.3c.2.2.2.2.6.2a9.5,9.5,0,0,1-.4,5c-.8,2.1-3.2,4.9-4,2.7s.5-4.4,1.9-6a6.8,6.8,0,0,1,1.9-1.9Zm3.9-4.1a3.8,3.8,0,0,0-1-.3,18.3,18.3,0,0,1,3.1-4.2c.5-.5,3.5-3.6,4.9-2.8s.7,1.4.2,2.2-5.7,4.6-7.2,5.1Zm-4.9,2.7c-1.2.9-4.9,1.5-6.5,1.4a5.3,5.3,0,0,1-2.5-.7c-.9-.7.1-1.4.2-2a7.6,7.6,0,0,1,2.5-1c2.2-.3,5.7.6,6.5,1.3l-.2,1Zm-58.5,138.7a16,16,0,0,1-3.2,1.5c-.7.2-3.3,1.2-4,1s-.3-.3-.6-.6a40.4,40.4,0,0,0,5.7-3.6c1.1-1,3.1-1,3.5-.6s-.7,2-1.4,2.3Zm-7.3,5.1.2-.5c2-.4,8,.1,9.7,1.2s1.7,3.3-5,1.1l-2.5-.9-2.4-.9Zm.6-1.2v-.6c1.5-.9,6.5-2.3,9.2-2,.7.1,1.8.3,2.1.8s-4,1.8-5.3,1.9a38.3,38.3,0,0,1-5.9-.1Zm83.5-100.3c-.6-.1-2.6-2.9-3.8-3.8a4.3,4.3,0,0,1-1.7-2.1c-.3-.6-1.1-2.3-.5-2.9s1.4-.3,1.9-.2c3.2.9,4.7,6.8,4.5,8.6l-.4.4Zm2.7-1.1h-.7v-.2a62.7,62.7,0,0,1,2.2-7.1l.5-1.1a1.7,1.7,0,0,1,1.1-.9c1.2.7,0,3.8-.5,4.9a18.9,18.9,0,0,1-2.6,4.4Zm.1,14.4c-1.9-.7-1.9-7.7-1.2-9.6.5,0,.3,0,.7.9a11.7,11.7,0,0,1,.5,1.1c.6,1.5,1.9,6.5,0,7.6Zm1.1-9.3.8.6.8.7,1.4,1.3c.9,1,2.4,3,2.4,4.5s0,.6-.4.7-3.2-2.9-3.6-3.5-2.4-4.5-2.4-4.8a1.6,1.6,0,0,1,1,.5Zm8.2-6.7c-.2.4-2.5,1.3-3.2,1.5s-3.3,1.3-4,1-.3-.3-.5-.6a47.2,47.2,0,0,0,5.7-3.6,3.4,3.4,0,0,1,3.5-.6c.9.8-.7,2-1.5,2.3Zm-12.6,3c.2.4.1.2,0,.2l-2.9-1c-1.5-.7-6.3-3.9-5.8-5.3a3.6,3.6,0,0,1,3.2.6,20.6,20.6,0,0,1,5.5,5.5Zm5.4,2.1.2-.5c2-.4,7.9.1,9.7,1.2s1.6,3.4-5,1.1l-2.5-.9-2.4-.9Zm.6-1.2v-.6a20.1,20.1,0,0,1,9.1-2c.8.1,1.8.3,2.1.8s-3.9,1.8-5.3,1.9a27.9,27.9,0,0,1-5.8-.1Zm-12.2,7.4c-.5,0-2.2.5-1.5-1.5s4.3-4,7.6-4.8a5.6,5.6,0,0,0,.5.8l-.8.8-1.9,2.3a32.1,32.1,0,0,1-3.9,2.4Zm11-4.8-.6-.5.9-.7c1.3.4,3,1.2,4.2,1.7l2.4,1.3c.9.6,2.8,2,2.3,3s-8.4-4-9.2-4.8Zm-2.8-4.9-.5.4c-.3-.2,0,.2-.2-.2s-2.1-11.7,1.2-10.7.1,8.3-.5,10.5Zm-1.3,4.3c.2.2.2.3.6.3a9.1,9.1,0,0,1-.5,4.9c-.7,2.1-3.1,4.9-4,2.7s.5-4.3,1.9-6a17.5,17.5,0,0,1,2-1.9Zm3.9-4.1a3.5,3.5,0,0,1-1.1-.3,25.9,25.9,0,0,1,3.2-4.2c.4-.5,3.4-3.6,4.9-2.8a1.5,1.5,0,0,1,.2,2.2c-1.1,1.7-5.8,4.7-7.2,5.1Zm-4.9,2.8c-1.3.9-5,1.4-6.6,1.3a4,4,0,0,1-2.4-.6c-1-.8,0-1.4.2-2.1a6.7,6.7,0,0,1,2.5-1c2.2-.3,5.6.6,6.4,1.3v1.1Zm-70.7,141.3c-.6,0-2.6-2.9-3.8-3.8a4.6,4.6,0,0,1-1.8-2.1c-.2-.6-1-2.3-.4-2.9s1.4-.3,1.9-.2c3.2.9,4.7,6.8,4.5,8.7l-.4.3Zm2.7-1.1h-.7a48.4,48.4,0,0,1,2.2-7.2l.5-1.1a2,2,0,0,1,1.1-.9c1.2.7,0,3.8-.5,4.9a18.9,18.9,0,0,1-2.6,4.4Zm1.2,5.1.8.6.8.7,1.4,1.3c.9,1,2.4,3,2.4,4.5s-.1.6-.4.8-3.3-3-3.6-3.6a42.1,42.1,0,0,1-2.4-4.7c.4-.1.7.2,1,.4Zm8.2-6.6a13.9,13.9,0,0,1-3.2,1.4c-.7.3-3.3,1.3-4,1s-.3-.3-.5-.6a47.2,47.2,0,0,0,5.7-3.6,3.4,3.4,0,0,1,3.5-.6c.9.8-.7,2-1.5,2.4Zm-12.6,2.9c.2.4.1.2,0,.3l-2.9-1.1c-1.5-.7-6.3-3.9-5.9-5.3a3.4,3.4,0,0,1,3.2.6,19.6,19.6,0,0,1,5.6,5.5Zm5.4,2.1v-.5c2.1-.4,8,.1,9.8,1.2s1.6,3.4-5,1.1l-2.5-.9-2.4-.9Zm.6-1.2v-.5a18.8,18.8,0,0,1,9.1-2.1,3.7,3.7,0,0,1,2.1.8c.9,1.3-3.9,1.8-5.3,2a27.4,27.4,0,0,1-5.8-.2Zm-1.2,2.6-.6-.5.9-.7a31.2,31.2,0,0,1,4.2,1.8l2.4,1.2c.9.6,2.8,2,2.3,3s-8.5-3.9-9.2-4.8Zm-2.8-4.9-.5.4c-.3-.1,0,.2-.2-.2s-2.1-11.7,1.1-10.7.2,8.3-.4,10.5Zm2.6.2a3.5,3.5,0,0,1-1.1-.3,21.2,21.2,0,0,1,3.2-4.2c.4-.5,3.4-3.5,4.9-2.8a1.5,1.5,0,0,1,.2,2.2c-1.1,1.7-5.8,4.7-7.2,5.1Zm-4.9,2.8c-1.3.9-5,1.4-6.6,1.3a4,4,0,0,1-2.4-.6c-1-.8,0-1.4.2-2a5.3,5.3,0,0,1,2.5-1.1c2.2-.3,5.6.6,6.4,1.3v1.1Zm69.6-39.5c-.5.3-3.8-.8-5.3-.9a4,4,0,0,1-2.6-.6c-.6-.3-2.2-1.2-2.1-2.1s1-1.1,1.4-1.2c3.1-1.2,7.8,2.7,8.7,4.3v.5Zm1.6-2.5-.6.5v-.2a49,49,0,0,1-2.4-7.1,5,5,0,0,1-.2-1.2,1.3,1.3,0,0,1,.3-1.3c1.4-.2,2.2,3,2.5,4.2a31.4,31.4,0,0,1,.5,5.1Zm8.5,11.6c-1.9.6-6.1-5-6.6-7,.4-.3.3-.2,1.1.3l1,.5c1.4,1,5.5,4.2,4.5,6.2Zm-4.6-8.2h2.1l1.9.3c1.3.3,3.7,1,4.6,2.2s.3.5.1.8-4.4-.4-5-.7-4.6-2.2-4.7-2.4a1.3,1.3,0,0,1,1-.3Zm2.8-10.2a16.3,16.3,0,0,1-1.7,3.1c-.4.6-2,2.9-2.7,3.2s-.4-.1-.8-.2a37.3,37.3,0,0,0,2.5-6.3c.3-1.4,1.9-2.6,2.5-2.5s.6,2,.2,2.7Zm-8.5,9.8c.4.3.2.1.1.3l-2.9.8c-1.6.4-7.4.5-7.8-.8a3.6,3.6,0,0,1,2.9-1.5,21.8,21.8,0,0,1,7.7,1.2Zm5.6-1.4-.2-.5c1.4-1.6,6.6-4.6,8.6-4.8s3.3,1.8-3.4,3.8l-2.5.8-2.5.7Zm-.2-1.3-.4-.4c.6-1.6,3.8-5.8,6.2-7.1a3,3,0,0,1,2.1-.6c1.5.5-2.1,3.9-3.1,4.7a35.4,35.4,0,0,1-4.8,3.4Zm-5.5,13.1c-.5.4-1.6,1.7-2.1-.3s1.1-5.8,3.3-8.3c.3.1.7.1.9.3s-.2.5-.2,1.1l-.2,3a38.2,38.2,0,0,1-1.7,4.2Zm6-10.3h-.7l.3-1.1a34.8,34.8,0,0,1,4.4-1l2.7-.4c1-.1,3.5-.1,3.6,1s-9.1,1.8-10.3,1.6Zm-5.1-2.4-.2.6c-.3.1.1.2-.3,0s-8.5-8.2-5.3-9.3,5,6.6,5.8,8.7Zm1.5,4.3c.2,0,.3.1.6-.1a9.1,9.1,0,0,1,2.5,4.2c.7,2.2.4,5.8-1.6,4.6s-2.2-3.8-2-6a7.6,7.6,0,0,1,.5-2.7Zm.7-5.6-1,.4a23.5,23.5,0,0,1,0-5.3c.1-.7.8-4.9,2.4-5.1s1.4.7,1.4,1.6-1.9,7.2-2.8,8.4Zm-2.3,5.1c-.5,1.4-3.2,4.1-4.5,4.9a4.7,4.7,0,0,1-2.4,1c-1.2-.1-.8-1.2-1-1.8s.2-1.1,1.4-2.3,4.9-2.8,6-2.7l.5.9Zm33-154.1c-.6.3-3.9-.8-5.4-.9a3.6,3.6,0,0,1-2.6-.7c-.6-.3-2.2-1.2-2-2s.9-1.1,1.3-1.3c3.1-1.1,7.8,2.7,8.7,4.4v.5Zm1.5-2.5-.6.5v-.2c-.5-1.1-2-5.6-2.4-7.1a5,5,0,0,1-.2-1.2,1.3,1.3,0,0,1,.3-1.3c1.4-.2,2.3,3,2.5,4.2a22.6,22.6,0,0,1,.5,5.1Zm8.5,11.6c-1.9.5-6-5.1-6.6-7s.3-.2,1.1.2l1,.6c1.4.9,5.5,4.2,4.5,6.2Zm-4.6-8.2h2.1l1.9.3c1.4.2,3.7,1,4.6,2.1s.3.6.1.9-4.4-.5-5-.7-4.6-2.2-4.7-2.5.7-.2,1-.2Zm2.8-10.2a20,20,0,0,1-1.7,3.1c-.4.6-2,2.9-2.7,3.1s-.4,0-.8-.1a37.3,37.3,0,0,0,2.5-6.3c.3-1.5,1.9-2.6,2.5-2.5s.6,2,.2,2.7Zm-8.5,9.8c.4.3.2.1.1.2l-2.9.9c-1.6.3-7.4.5-7.8-.9a3.5,3.5,0,0,1,2.9-1.4,19.8,19.8,0,0,1,7.7,1.2Zm5.6-1.5v-.5c1.3-1.5,6.5-4.5,8.6-4.7s3.2,1.7-3.5,3.8l-2.5.8-2.5.6Zm-.2-1.2-.4-.5c.6-1.6,3.8-5.7,6.2-7a3,3,0,0,1,2.1-.6c1.5.5-2.1,3.8-3.1,4.7a35.4,35.4,0,0,1-4.8,3.4Zm-5.5,13c-.4.4-1.6,1.8-2.1-.2s1.1-5.9,3.3-8.4c.3.2.7.2.9.4a6.5,6.5,0,0,1-.2,1.1l-.2,2.9a21.7,21.7,0,0,1-1.7,4.2Zm6-10.3h-.7c.1-.5.3-.9.3-1.1a23.6,23.6,0,0,1,4.4-1.1l2.7-.4c1-.1,3.5,0,3.7,1.1.4,2.6-9.2,1.8-10.4,1.5Zm-5.1-2.3v.6c-.4.1,0,.2-.4,0s-8.5-8.3-5.3-9.4,5,6.6,5.8,8.8Zm1.5,4.3.6-.2a8.9,8.9,0,0,1,2.5,4.3c.7,2.2.4,5.8-1.6,4.6s-2.1-3.9-2-6.1a10.9,10.9,0,0,1,.5-2.6Zm.7-5.6-1,.3a18.2,18.2,0,0,1,.1-5.2c0-.7.7-4.9,2.3-5.2s1.4.8,1.4,1.7-1.9,7.2-2.8,8.4Zm-2.3,5.1c-.5,1.4-3.2,4-4.5,4.9a4.5,4.5,0,0,1-2.4.9c-1.2,0-.8-1.1-1-1.7s.3-1.2,1.4-2.3,4.9-2.9,6-2.8l.5,1Zm-72,141.2c-.5.3-3.8-.8-5.3-.9a4,4,0,0,1-2.6-.6c-.6-.3-2.2-1.3-2.1-2.1s1-1.1,1.4-1.3c3.1-1.1,7.8,2.7,8.7,4.4v.5Zm1.6-2.5-.6.5v-.2a53.5,53.5,0,0,1-2.4-7.1,5,5,0,0,1-.2-1.2,1.3,1.3,0,0,1,.3-1.3c1.4-.2,2.2,3,2.5,4.2a23.2,23.2,0,0,1,.5,5.1Zm8.5,11.6c-1.9.6-6.1-5-6.6-7,.4-.3.3-.2,1.1.2l1,.6c1.4.9,5.5,4.2,4.5,6.2Zm-4.6-8.2h2.1l1.9.3c1.3.3,3.7,1,4.6,2.2s.3.5.1.8-4.4-.4-5-.7-4.6-2.2-4.7-2.4a1.3,1.3,0,0,1,1-.3Zm2.8-10.2a16.3,16.3,0,0,1-1.7,3.1c-.5.6-2,2.9-2.7,3.2s-.4-.1-.8-.2a37.3,37.3,0,0,0,2.5-6.3c.3-1.5,1.9-2.6,2.5-2.5s.6,2,.2,2.7Zm-8.5,9.8c.4.3.2.1.1.3l-2.9.8c-1.6.3-7.4.5-7.8-.8a3.3,3.3,0,0,1,2.9-1.5,19.8,19.8,0,0,1,7.7,1.2Zm5.6-1.5-.2-.4c1.4-1.6,6.6-4.6,8.7-4.8s3.2,1.8-3.5,3.8l-2.5.8-2.5.6Zm-.2-1.2-.4-.5c.6-1.6,3.8-5.7,6.2-7a3,3,0,0,1,2.1-.6c1.5.5-2.1,3.8-3.1,4.7a35.4,35.4,0,0,1-4.8,3.4Zm-5.5,13c-.5.5-1.6,1.8-2.1-.2s1.1-5.8,3.3-8.4c.3.2.7.2.9.4s-.2.5-.2,1.1l-.2,2.9a31.1,31.1,0,0,1-1.7,4.2Zm6-10.3h-.7a5.3,5.3,0,0,1,.3-1.1,23.6,23.6,0,0,1,4.4-1.1l2.7-.3c1-.2,3.5-.1,3.6,1,.5,2.6-9.1,1.8-10.3,1.5Zm-5.1-2.3-.2.6c-.3.1.1.2-.3,0s-8.5-8.2-5.3-9.4,5,6.6,5.8,8.8Zm1.4,4.3h.7a8.2,8.2,0,0,1,2.5,4.2c.7,2.2.4,5.8-1.6,4.6s-2.2-3.9-2-6a11,11,0,0,1,.4-2.7Zm.8-5.6-1,.4a18.8,18.8,0,0,1,.1-5.3c0-.7.7-4.9,2.3-5.1s1.4.7,1.4,1.6-1.9,7.2-2.8,8.4Zm-2.3,5.1c-.5,1.4-3.2,4.1-4.5,4.9a3.8,3.8,0,0,1-2.4.9c-1.2,0-.8-1.1-1-1.7a6.7,6.7,0,0,1,1.4-2.3c1.6-1.6,4.9-2.9,6-2.8l.5,1Zm-15.3-81.9c-.6.5-5-.3-7-.2a6.1,6.1,0,0,1-3.5-.4c-.8-.3-3-1.1-3.1-2.2s1-1.4,1.5-1.7c3.6-1.9,10.5,2.1,12.1,3.9v.6Zm1.4-3.3-.7.7v-.2a61.3,61.3,0,0,1-4.8-8.2,7.8,7.8,0,0,1-.5-1.4,1.5,1.5,0,0,1,.1-1.6c1.7-.5,3.5,3.3,4.1,4.6a28.1,28.1,0,0,1,1.9,6.1Zm13.6,12.8c-2.3.9-8.9-5.2-10.1-7.5.4-.4.3-.3,1.5.2l1.4.5c2,.9,8,4.2,7.2,6.8Zm-7.8-9.2h5.1c1.9,0,5,.6,6.4,1.9s.5.5.4.9c-.5,2.1-5.7.2-6.5-.1s-6.5-1.9-6.7-2.1.9-.4,1.3-.5Zm1.1-12.8c.1.5-1.1,3.2-1.5,4s-1.7,3.9-2.6,4.3-.5-.1-1-.1a45.2,45.2,0,0,0,1.6-8c.1-1.8,1.8-3.4,2.6-3.4s1.2,2.3.9,3.2Zm-8.4,13.2c.5.2.2.1.2.3l-3.6,1.5c-2,.6-9.2,1.7-10.1.1a4,4,0,0,1,3.3-2.1,26.9,26.9,0,0,1,10.2.2Zm6.7-2.7-.3-.5c1.4-2.1,7.2-6.6,9.8-7.1s4.6,1.6-3.4,5.1l-3.1,1.4-3,1.1Zm-.6-1.4-.6-.5c.4-2,3.5-7.5,6.2-9.5a4.7,4.7,0,0,1,2.6-1.1c2,.4-1.7,5-2.9,6.3a34.3,34.3,0,0,1-5.3,4.8Zm-3.8,16.6c-.5.6-1.6,2.3-2.8,0s.1-7.2,2.3-10.6c.4.2.9.1,1.1.3s0,.7,0,1.3l.5,3.7c0,2-1.1,4.8-1.1,5.3Zm5.2-13.4h-1a8.3,8.3,0,0,0,.2-1.3,33.9,33.9,0,0,1,5.3-2l3.4-.8c1.3-.3,4.4-.7,4.9.7,1.1,3-11.3,3.5-12.8,3.4Zm-7.1-2v.7c-.4.2.1.3-.5.1s-12.8-8.7-9-10.5,8,7.2,9.5,9.7Zm2.9,4.9c.4,0,.4.1.8-.2a11.9,11.9,0,0,1,4.2,4.7c1.3,2.5,1.9,7-1,5.8s-3.6-4.3-4-6.9a12.9,12.9,0,0,1,0-3.4Zm-.4-6.9a6.7,6.7,0,0,1-1.2.6,27,27,0,0,1-1.2-6.3c-.1-.8-.3-6.1,1.7-6.6s2,.7,2.3,1.8-.8,8.9-1.6,10.5Zm-1.7,6.6c-.3,1.8-3.1,5.4-4.6,6.6a5.2,5.2,0,0,1-2.8,1.5c-1.5.2-1.3-1.3-1.7-1.9s.1-1.4,1.3-3,5.5-4.3,6.9-4.3l.9,1.1Zm-19.5-73.6c-.2.9-4.6,3.2-6.1,4.7a7.2,7.2,0,0,1-3.3,2.1c-.9.2-3.4,1-4.1,0s-.2-2,.1-2.6c1.8-4.3,10.3-5.4,12.9-4.8l.5.6Zm-1.2-4v1.1h-.3a99.1,99.1,0,0,1-9.7-4.4l-1.4-1a1.8,1.8,0,0,1-1-1.6c1.1-1.6,5.2.6,6.7,1.5s5,3.5,5.7,4.5Zm20.3,2.5c-1.2,2.5-11.1,1.3-13.6,0,0-.7,0-.5,1.3-.9l1.6-.5c2.3-.6,9.6-1.6,10.7,1.4Zm-12.9-3.3a5.2,5.2,0,0,0,1.1-1l1-1a17.7,17.7,0,0,1,2.2-1.6c1.6-1.2,4.6-3,6.7-2.7s.8.2,1,.7c.9,2.2-4.7,4.1-5.6,4.4s-6.8,2.7-7.2,2.6.5-1,.8-1.4Zm-7.8-12.7a21.7,21.7,0,0,1,1.5,4.7c.2,1.1,1.1,4.9.7,5.8s-.5.4-1,.7a49.4,49.4,0,0,0-4.1-8.6c-1.2-1.8-.8-4.5-.2-5.1s2.7,1.3,3.1,2.5Zm1.9,18.2c.6-.1.2,0,.3.2l-1.9,3.8c-1.3,2-6.7,8.1-8.5,7.3a5,5,0,0,1,1.3-4.4,27.8,27.8,0,0,1,8.8-6.9Zm3.9-7.2-.7-.3c-.2-2.9,1.6-11.2,3.5-13.4s5-1.7.6,7.2c-.6,1.2-1,2.1-1.7,3.4l-1.7,3.1Zm-1.5-1h-.9c-1-2.1-2.2-9.4-1.2-13.2.2-1.1.8-2.5,1.4-2.8s2,5.9,1.9,7.8a64.5,64.5,0,0,1-1.2,8.2Zm8.1,18.4c0,.9.3,3.3-2.3,2s-4.9-6.9-5.4-11.6c.5-.1.8-.5,1.2-.6s.4.7.9,1.3l2.9,3.1c1.4,1.9,2.4,5.3,2.7,5.8Zm-4.8-16.2-.8.7-.7-1.4a33.6,33.6,0,0,1,3.1-5.6l2.3-3.1c.9-1.2,3.2-3.7,4.6-2.8,3.1,2.1-7.1,11.2-8.5,12.2Zm-7.3,3,.4.8c-.2.3.3.1-.3.3s-16.8.8-14.9-3.6,11.7,1.2,14.8,2.5Zm5.8,2.6c.3-.2.4-.2.5-.8a12.4,12.4,0,0,1,6.8,1.6c2.9,1.4,6.4,5.2,3.2,6.1s-6.1-1.5-8.2-3.8a13.1,13.1,0,0,1-2.3-3.1Zm-5.1-6.2a5.9,5.9,0,0,1-.6,1.4,28.4,28.4,0,0,1-5.3-5.1c-.7-.8-4.4-5.5-3.1-7.4s2.2-.7,3.1.1,5.5,8.9,5.9,11Zm3,7.4c1,1.9,1.1,7.2.8,9.4a6.3,6.3,0,0,1-1.4,3.4c-1.2,1.2-2-.3-2.8-.7s-.9-1.3-1-3.7,1.8-7.8,2.9-8.8l1.5.4Zm86,122.6c-.2.8-4,2.8-5.4,4.2a5.8,5.8,0,0,1-2.9,1.8c-.7.2-2.9.9-3.6,0a2.7,2.7,0,0,1,.1-2.3c1.6-3.8,9.1-4.7,11.4-4.2l.4.5Zm-1-3.5v.9h-.2a53.6,53.6,0,0,1-8.6-3.9,5.7,5.7,0,0,1-1.3-.8,1.8,1.8,0,0,1-.9-1.4c1-1.4,4.7.5,6,1.3s4.4,3.1,5,4Zm18,2.2c-1.1,2.2-9.8,1.1-12.1,0,0-.7,0-.5,1.2-.8l1.4-.4c2-.6,8.5-1.4,9.5,1.2Zm-11.4-2.9a7.6,7.6,0,0,0,.9-.9l.9-.9,1.9-1.5c1.4-1,4.2-2.5,6-2.3s.7.2.9.6c.8,1.9-4.2,3.6-5,3.9s-6,2.4-6.3,2.3a1.6,1.6,0,0,1,.7-1.2Zm-7-11.3c.4.3,1.2,3.3,1.4,4.2s1,4.3.6,5.2-.4.3-.9.5a45,45,0,0,0-3.6-7.6c-1-1.6-.7-4-.2-4.5s2.4,1.2,2.7,2.2Zm1.7,16.1c.6-.1.2,0,.3.2l-1.7,3.4c-1.1,1.8-5.9,7.2-7.5,6.4a4.4,4.4,0,0,1,1.1-3.9,28.5,28.5,0,0,1,7.8-6.1Zm3.5-6.3-.6-.3c-.2-2.6,1.4-9.9,3.1-11.9s4.4-1.5.5,6.4c-.5,1-.9,1.9-1.5,3l-1.5,2.8Zm-1.4-.9h-.7c-1-1.9-2-8.4-1.2-11.7.3-.9.8-2.2,1.4-2.5s1.7,5.2,1.6,6.9a41.3,41.3,0,0,1-1.1,7.3Zm7.2,16.3c0,.7.3,2.9-2,1.7s-4.4-6.1-4.8-10.3c.4-.1.7-.4,1-.4s.5.5.9,1.1l2.5,2.7a21.2,21.2,0,0,1,2.4,5.2Zm-4.2-14.4-.7.6-.7-1.2a33,33,0,0,1,2.8-4.9l2-2.8c.8-1.1,2.9-3.3,4.1-2.5s-6.3,10-7.5,10.8Zm-6.5,2.6.4.7c-.2.4.2.1-.3.3s-14.9.7-13.2-3.2,10.4,1.1,13.1,2.2Zm5.1,2.4c.3-.2.4-.2.5-.7a10.6,10.6,0,0,1,6,1.4c2.5,1.2,5.6,4.6,2.8,5.4s-5.4-1.3-7.2-3.3a17,17,0,0,1-2.1-2.8Zm-4.4-5.5a13.3,13.3,0,0,0-.6,1.2,28.5,28.5,0,0,1-4.7-4.5c-.6-.7-3.9-4.9-2.7-6.6s1.9-.6,2.7.2,4.9,7.9,5.3,9.7Zm2.6,6.5c.9,1.7,1,6.4.6,8.4a5.2,5.2,0,0,1-1.2,2.9c-1,1.1-1.7-.2-2.4-.5s-.8-1.2-.9-3.3,1.6-6.9,2.6-7.8l1.3.3ZM1171,1092v1h-.2a64.1,64.1,0,0,1-8.6-3.9,5.7,5.7,0,0,1-1.3-.8,1.8,1.8,0,0,1-.9-1.5c1-1.4,4.7.6,6,1.4s4.4,3,5,3.9Zm1.3,4.2c.6-.1.2,0,.3.1l-1.7,3.5c-1.1,1.8-5.9,7.2-7.5,6.4a4.4,4.4,0,0,1,1.2-3.9,25,25,0,0,1,7.7-6.1Zm9.4,9.1c-.1.7.2,2.9-2.1,1.7s-4.3-6.1-4.8-10.3l1.1-.5a6.2,6.2,0,0,1,.8,1.2l2.5,2.7c1.3,1.7,2.2,4.7,2.5,5.2Zm-10.8-11.8.4.7c-.2.3.3.1-.3.3s-14.9.7-13.1-3.2,10.3,1.1,13,2.2Zm.7-3.1c-.3.4-.3.9-.6,1.2a28.5,28.5,0,0,1-4.7-4.5c-.6-.7-3.9-4.9-2.7-6.6s1.9-.6,2.8.1,4.8,7.9,5.2,9.8Zm2.6,6.5c.9,1.7,1,6.4.7,8.4a6,6,0,0,1-1.2,2.9c-1.1,1.1-1.8-.2-2.5-.5s-.8-1.3-.9-3.3,1.6-7,2.6-7.8l1.3.3Zm-17.3,167.7.6,3.3-2.8,1.4-3.1,1.3-3,1.2-.3-.6c1.2-1.8,5.8-5.4,8.6-6.6Zm.9,4.7.5,3.4a46.8,46.8,0,0,1-8.9.9h-1a11.5,11.5,0,0,0,.2-1.4,33.5,33.5,0,0,1,5.3-1.9l3.4-.9Zm.9,5.4.4,3a19.2,19.2,0,0,1-4.5-1c-.8-.2-6.5-1.9-6.7-2.2s.9-.4,1.3-.5a3.3,3.3,0,0,0,1.4-.1h3.7a19.6,19.6,0,0,1,4.4.8Zm-16.7-.9c-.6.4-5-.4-7-.2a7,7,0,0,1-3.5-.4c-.8-.3-3-1.2-3.1-2.2s1-1.5,1.5-1.8c3.6-1.8,10.5,2.1,12.1,4v.6Zm1.4-3.3-.7.7v-.2a77.2,77.2,0,0,1-4.8-8.2,7.8,7.8,0,0,1-.5-1.4,1.7,1.7,0,0,1,.1-1.7c1.7-.4,3.6,3.3,4.1,4.7a26.6,26.6,0,0,1,1.9,6.1Zm13.6,12.7c-2.3,1-8.9-5.1-10.1-7.4.4-.5.3-.3,1.5.1l1.4.6c2,.8,8,4.2,7.2,6.7Zm-6.7-21.9c.1.5-1.1,3.2-1.4,4s-1.8,3.8-2.7,4.2-.5,0-1-.1a45.2,45.2,0,0,0,1.6-8c.1-1.8,1.8-3.4,2.6-3.4s1.2,2.3.9,3.3Zm-8.4,13.1c.5.3.2.1.2.3l-3.6,1.5c-2,.7-9.2,1.8-10.1.2a4.2,4.2,0,0,1,3.3-2.2,29.1,29.1,0,0,1,10.2.2Zm2.3,12.6c-.5.5-1.6,2.3-2.8,0s.1-7.2,2.3-10.6l1.1.2c.2.6,0,.7,0,1.4l.5,3.6c0,2.1-1.1,4.9-1.1,5.4Zm-1.9-15.5v.8c-.4.1.1.2-.5,0s-12.8-8.6-9-10.5,8,7.2,9.5,9.7Zm2.9,5c.4,0,.4,0,.8-.3a11.5,11.5,0,0,1,4.2,4.8c1.3,2.5,1.9,6.9-1,5.7s-3.6-4.3-4-6.9a12.1,12.1,0,0,1,0-3.3Zm-.4-6.9-1.2.6a27.8,27.8,0,0,1-1.2-6.4c-.1-.8-.3-6,1.7-6.5s2,.7,2.3,1.8-.8,8.9-1.6,10.5Zm-1.7,6.5c-.3,1.8-3.1,5.4-4.6,6.7a6,6,0,0,1-2.8,1.5c-1.5.1-1.3-1.3-1.7-2s.1-1.4,1.3-3,5.5-4.2,6.9-4.2l.9,1Zm-19.5-73.6c-.2.9-4.6,3.2-6.1,4.7a6.1,6.1,0,0,1-3.3,2.1c-.9.3-3.4,1-4.1.1a3.2,3.2,0,0,1,.1-2.7c1.8-4.3,10.3-5.4,12.9-4.7l.5.5Zm-1.2-4v1.1h-.3a80,80,0,0,1-9.7-4.4l-1.4-.9a2,2,0,0,1-1-1.7c1.1-1.5,5.2.7,6.7,1.6s5,3.4,5.7,4.4Zm20.3,2.5c-1.2,2.5-11.1,1.4-13.6,0,0-.7,0-.5,1.3-.9l1.6-.4c2.3-.6,9.6-1.6,10.7,1.3Zm-12.9-3.2,1.1-1,1-1a11.8,11.8,0,0,1,2.2-1.7c1.6-1.2,4.6-2.9,6.7-2.6s.8.1,1,.6c.9,2.2-4.7,4.1-5.6,4.5s-6.8,2.6-7.2,2.5.5-1,.8-1.3ZM1122,1185a21,21,0,0,1,1.5,4.8c.2,1,1.1,4.8.7,5.8s-.5.4-1,.6a57.6,57.6,0,0,0-4.1-8.6c-1.1-1.8-.8-4.5-.2-5s2.7,1.3,3.1,2.4Zm1.9,18.3c.6-.2.2-.1.3.1l-1.9,3.9c-1.3,2-6.7,8.1-8.5,7.2a5,5,0,0,1,1.3-4.4,27.4,27.4,0,0,1,8.8-6.8Zm3.9-7.2-.7-.3c-.2-2.9,1.6-11.2,3.5-13.5s5-1.7.6,7.2c-.6,1.2-1,2.2-1.7,3.4l-1.7,3.2Zm-1.5-1h-.9c-1-2.2-2.2-9.5-1.2-13.2a5.3,5.3,0,0,1,1.4-2.9c2-1,2,5.9,1.9,7.9a67.3,67.3,0,0,1-1.2,8.2Zm8.1,18.3c0,.9.3,3.4-2.3,2s-4.9-6.8-5.4-11.6c.5-.1.8-.5,1.2-.5s.4.6.9,1.2l2.9,3.1c1.4,2,2.4,5.4,2.7,5.8Zm-4.8-16.2-.8.7-.7-1.4a32.6,32.6,0,0,1,3.1-5.5l2.3-3.2c.9-1.2,3.2-3.6,4.6-2.7,3.1,2.1-7.1,11.2-8.5,12.1Zm-7.3,3,.4.8c-.2.4.3.1-.3.3s-16.8.8-14.9-3.6,11.7,1.3,14.8,2.5Zm5.8,2.7a1,1,0,0,0,.5-.8,12.4,12.4,0,0,1,6.8,1.5c2.9,1.5,6.4,5.3,3.2,6.1s-6.1-1.5-8.2-3.7a15.5,15.5,0,0,1-2.3-3.1Zm-5-6.3c-.3.5-.4,1.1-.7,1.5a32.6,32.6,0,0,1-5.3-5.2c-.7-.7-4.4-5.5-3.1-7.4s2.2-.7,3.1.1,5.5,9,6,11Zm2.9,7.4c1,1.9,1.1,7.3.7,9.5a5.6,5.6,0,0,1-1.3,3.3c-1.2,1.3-2-.3-2.8-.6s-.9-1.4-1-3.7,1.8-7.9,2.9-8.8l1.5.3Z"/><path class="cls-15" d="M1081.4,1094.5c-7.1.4-32.1-3.4-38-5.8-26.4,51.4,76.4,46.6,38,5.8Z"/><path class="cls-8" d="M1023.3,1039.2l23.8-164.7c1.2,1.8,51.1,17.7,63.5,23.9,27.3,13.8,24.1,50.8,37.4,90.3,16.7,49.3-.6,89.9-40.9,103.8-30.8,10.5-88.2,1.2-89.9-34.9.5,0,5.6-18.3,6.1-18.4Z"/><path class="cls-15" d="M1097.6,976.2l.6,3.4c2.2,11.5,4.9,25.9,13.1,26.6h1.5c6.2.4,13.5,1,16.4,12.1a11.7,11.7,0,0,1-.1,6.7,15.8,15.8,0,0,1-6.1,7.8,26.2,26.2,0,0,1-6.7,3.4,3.5,3.5,0,0,1-1.9.2l.7-2.5c.1,0,0-.2.5-.4a26.5,26.5,0,0,0,6.3-3.2c2.2-1.6,4.4-3.8,5.2-6.6a7.5,7.5,0,0,0,.1-4.7c-2.4-9.2-8.8-9.6-14.3-10h-1.5c-9.9-.9-12.9-16.4-15.2-29l-.7-3.4,2.1-.4Z"/><polygon class="cls-16" points="1054.8 975.7 1051.7 968.8 1075.4 962.6 1076.8 972.5 1054.8 975.7 1054.8 975.7"/><polygon class="cls-16" points="1114.3 962.7 1112.8 954.9 1135.3 950.7 1137.4 958.1 1114.3 962.7 1114.3 962.7"/><path class="cls-16" d="M1077.6,1016.8c3.9-1,6.3-5.4,5.4-9.8s-4.9-7.1-8.8-6-6.3,5.3-5.3,9.7,4.8,7.1,8.7,6.1Z"/><path class="cls-16" d="M1127.4,1004.3c3.9-1,6.3-5.4,5.3-9.7s-4.8-7.1-8.7-6.1-6.3,5.4-5.4,9.8,4.9,7,8.8,6Z"/><path class="cls-26" d="M1040.1,873.4c9.3,1.4,32.9,21.5,55.4,24.8,34.7,5.1,33.1,23.5,42.2,49,4.2-25.3,6.1-64.3-22.2-72.8-25.8-7.7-75.4-1-75.4-1Z"/><path class="cls-27" d="M1034,1082.3c-63.9-8.8-150.8-98.8-106.6-169.8,28.6-46.2,108.4-37.5,127.4-40.6,41.1,115.1-39.1,96-25.6,173l4.8,37.4Z"/><path class="cls-8" d="M1023.8,1065.2c11.1-5.9,14.9-21.8,8.4-35.4s-20.8-19.8-31.9-13.9-14.9,21.8-8.4,35.4,20.8,19.9,31.9,13.9Z"/><path class="cls-27" d="M928.7,991.9c-3.7,3.3,12.8,20.6,7.7,23.9-35.1,22.5,70.1,131.1-38.7,145.2,45.3-33-106.2-77.5,31-169.1Z"/><polygon class="cls-7" points="905.3 1005.7 926.5 991 937.4 1015.2 930.5 1025.1 905.3 1005.7 905.3 1005.7"/><path class="cls-20" d="M1042.1,888.8h-1.9c15,29.6-10.4,50.3-35.5,70.8-11,9-21.9,17.9-29.4,27.4-12,15.4-15.3,32.5,4,54.2l2,.5c-20.1-21.7-17.1-38.7-5.2-54,7.4-9.4,18.3-18.3,29.2-27.2,24.2-19.8,48.8-39.8,37.8-67.9,16.7,29-6.6,50.7-29.7,72.2-8.7,8.1-17.3,16.1-23.8,24.5-10.9,13.9-16.2,28.7-6.8,46.2a22.6,22.6,0,0,1-.1-2.7c-7.6-16.1-2.5-29.9,7.7-42.8,6.5-8.3,15-16.3,23.6-24.3,24.3-22.7,48.8-45.5,28.1-76.8Zm-6.5-.1h-1.2c13.1,28.6-13.9,46.9-40.3,64.8-13.3,9-26.5,17.9-34.5,28.1-4.9,6.3-7.8,12.9-7.6,20.4a77.8,77.8,0,0,0,5.1,16.1c3.3,5.7,8.4,11.8,15.7,18.4l.6-.8c-24.6-22.7-24.1-39.2-13-53.4,7.8-10,21-18.9,34.3-27.9,26.7-18.1,53.9-36.6,40.9-65.7Z"/><path class="cls-27" d="M1054.7,872.8v-.9c2.3,2,25.3-.3,30.3-.1,18.3.7,36.5,1.4,49,6.7s19,16.4,16.8,32.3c-2.1,7.9-8,20.8-14.2,32.1l-1.1-.4c21.3-38.8,15.3-55.4-2.1-62.8-12.4-5.2-30.5-5.9-48.7-6.6-10.2-.4-20.7.9-30.1-.3Z"/><path class="cls-27" d="M1054.7,883v-1.3c6.5,1.1,13.3,2.1,20.1,3,15.6,2.2,31.1,4.3,42.9,9.3,18.9,8,28.2,23.4,12.9,57.8l-2.1,1.8c16.2-35,7.2-50.4-11.5-58.4-11.7-4.9-27.1-7.1-42.6-9.2-6.7-.9-13.3-1.8-19.7-3Z"/><path class="cls-27" d="M1057.1,873.5l-.7-1.1,11.8-4.4c12.3-4.6,24.7-9.3,36-11.3,18.7-3.4,34.5.3,42.8,22.5l-2.1-1.9c-8.4-19.2-23.3-22.4-40.7-19.2-11.2,2-23.4,6.6-35.7,11.3l-11.4,4.1Z"/><path class="cls-8" d="M952.4,1112.3l12.9-36.2-123.7-56.2c3.1-9.1-3.1-19.2-8.4-25.3s-7.8-8.3-6.9,1.6c.6,6.5,3.8,12.2,3.3,13.3s-12.8-8.4-33.5-14.3c-.3-.1-13.4,4.6,8.9,12.8,24.3,8.9-26.8-7.9-19.2,8.3,0,.1,22.2,4.7,24.5,5-14.1,3.5-26.7-.7-21.8,9.7,1,2.2,26.6-.8,19.5,3.2-1.3.8-6.4,1-10.5,2.5-1,.3-8.9,6.4,7.1,6.6,6.3,0,29.7-1.9,30.7-1.4,39.9,26.3,73,51.6,117.1,70.4Z"/><path class="cls-17" d="M1074.4,1047l43.2,4.4c-10,38.2-45.8,25.5-43.2-4.4Z"/><path class="cls-18" d="M1105.8,1071.4c-8.8,6.5-19.6,4.1-25.9-4.1,8.3-5.7,19.2-5,25.9,4.1Z"/><path class="cls-19" d="M1077.5,1047.3l35.4,3.7c-10.9,16.1-29.2,11.5-35.4-3.7Z"/><path class="cls-24" d="M2984,1450.9c36,0,65.2-3.5,65.2-7.8s-29.2-7.9-65.2-7.9-65,3.5-65,7.9,29.1,7.8,65,7.8Z"/><path class="cls-8" d="M2872.1,1203.6l22.7-40.1-87.6-99.7c6.7-6.9,5.4-18.7,3.2-26.4s-3.5-10.9-6.9-1.6c-2.2,6.2-1.8,12.8-2.7,13.5s-8-13.1-24.2-27.3c-.2-.2-14-1.5,2.6,15.4,18.2,18.4-20.8-18.6-20.9-.7,0,.1,18,13.7,20,15-14.2-2.9-23.8-12-23.9-.5,0,2.3,24.4,10.6,16.4,11.2-1.6.1-6.3-1.9-10.7-2.3-1-.1-10.7,2,3.6,9,5.7,2.8,27.7,11,28.4,11.9,16.6,27.2,28.8,60.1,45.8,84.7,8.5,12.3,23.6,26,34.2,37.9Z"/><polygon class="cls-8" points="2963 1563.8 2974.9 1549.1 2985.7 1553.1 2995.3 1547.7 3002.5 1546.4 3019 1579.1 3006.3 1594.8 2984.7 1571 2963 1563.8 2963 1563.8"/><path class="cls-24" d="M2997.4,1585.2c7.8,8.3,14.2,32.2,26.1,37.6,9.2,4.2,20-16.4,14.2-38.6-2.5-9.5-8.4-11.3-13.7-34.8-3.8-16.9-24.4-3.5-28.7-1.7,16.3,5.9,17.6,32.2,14.7,34s-9.1,3.4-12.6,3.5Z"/><polygon class="cls-8" points="3031.9 1608.2 3041.8 1592.1 3053 1594.7 3068.8 1585.8 3089.4 1616.2 3078.8 1633.3 3054.3 1612.5 3031.9 1608.2 3031.9 1608.2"/><path class="cls-24" d="M3073.5,1630.6c11.8,4.5,29.8,24.9,44.3,24.3,11.1-.4,11.7-26-5-45-7.1-8.2-13.9-7.1-30.7-27.7-12-14.8-25.8,8.6-29.1,12.5,18.9-2.2,33.2,23.1,31.3,26.3s-7.3,7.8-10.8,9.6Z"/><path class="cls-13" d="M2875.3,1564c49.7-22.3,41.1-19.4,95.3-12.7l.7,20.9-105.1,2.8,9.1-11Z"/><path class="cls-28" d="M2932.9,1248.6c28.9,23,194.5,16.9,208.9-31.9,23.4-80-3.4-163.6-38.9-232.7-15.8-30.9-174.9-14-175-14.1-39.1,72-70.7,141.8,20.8,163l-15.8,115.7Z"/><path class="cls-12" d="M3013.1,1287.6c29,23,114.3-22.1,128.7-70.9,23.4-80-3.4-163.6-38.9-232.7-15.8-30.9-131.3-24.2-131.4-24.2-39.1,71.9-52.7,156.5,38.8,177.8l2.8,150Z"/><path class="cls-28" d="M3083.8,1278.6l4.3-2.5c27.8-37.8,26.9-69.3,13.6-98.2-9.7-21.1-26.1-40.8-42.5-60.7-37.7-45.3-75.9-91.3-34.9-156.2l-3.5.2c-52.4,68.7-17,119.2,18.3,169.3,12.5,17.7,24.9,35.4,33.4,53.8,13.1,28.5,16.6,59-4.7,94.3-.4,2.1-.8,4.1-1.3,5.9,25.1-38.4,21.8-71.1,7.7-101.8-8.5-18.5-21-36.3-33.5-54-33.5-47.8-67.3-95.8-23.4-159.5-33,61.7,3.9,106.2,40.3,150,16.4,19.7,32.7,39.3,42.3,60.3,13.3,28.9,13.8,60.6-16.1,99.1Zm20.5-13.4c3.3-2.6,6.6-5.3,9.7-8.1s5.5-7.1,7.9-10.5a239.7,239.7,0,0,0,16.6-35.3c3.7-16.4,1.2-31.1-5.1-44.9-10.4-22.5-31-42.3-51.9-62.4-41.3-39.7-83.4-80.2-46.4-143H3033c-37.2,64,5.4,105,47.1,145.1,20.8,19.9,41.3,39.7,51.5,61.8,12.4,27,9.4,57.7-27.3,97.3Z"/><path class="cls-8" d="M3093.8,1218.3l-17.5-42.6,99.4-87.9c-5.8-7.8-3-19.3.1-26.7s4.9-10.3,7.1-.7c1.4,6.4.1,12.9,1,13.8s9.5-12,27.4-24.1c.2-.1,14.1.3-4.6,15s23.1-15.8,20.9,1.9l-21.7,12.4c14.5-1.1,25.1-9,23.8,2.4-.3,2.4-25.6,7.5-17.7,9.1,1.6.3,6.4-1.1,10.8-.9,1.1,0,10.5,3.3-4.7,8.5-5.9,2-28.8,7.4-29.6,8.2-19.8,25-36.1,56-56.1,78.3-9.9,11.1-26.6,22.8-38.6,33.3Z"/><path class="cls-29" d="M2911.9,1548.4c15.5-30.4,22.8-43,29.7-59.5-3.4,16.2-9.8,82.3-4.7,113.8l99.1,9.5,9.3-23c-25.4-12.2-40.3-19.4-62.1-20.7,19.1-43.6,39.7-73.2,58.3-149.4-41.1,4.2-82.8,1.8-141.2-18.9-22.6,61-33.3,121.3-34.1,174.8l45.7-26.6Z"/><path class="cls-7" d="M2999.7,1195.2l-42.6,4.1-61.7-41.3-36.5,55.2,57.2,39.8c-14.1,56.2-29.3,128.1-31.8,176.2,57.3,59.7,117.9-8.5,163.9,12-7.7-70.5-4.4-134.8-7.9-185.2l58.6-25-24.3-60-74.9,24.2Z"/><path class="cls-30" d="M2886.7,1402.1c-1.2,10.1-2.3,19.5-2.8,28.3,57.9,62.7,118.9-8.9,165.3,12.7-1.2-11.2-3-22.2-3.8-33-46.8-4.8-103.5,47.3-158.7-8Z"/><path class="cls-30" d="M2912.7,1267c-3,12-5.9,24.6-8.7,37.3a335.8,335.8,0,0,1,48-3.4c33.2,0,64.1,4.7,90.2,12.8-.2-13-.4-25.6-.8-37.5-22.8-9.5-49.7-15-78.7-15a216.8,216.8,0,0,0-50,5.8Z"/><polygon class="cls-30" points="2999.7 1195.2 2957.1 1199.3 2947.1 1192.6 2957.9 1230.6 3011.4 1198.6 3011.3 1191.4 2999.7 1195.2 2999.7 1195.2"/><path class="cls-8" d="M2967,1159.2l25.6,2.4c-.9,28.3,6.3,29.4,7.6,35l-38,21.5-6.6-19.9c9.3-3,18.5-8.3,11.4-39Z"/><path class="cls-8" d="M3004.2,1140.2l-36.7-161.9c-1.3,1.7-20.9.4-33.7,6.2-28.5,12.9-26.5,54.1-54.2,86.1-31.7,36.5,16.2,117.9,88.7,112.9,4.8-.3,41.6-7.9,41.9-7.9s-5.5-35.4-6-35.4Z"/><path class="cls-15" d="M2933.3,1079.5l-.2,2.5c-.8,8.8-1.8,19.6-9.8,20.6l-1.5.2c-6,.7-13.1,1.5-14.7,10a6.8,6.8,0,0,0,.9,4.9c1.4,2.4,4.1,4.2,6.9,5.5a35.3,35.3,0,0,0,7,2.2h2l-1.1-1.8c-.1,0,0-.2-.5-.3a28.2,28.2,0,0,1-6.5-2c-2.5-1.1-4.9-2.6-6-4.6a4.9,4.9,0,0,1-.6-3.6c1.2-6.9,7.6-7.7,12.9-8.2l1.5-.2c9.6-1.2,10.7-13,11.6-22.5l.2-2.5-2.1-.2Z"/><polygon class="cls-16" points="2989.2 1102.7 2992.7 1097.3 2971.3 1077.5 2969.2 1086.9 2989.2 1102.7 2989.2 1102.7"/><polygon class="cls-16" points="2919.3 1060.7 2921.3 1052.9 2899.1 1048 2896.4 1055.3 2919.3 1060.7 2919.3 1060.7"/><path class="cls-16" d="M2959.1,1116.7c-3.8-1.1-5.9-5.5-4.6-9.8s5.4-6.9,9.2-5.8,5.9,5.6,4.6,9.9-5.4,6.9-9.2,5.7Z"/><path class="cls-16" d="M2902.3,1089.5c-3.8-1.1-5.9-5.5-4.6-9.8s5.4-6.9,9.3-5.8,5.9,5.6,4.6,9.9-5.4,6.9-9.3,5.7Z"/><path class="cls-28" d="M3006.6,959.3c-9.4,1-34.8,22.9-57.7,25.5-35.2,4-37.9,18.8-49,43.9-2.3-25.3,1.8-60.6,30.8-68.2,26.4-6.9,75.9-1.2,75.9-1.2Z"/><path class="cls-8" d="M3015.6,1178.7c-12.4-1.9-20.7-15.5-18.5-30.4s14.2-25.5,26.6-23.7,20.8,15.5,18.5,30.5-14.2,25.5-26.6,23.6Z"/><path class="cls-15" d="M2969.1,1183.4c7.1.7,17-1.5,23.1-3.8-7.3,5.8-15.1,11.8-23.3,15.3.2-3.6.7-5.9.2-11.5Z"/><polygon class="cls-30" points="2916.1 1253 2913.1 1250.9 2924.5 1213 2916.1 1253 2916.1 1253"/><path class="cls-17" d="M2915.8,1144.4l42.2-10.1c3.3,39.4-34.8,39.2-42.2,10.1Z"/><path class="cls-18" d="M2953.5,1157.1c-6.1,9-17.1,10.3-25.8,4.7,6-8.2,16.5-11.1,25.8-4.7Z"/><path class="cls-19" d="M2918.9,1143.7l34.5-8.3c-4.9,18.9-23.7,20.6-34.5,8.3Z"/><path class="cls-24" d="M692,1411.3l12-29.2,19.4-17.9c2.4,2.2-3.3,14.1-8.8,25L692,1411.3Z"/><path class="cls-8" d="M404.3,1069.9l15.5-39.2L286.1,964.6c3.7-10-2.8-21.2-8.3-28.1s-8.3-9.4-7.6,1.5c.4,7.1,3.7,13.5,3.1,14.7s-13.7-9.7-36.3-17c-.2,0-14.7,4.7,9.4,14.4,26.3,10.7-29.1-9.6-21.4,8.5,0,.1,24.2,5.9,26.7,6.4-15.6,3.2-29.3-1.8-24.3,9.8,1,2.4,29.2,0,21.4,4.2-1.6.8-7.1.8-11.7,2.3-1.1.4-10,6.7,7.5,7.5,6.9.3,32.7-.9,33.8-.4,42.8,30.4,78.2,59.3,125.9,81.5Z"/><path class="cls-8" d="M616.9,1076.9l-19.4-37.4,126.3-79.4c-4.7-9.5.6-21.4,5.4-28.8s7.3-10.2,7.8.7c.3,7.2-2.4,13.9-1.7,15s12.7-11.1,34.4-20.6c.2-.1,15.2,3.1-7.9,15.3-25.1,13.2,28-12.5,22.2,6.2,0,.1-23.4,8.4-25.9,9.1,15.8,1.6,28.9-4.7,25.2,7.3-.8,2.5-29.1,3-20.9,6.3,1.6.7,7.2.2,11.9,1.2,1.1.2,10.6,5.6-6.8,8.2-6.8,1-32.6,2.4-33.6,3-39.5,34.6-71.8,67-117,93.9Z"/><path class="cls-8" d="M467.4,1333.7l114.9-67.1,75.8,53.4,91.2,91.1,16.4,8.7-10.8,29.1c-35-36.9-84.6-56-129-79.8l-73.4-30.8-34.8,128-86.3,53.2-10.1,22.2-25.7-35,18.7-11.3,70-63.4-16.9-98.3Z"/><path class="cls-31" d="M577.8,1252.3l4.5,14.3c70.7,35.7,83.8,42.8,141.1,97.6-19.1,19.8-19.9,22.2-31.4,47.1l-87-40c-27.9-12.4-46.8-24-53.4,7.8-18.6,89.9-9.4,73.1-76.6,135.7-26.1-15.3-27.3-11-40.2-38l37.9-42.8-8.5-64.6c-22.2-61.7-9.5-88.5-1.8-115.1l115.4-2Z"/><path class="cls-32" d="M608.8,1280.1c48.7,25.1,65.3,36.9,114.6,84.1-19.1,19.8-19.9,22.2-31.4,47.1l-87-40c-13.6-6-25-11.8-33.9-12.6,7.8-9.3,15.3-19.2,18.2-25.3,11.4-24.6,12.9-43.1,19.5-53.3Z"/><path class="cls-33" d="M454.8,1336.4c-7.9-39.4,1.5-60.8,7.6-82.1l40.4-.7c6.9,10.9,9.5,27.1,5.9,44-6,27.6-26.2,46.6-45.2,42.5a24.1,24.1,0,0,1-8.7-3.7Z"/><path class="cls-34" d="M533.8,1049.4l-45.8,6.7L417.9,1026l-27.3,48.6,59,37.1c-11.4,56.8-16.8,130.8-17,178.9,151.4,33.8,144.7,35.4,170.7-17.2-.7-4.6-12.7-12.8-13.3-17.1-9.2-62.1-10.7-100.6-16.2-147.5l57.4-27.8-21.4-53.9L557.4,1051l-23.6-1.6Z"/><path class="cls-35" d="M486.4,1055.3l-.9-.3-6.3-1.7c-2.3,8.9-4.2,15-8,22.5s-14.8,18.8-25.3,33.5l3.7,2.4c24-33.7,20.7-6.6,75.7-9.3,17-.8,33.8-4,50.3-8.4,1,3.7,2.1,7.7,3.3,12.3l6.8-3.3c-1.4-5.5-2.7-10.2-3.9-14.4l-.8-3.6c-.3,0-4.8-13.1-5.4-14.7-3.5-8.3-7.2-14-12.7-21.9l-.7.4-5.5,3.8c5.3,7.5,8.8,12.9,12,20.6,1.6,3.8,3.1,8.2,4.8,13.7-16,4.2-32.2,7.2-48.5,8a143.4,143.4,0,0,1-52.4-6.5c2.1-3.4,3.8-6.4,5.2-9.2,4.1-8,6.1-14.5,8.6-23.9Zm-23.7-10.1-2.8-1.2-4.3-1.1c-2.4,8.8-4.2,14.9-8,22.4s-9.9,16.6-20.4,31.4l6.1,4.4c10.7-15.1,16.8-24.4,20.9-32.4s6-14.4,8.5-23.5ZM438.9,1035l-4.6-2-2.4-.6c-2.3,8.8-4.1,15-8,22.4s-9.2,15.7-18.6,29l6.3,4c9.5-13.5,15.1-22.1,19-29.6s6-14.2,8.3-23.2Zm9.4,83.8c-.5,2.4-.9,4.9-1.4,7.3,10.8,2.3,18.5,3.8,26.3,4.7,10.9,1.5,21.9,2,42.3,2.8l4.6.2c11.5.5,35,1.5,56.5.6-.3-2.4-.5-4.7-.7-7.1-20.8.5-44.1-.5-55.5-1l-4.6-.2c-20.2-.8-31-1.3-41.7-2.6-7.5-1-15.1-2.5-25.8-4.7Zm-4.7,28.2c-.4,2.5-.7,5-1.1,7.5a460.5,460.5,0,0,0,64.3,11,477.8,477.8,0,0,0,72.8,2.2l-.6-7.4a485.7,485.7,0,0,1-71.4-2.2,437.1,437.1,0,0,1-64-11.1Zm-4.9,39.5c-.3,2.6-.6,5.1-.8,7.7l5.6,2.3c13.6,5.7,26,10.8,45.9,9.8,13.1-.6,25.6-1.4,37.9-2.1,18.7-1.1,36.6-2.2,55.7-2.8-.3-2.5-.6-5-.8-7.4-19,.5-36.8,1.6-55.4,2.8l-37.7,2.1c-18.3.9-29.9-3.9-42.7-9.3l-7.7-3.1Zm-3.4,38.7c-.2,2.5-.4,5-.5,7.5,8.1,2,17.6,3.7,27,5.1,18.1,2.6,36.3,3.7,45,1.8a411.8,411.8,0,0,1,51.6-7.7c9.4-.9,18.7-1.5,27.9-1.9l-.9-7.4c-9.1.4-18.4,1-27.7,1.9a413.5,413.5,0,0,0-52.5,7.8c-7.8,1.7-25,.6-42.3-1.9-9.8-1.4-19.6-3.2-27.6-5.2Zm154.6,30.6c-.4-2.5-.7-4.9-1.1-7.3-12.4,2.6-24.6,6.4-30.1,13-23.4,27.9-63.5,18.7-98,10.8-9.2-2.2-18.1-4.2-26.2-5.4l-1.2,7.3c8,1.3,16.7,3.3,25.8,5.3,36.5,8.4,78.9,18.2,105.4-13.2,4.1-4.9,14.4-8.1,25.4-10.5Zm12.2-160.7,6.9-3.4c-4-15.4-7-25.1-10.2-32.7s-6.9-13.7-12.3-21.3l-4,1.8-2.5,1.8c5.2,7.5,8.7,12.9,11.9,20.6s6.1,17.2,10.2,33.2Zm23.3-11.3,5.8-2.8-21.4-53.9-6.5,3c5.2,7.4,8.7,12.8,11.9,20.5s6.1,17.2,10.2,33.2Z"/><path class="cls-8" d="M613.8,994.2c9.9-.8,17.5-10.2,16.8-21.1s-9.4-19-19.4-18.2-17.5,10.3-16.8,21.1,9.4,19,19.4,18.2Z"/><path class="cls-8" d="M501.3,1048.1l6.7-13.4,24.4,4.6-4,17c6.3,4.6,9.6,10.1,8.1,14.8-2.3,7.2-15.1,9.4-28.6,5s-22.5-13.7-20.2-20.8c1.4-4.3,6.7-6.9,13.6-7.2Z"/><path class="cls-8" d="M489.4,851.3c59.4-7.2,112.9,31.1,119.5,85.7,2.5,20.2,3,45.5-6.4,62.5-16.1,29-27.5,49.9-60,55.7-55.1,9.6-117.1-40.2-123.8-94.7S430,858.6,489.4,851.3Z"/><path class="cls-15" d="M530.7,928.7v3.2c-.6,11-1.3,24.5,7.4,27.6l1.6.5c6.6,2.2,14.4,4.8,14.7,15.6a8.8,8.8,0,0,1-1.8,5.9c-1.9,2.7-5.3,4.2-8.6,5.1a30.7,30.7,0,0,1-8.1,1.1,4.2,4.2,0,0,1-2.1-.4l1.4-2c.1.1.1-.2.6-.2a30.4,30.4,0,0,0,7.6-1c2.9-.8,5.8-2.1,7.4-4.3a7,7,0,0,0,1.3-4.2c-.3-8.9-7.2-11.2-13-13.1l-1.6-.6c-10.5-3.6-9.8-18.3-9.2-30.2l.2-3.2,2.3.2Z"/><polygon class="cls-36" points="479.6 951.5 476.8 945 504 927.1 504.6 937.9 479.6 951.5 479.6 951.5"/><polygon class="cls-36" points="544.5 920.1 545.8 911.2 570.8 916 570.3 924.7 544.5 920.1 544.5 920.1"/><path class="cls-16" d="M499.7,980.8c4.4-.5,7.5-5,6.9-10s-4.7-8.6-9.2-8.1-7.5,5-6.9,10,4.7,8.6,9.2,8.1Z"/><path class="cls-16" d="M567.2,961.3c4.4-.5,7.5-5,6.9-10s-4.7-8.6-9.1-8.1-7.5,5.1-6.9,10.1,4.7,8.5,9.1,8Z"/><path class="cls-17" d="M517.1,1005.7l48.4-4.1c-3,44.1-45.1,37.5-48.4,4.1Z"/><path class="cls-18" d="M556.7,1026c-8.3,9-20.7,8.5-29.4.9,8-8.1,20.2-9.5,29.4-.9Z"/><path class="cls-19" d="M520.6,1005.4l39.6-3.4c-8.5,20.1-29.6,18.8-39.6,3.4Z"/><path class="cls-36" d="M451.1,1007.4c20.2,6.6,12.7-74.8-18.2-105.7-4.2-4.3,22.3,12.8,36.2-9.8,26.9-43.6,3.2,22.6,53.6-19.6,10.6-8.8,6.1,9.1,30.2,5.2,31.7-5.2,9,7.1,16.2,20.2,8.6,15.6,34.8,5.1,42.1,57.2,10.6-13.2,40.6-76.5,1.5-78.7-22.5-1.3-7.2-13.9-7.7-36.3-.7-26.5-17.2-62.8-51.6-53.5-29.2,7.8-4.7,9.5-60.1-9.4-41.5-14.1-72.8,18.2-77.1,48.7-53.5-8.1-102.1,61.8-45.9,99.8-24.4,35.3,21.4,52.6,20.2,53.3-20,12,1.7,37.8,37.3,23.5,10.8-4.3,20.6,4.2,23.3,5.1Z"/><path class="cls-37" d="M368.6,931.8c-13.8,25.7,10,40.9,19.4,46.2.3-3.8,2.7-7.5,7.5-10.4,1-.6-29.2-12.3-26.9-35.8Zm83,76.9c6,2,9.1-4.6,10.3-15-1.8,2.1-3.5,3.3-6.3,2.4s-12.4-9.4-23.1-5.1c-23.4,9.5-40.8,1.4-44-8.6-14.4,12.6,6.6,34.7,40,21.2,10.6-4.3,20.3,4.2,23.1,5.1Zm18-115.5c29.7-41.7,3.1,22.5,53.2-19.7,10.5-8.9,6,9,29.9,5.1,31.4-5.2,9,7.1,16.1,20.2,8.4,15.6,34.5,5,41.6,57.1,5-6.2,14.3-23.7,18.6-40.5-4.7,12.3-10.8,23.2-14.5,27.9-7.2-52.1-33.2-41.5-41.7-57.1-7.1-13.1,15.4-25.4-16-20.2-23.9,3.9-19.5-14-29.9-5.1-50.2,42.2-26.5-24-53.3,19.7-13.8,22.5-56,6.2-51.8,10.4,9.1,9.2,29.3,28.1,47.8,2.2Zm-118-29.5c-9.3,20.1-6.4,44.3,18.2,62.1a45.3,45.3,0,0,1,5.7-11.5c-21-14.2-27.2-33.1-23.9-50.6Z"/><path class="cls-8" d="M438.1,1024.5c12.3-1.5,21.1-12.3,19.7-24.2s-12.6-20.1-25-18.6-21.1,12.3-19.7,24.1,12.6,20.2,25,18.7Z"/><path class="cls-24" d="M430.9,1527.8c-11.7,35.6,18.7,57.4,14.6,75.6-3.1,13.9-35.6,8.6-55.7-16.9-8.6-11-5.6-19.1-27.6-45.2-19.7-23.3,42.3-41.4,42.7-41.2,3.1,1.4,8.7,49.9,26,27.7Z"/><path class="cls-38" d="M442.2,1586.4c2.8,6.2,4.5,11.7,3.3,17-3.1,13.9-35.6,8.6-55.7-16.9-8.6-11-5.6-19.1-27.6-45.2-7.5-8.9-3.5-16,2.7-21.6,7.9,2.8,13.3,7.4,14,14.4,3.6,33.7,25.3,44.3,50.6,62.1,7,4.9-3.9-16.9,12.7-9.8Z"/><path class="cls-24" d="M762.2,1416.6c37.1-5.8,42.7-42.8,60.7-47.5,13.8-3.5,23.9,27.8,10.3,57.3-5.8,12.6-14.5,13.7-27.7,45.2-9.4,22.5-34.8-1.2-40.3-4.7,0,0-15.6-12.3-15.8-14.5s-.9-27.4,12.8-35.8Z"/><path class="cls-38" d="M812.8,1375.7c3.1-3.2,6.3-5.6,10.1-6.6,13.8-3.5,23.9,27.8,10.3,57.3-5.8,12.6-14.5,13.7-27.7,45.2-6.3,15.2-20,9.4-29.9,2.9-6.6-12.2,18.3-39.2,22.4-53.9,9.9-35.6,38.5-48.5,14.8-44.9Z"/><path class="cls-39" d="M834.1,1374.9c6.6,10.1,8.4,31.3-.9,51.5-5.8,12.6-14.5,13.7-27.7,45.2-3.3,8.1-8.8,10.2-14.7,9.5l-2.8-1.8c-6.6-12.1,18.3-39.1,22.4-53.8s18.8-44.7,23.7-50.6Z"/><path class="cls-8" d="M1790.9,1000.2c9.8-2.1,16-12.5,13.8-23.2s-11.9-17.5-21.7-15.3-16,12.5-13.8,23.2,11.9,17.5,21.7,15.3Z"/><path class="cls-16" d="M1778.3,985.9c31.9-75.2-31.5-93.2-81.4-93.2h-4.6c42.1,9.6,75.3,44.3,86,93.1Z"/><path class="cls-8" d="M1815.3,1088.9l-18.7-34,118.5-66.6c-7.2-16.4,16.5-48.3,16.3-26.8-.1,19.8-3.3,9.7,26.9-1.7.3-.1,13.7,3.5-7.8,13.5-23.4,10.9,26-10.1,19.9,6.7-.1,0-21.7,6.5-24,7s1.5,1.6,6.3,1.1c1.6,2,20.4-4.7,16.3,6.8-1,2.6-34.4-.7-8.6,6.4,1,.2,9,7.8-6.5,7.1-2.8-.1-33.5,4.9-34.3,5.4l-73.8,58.3-30.5,16.8Z"/><polygon class="cls-8" points="1801.1 1313.7 1674.4 1296.4 1671.9 1268.2 1794.5 1256.3 1801.1 1313.7 1801.1 1313.7"/><polygon class="cls-8" points="1537.9 1428.5 1520.6 1399.4 1494.3 1414.9 1502.4 1445.2 1537.9 1428.5 1537.9 1428.5"/><path class="cls-9" d="M1476.5,1460.7l27.1-9.9-6.6-29.6,6.8-13.5c-24.2-18.7-38-25.5-55.8-50.8l-8.3-12.7-7.5-6.6,6.9,29.4,12.8,41,24.6,52.7Z"/><path class="cls-10" d="M1456.4,1417.6l20.1,43.1-20.7,7.7c-19.1-53.8-24.3-78.1-35.8-132.5,20.2-1.1,20.6-4.4,28,21l-8.9,10.1,17.3,50.6Z"/><polygon class="cls-8" points="1908.9 1460.3 1931.6 1435.1 1954.4 1455.4 1940.5 1483.6 1908.9 1460.3 1908.9 1460.3"/><path class="cls-9" d="M1963,1503.8l-24.8-14.9,12.3-27.8-4.1-14.6c27.4-13.6,42.3-17.6,64.7-39l10.5-10.8,8.7-5-12.5,27.4-20.5,37.8-34.3,46.9Z"/><path class="cls-10" d="M1991.1,1465.4l-28.1,38.4,18.7,11.6c29.2-49.1,39.1-71.9,60.9-123.1-19.6-5-19.3-8.2-31.5,15.2l6.7,11.6-26.7,46.3Z"/><path class="cls-13" d="M1688.4,1080.4l44.4-8.3,70.9-24.7,16.5,42.2-44.3,23.5c19.4,54.6,30.2,119.6,30.5,165-38.1-16.8-83.7-17.1-146.8,6.4.8-71-2.8-97.4-4.2-148l-63.9-4.1,3.3-48.8,93.6-3.2Z"/><path class="cls-40" d="M1788.1,1153c3.5,13.3,6.6,26.9,9.1,40.2a215.8,215.8,0,0,0-47.4-5.2,208.8,208.8,0,0,0-91.2,20.5c-.6-13.8-1.3-26.4-1.9-39.7a208.2,208.2,0,0,1,89.7-19.9,211.4,211.4,0,0,1,41.7,4.1Z"/><path class="cls-8" d="M1703,1080.9l-1.7-14.8,23.1-9.4,5.9,16.4c7.7.4,13.5,3.3,14.8,8.1,1.9,7.2-7.6,16.1-21.3,19.7s-26.4.7-28.3-6.5c-1.2-4.4,1.9-9.4,7.5-13.5Z"/><path class="cls-15" d="M1731.6,1082.2a114.5,114.5,0,0,1-27.5-.9l-.4-3.5,23-9.3,4.9,13.7Z"/><path class="cls-8" d="M1643.6,888c57.7-15.4,116,15.3,130.2,68.4,5.2,19.7,9.2,44.6,2.2,62.8-11.9,30.9-20.8,46.5-56.7,57.9-74.7,23.6-131.4-17-145.5-70.2s12-103.5,69.8-118.9Z"/><path class="cls-15" d="M1701.5,974l.2,2.9c.6,9.8,1.4,21.9,10.3,23.3l1.6.2c6.7,1,14.7,2.1,16.1,11.6a7.4,7.4,0,0,1-1.1,5.5c-1.6,2.7-4.8,4.6-7.9,5.9a30,30,0,0,1-7.9,2.2,4.6,4.6,0,0,1-2.1,0l1.2-2c.1.1,0-.2.6-.3a34.1,34.1,0,0,0,7.3-2c2.8-1.2,5.5-2.8,6.8-5a5.7,5.7,0,0,0,.9-3.9c-1.3-7.9-8.3-8.8-14.2-9.7l-1.7-.2c-10.8-1.6-11.6-14.8-12.2-25.4l-.2-2.9,2.3-.2Z"/><path class="cls-16" d="M1682.1,905.3c25.3-3.5,103.4,7.8,113.3,42,2.7-45-32.3-84-120.3-85.1-5.4,0-10.6.1-15.6.5a22.9,22.9,0,0,0,2.7-2.7c6.6-7.1,5.8-11.1,9.1-20,.2-.3,2.3-7.2,1.3-6.3-5.4,5-12.1,7.5-15.5,15.4-2.1,4.9-1.2,6.5-4.9,11.6-.1,0-.6-6.6-2-9.7s-3.2-7.4-6.9-10.6c-.7-.5.1,11.7.8,14.3a45.4,45.4,0,0,1,1.2,6.4c.4-2-10.5-8.8-12.2-9.7-4.8-2.7-6.1-2.7-11-4-.9-.3,9.2,10.5,11.3,13s3.7,3.3,6.8,4.8h-.5c-2.4-.4-10.9-1.8-14-3s-6.2-1.6-9.6-3.5-1.3.6,0,2.8a19.5,19.5,0,0,0,7.8,7.8c-112.8,37-68.2,206.4-5.3,200.4-10.5-1.7-11.1-56.5,6-69.3,70.7-52.8,56.6-95.1,57.5-95.2Z"/><path class="cls-20" d="M1654.3,863.1l-2.4.3c26.6,35-1.3,66.3-28.8,97.1-12,13.5-24,26.9-31.4,40.5-11.9,22-11.9,44.4,18.4,68.5l2.6.4c-31.3-24.1-31.6-46.4-19.8-68.1,7.3-13.5,19.2-26.8,31.2-40.3,26.6-29.7,53.6-60,32.4-93.9,28.7,34.1,3.8,66.1-20.9,98-9.2,11.9-18.4,23.7-24.9,35.6-10.7,19.8-14,39.8,2.4,60.4a32,32,0,0,1-.7-3.3c-13.8-19.2-10.5-37.9-.5-56.3,6.4-11.8,15.6-23.6,24.7-35.4,26.1-33.5,52.2-67.2,17.7-103.5Zm-8.4,1.1-1.5.2c23.9,34.2-6.6,62.5-36.5,90.3-15.1,14-30,27.9-37.9,42.4-4.8,8.9-6.9,18-4.8,27.5a104.3,104.3,0,0,0,10.5,19.6c5.7,6.7,13.8,13.6,24.7,20.8l.7-1.3c-37.4-24.4-40.8-45.7-29.9-65.8,7.8-14.3,22.6-28.1,37.6-42.1,30.2-28,61.1-56.7,37.1-91.6Z"/><polygon class="cls-16" points="1638.3 998.2 1634.6 992.1 1659.2 970.6 1661.2 981.2 1638.3 998.2 1638.3 998.2"/><polygon class="cls-16" points="1717.8 953.5 1715.7 944.7 1740.7 940 1743.5 948.2 1717.8 953.5 1717.8 953.5"/><path class="cls-16" d="M1671.6,1014.9c4.3-1.2,6.7-6.1,5.4-10.9s-5.8-7.9-10.1-6.7-6.8,6-5.5,10.8,5.9,7.9,10.2,6.8Z"/><path class="cls-16" d="M1735.8,986.2c4.3-1.1,6.7-6,5.4-10.8s-5.8-7.9-10.1-6.8-6.8,6-5.5,10.9,5.9,7.9,10.2,6.7Z"/><path class="cls-17" d="M1696.8,1035.3l43.3.8c-6.7,38.9-43.5,29.2-43.3-.8Z"/><path class="cls-18" d="M1730,1057c-8.2,7.2-19.1,5.7-26.1-1.9,7.8-6.4,18.8-6.6,26.1,1.9Z"/><path class="cls-19" d="M1699.9,1035.4l35.5.6c-9.5,17-28.1,14-35.5-.6Z"/><path class="cls-24" d="M1667.4,1287.6l-5.8,24.4c-71.8,28-87.9,41.9-151.6,85.2l16.2,47.2,129.2-48.5c56.2-17.9,99.5-19.4,153,7.6l107.1,60.5,23.8-37.1c-56.7-54.5-60.3-64-130.9-98.7l-9.4-45.9c-62.7-15.8-99.7,1.3-131.6,5.3Z"/><path class="cls-41" d="M1738.6,1383.1c22.6,1.6,45.1,7.9,69.8,20.4l107.1,60.5,23.8-37.1c-56.7-54.5-60.3-64-130.8-98.7-31.4,13.9-55.9,32.9-69.9,54.9Z"/><path class="cls-12" d="M1619.9,1329.5c-25.8,11.9-43.6,22.7-66.2,37.8,7.1,8.1,24.6,9.2,42,1.8,19.7-8.3,31.8-24.1,27.1-35.3a13.6,13.6,0,0,0-2.9-4.3Z"/><path class="cls-12" d="M1900,1388.7c-17.9-17-31.3-28-55.2-41.5-7.4,1.1-13,4.5-15.3,9.8-4.7,11.2,7.5,27,27.1,35.3s37.5,6.1,43.4-3.6Z"/><path class="cls-8" d="M1591.8,1128.4l2.6-38.7-135.5-10.3c-.2-9.7-9.5-17-16.6-20.9s-10.2-5.1-5.9,3.9c2.8,5.9,5.5,8.1,5.4,9.2s-12.6-1.4-34.2.2c-.2,0-10.9,9,12.9,9,25.8,0-27.9,1.8-15.2,14.4,0,0,22.4-3.2,24.7-3.7s-.7,2-5.3,3.6c-.6,2.5-20.5,4.4-11.9,13,1.7,1.7,24.7-10,19.5-3.8-1,1.2-5.7,3.2-9.1,6-.7.6-6.7,7,9,3.7,1.7-.3,10.6-1.7,19.8-4.2,5.9-1.7,13.2-5.4,13.6-5.4l91.5,21.7,34.7,2.3Z"/><path class="cls-8" d="M1615.2,1082.6c12-3.2,19.3-15.1,16.2-26.6s-15.2-18.2-27.3-15-19.2,15.1-16.2,26.6,15.3,18.2,27.3,15Z"/><path class="cls-7" d="M1815.9,731.4a124.9,124.9,0,0,0,68.1-20.1l-127.8,5a125,125,0,0,0,59.7,15.1Zm-61.7,31.8-18-39.6,72.3,21.6-54.3,18Zm-69.5-77.8-3.5-57.7,22.3,72.3-18.8-14.6Zm-6.2-137.7,25.7-17.4-27.8,56.3,2.1-38.9Zm72.3-73,63.2-6.3-95.2,32.7,32-26.4Zm132.8,270.5,18.7-27.8-47.9,27.8Zm79.9-47.3-16-49.4-20.1,58.4,36.1-9Zm-11.8-146.7-23.6-28.5,27.8,83.4-4.2-54.9Zm-84.8-89-10.4,12.5,29.1,11.1-18.7-23.6Zm19.4,247.6a125.4,125.4,0,0,0,28.2-26.2L1896,685l-144.8,28.5,2.6,1.5,132.5-5.2Zm29.3-27.8h-4.7l-3.1.6,7.8-.6Zm2.1-2.8a50.9,50.9,0,0,0,3.1-4.5l-56.9,6.4,46.8-.5,7-1.4Zm4.1-6a121,121,0,0,0,8.2-15l-214.9,22.5,1.4,1.8,133.3-1.3,72-8Zm8.9-16.5.5-1.1-229.8,1.7a121.2,121.2,0,0,0,12.8,22.1l216.5-22.7Zm1.1-2.6a122.6,122.6,0,0,0,6.1-18.9l-238.3,18,1.2,2.7,231-1.8Zm6.5-20.4.4-1.7-245,2.6a127.1,127.1,0,0,0,5.4,17.2l239.2-18.1Zm.6-3.2a123.4,123.4,0,0,0,2.5-24.5c0-4.5-.3-9-.7-13.4L1757.6,613l-64.7,17.9c.2.8.3,1.5.5,2.2l245.5-2.6Zm1.6-39.3c-.1-.6-.1-1.2-.2-1.8l-98.3.3-75.7,20.9,174.2-19.4Zm-.4-3.2a125.5,125.5,0,0,0-5.9-23.8l-87,24,92.9-.2Zm-6.9-26.5-.5-1.4-240.8,26.4-.3,2.2,119.5-.4,122.1-26.8Zm-1.1-2.8a118.8,118.8,0,0,0-7.9-16l-231.8,41.4-.2.9,239.9-26.3Zm-8.6-17.4c-2.1-3.3-4.3-6.6-6.6-9.8l-93.3-6.2-125.9,38.6a120.2,120.2,0,0,0-5.1,18.7l230.9-41.3Zm-7.8-11.3a121.4,121.4,0,0,0-25.5-25.1l-62.8,19.2,88.3,5.9Zm-26.9-26.2c-3.6-2.5-7.3-4.9-11.1-7.1l-11.1,1-65.4,24.7,22.2,1.5,65.4-20.1Zm-13.4-8.3-1.2-.7-2.7,1,3.9-.3Zm-2.9-1.5-5.4-2.6-25.3,7.1,24.5-2.2,6.2-2.3Zm-7.5-3.5a125.3,125.3,0,0,0-126.9,17.1l96-8.5,30.9-8.6Zm-128.9,18.7a119.4,119.4,0,0,0-9.1,8.3l33.6,2.2,66-18.5-90.5,8Zm-10.4,9.6a131.5,131.5,0,0,0-11.7,14l42.5-11.9-30.8-2.1Zm-13,15.8a127.8,127.8,0,0,0-13.3,24.7l95.2-35.9-33.8-2.3-48.1,13.5Zm-14,26.5-.4,1.2L1819.6,525l-21.6-1.4-99.3,37.5Zm-7.3,29a138.5,138.5,0,0,0-1,15.9c0,2.9.2,5.9.4,8.8l113.7-25-113.1.3Zm-.5,26.1a24.6,24.6,0,0,0,.2,2.8l66.3-7.4,79.2-21.9h-25.4l-120.3,26.4Zm.4,4.2a90.7,90.7,0,0,0,1.4,9.1l56-15.5-57.4,6.4Zm26.3,63.5a129,129,0,0,0,9.2,10.4c36.3-4.2,73.3-7.6,109-11.5l-118.2,1.1Zm11.1,12.2h0l167.1-12.7,7.3-1.4-53.2.5-121.2,13.5Zm1.4,1.4a120.5,120.5,0,0,0,19.3,14.8L1884,685.9l-153.9,11.6Zm104.2-197L1764.9,520l32.9,2.2,63.5-24-27,2.3Zm-16.5,87.8h24l91.9-25.5-115.9,25.5Z"/></svg>