<svg xmlns="http://www.w3.org/2000/svg" width="882px" height="560px" viewBox="0 0 8820 5600" preserveAspectRatio="xMidYMid meet"><g fill="#53954d"><path d="M3135 4334 c-105 -39 -168 -173 -135 -293 16 -61 87 -135 145 -151 65 -18 174 -8 219 19 l36 23 0 -57 c0 -31 -5 -65 -10 -76 -29 -54 -147 -65 -265 -25 -38 14 -71 23 -73 21 -2 -1 4 -25 13 -53 l17 -50 61 -11 c129 -22 145 -23 201 -11 61 13 107 44 134 94 15 27 17 69 20 297 l3 267 -35 6 c-45 9 -55 3 -48 -29 4 -25 -11 -35 -24 -14 -3 6 -30 22 -58 35 -59 28 -138 31 -201 8z"/><path d="M4101 2686 c-189 -189 -342 -349 -340 -355 2 -6 130 -137 283 -291 l280 -279 -37 -36 -36 -35 -273 272 c-150 150 -280 278 -289 285 -13 10 -69 -42 -362 -335 l-348 -348 346 -344 c190 -190 349 -346 353 -348 5 -1 27 17 49 40 23 24 149 151 282 283 l241 239 35 -34 c19 -19 35 -39 35 -44 0 -6 -127 -138 -282 -293 l-282 -282 341 -340 c188 -188 345 -341 351 -341 8 0 396 383 641 633 l54 55 -254 254 c-139 139 -266 268 -282 286 l-30 33 33 35 c19 18 39 34 44 34 6 0 135 -125 288 -278 153 -152 283 -277 289 -277 10 0 689 674 689 684 0 3 -154 163 -343 354 l-343 349 -288 -287 -289 -287 -39 39 -39 39 281 281 c154 154 280 283 280 286 0 6 -652 660 -681 684 -13 10 -72 -45 -358 -331z"/></g><g fill="#da483d"><path d="M4101 2686 c-189 -189 -342 -349 -340 -355 2 -6 130 -137 284 -291 158 -159 276 -284 270 -288 -5 -4 -20 -19 -33 -33 l-23 -26 52 -54 c29 -30 59 -53 66 -51 8 2 10 -3 7 -13 -8 -20 65 -86 86 -79 8 3 -16 -27 -55 -65 -38 -39 -76 -71 -84 -71 -8 0 -12 -2 -9 -5 3 -3 -123 -133 -280 -290 l-284 -284 132 -133 c73 -73 136 -132 141 -130 5 1 8 -2 7 -7 -4 -11 397 -411 410 -411 8 0 400 387 641 633 l54 55 -254 254 c-139 139 -266 268 -282 286 l-30 33 33 35 c19 18 39 34 44 34 6 0 135 -125 288 -278 153 -152 283 -277 289 -277 10 0 689 674 689 684 0 3 -154 163 -343 354 l-343 349 -288 -287 -289 -287 -39 39 -39 39 281 281 c154 154 280 283 280 286 0 6 -652 660 -681 684 -13 10 -72 -45 -358 -331z"/></g><g fill="#f49e2d"><path d="M4101 2686 c-189 -189 -342 -349 -340 -355 2 -6 130 -137 284 -291 158 -159 276 -284 270 -288 -5 -4 -20 -19 -33 -33 l-23 -26 52 -54 c29 -30 59 -53 66 -51 8 2 10 -3 7 -13 -8 -20 65 -86 86 -79 8 3 -16 -27 -55 -65 -38 -39 -76 -71 -84 -71 -8 0 -12 -2 -9 -5 3 -3 -123 -133 -280 -290 l-284 -284 132 -133 c73 -73 136 -132 141 -130 5 1 8 -2 7 -7 -4 -11 397 -411 410 -411 8 0 400 387 641 633 l53 55 -281 283 c-154 155 -281 285 -281 289 0 4 18 24 39 43 l39 35 -61 60 c-105 102 -142 142 -129 142 7 0 182 -168 388 -373 l375 -373 335 335 336 334 -336 336 -336 335 -275 -276 c-151 -152 -275 -280 -275 -284 0 -10 92 80 359 348 l186 188 330 -325 329 -325 -327 -327 -327 -327 -375 376 c-359 359 -398 405 -349 405 8 0 172 -159 364 -354 192 -194 353 -353 357 -353 5 0 139 130 298 290 l290 290 -100 100 c-323 325 -476 475 -485 475 -8 0 -151 -139 -415 -405 -55 -55 -95 -100 -89 -100 11 0 450 436 478 475 13 18 26 8 232 -192 121 -116 250 -243 288 -282 l69 -71 -95 -97 c-78 -80 -449 -450 -462 -461 -2 -2 -162 155 -356 348 -328 328 -373 380 -329 380 6 0 160 -148 341 -330 182 -181 335 -330 340 -330 5 0 119 109 253 243 l245 244 -252 251 -252 251 -223 -222 c-123 -122 -228 -230 -234 -239 -25 -45 32 8 230 212 118 121 219 220 225 220 6 0 117 -106 246 -235 l235 -235 -238 -238 -237 -237 -329 329 c-256 256 -328 333 -321 345 4 9 132 140 284 292 152 152 276 279 276 282 0 6 -652 660 -681 684 -13 10 -72 -45 -358 -331z"/><path d="M5014 1796 c-110 -112 -206 -211 -213 -220 -13 -16 7 -39 208 -240 l222 -222 217 219 c119 120 219 220 222 223 6 7 -433 444 -446 444 -7 0 -101 -92 -210 -204z m239 14 l37 0 0 -250 c0 -282 9 -256 -84 -244 l-46 7 0 242 c0 133 3 245 7 249 4 4 17 5 28 2 11 -3 37 -6 58 -6z"/></g><g fill="#ffffff"><path d="M4200 5067 l0 -245 25 -4 c22 -5 25 -2 25 26 l0 31 25 -27 c47 -50 135 -61 205 -25 116 58 141 216 49 308 -65 65 -167 76 -236 23 l-32 -24 -3 87 c-3 88 -3 88 -30 91 l-28 3 0 -244z"/><path d="M595 5172 c-78 -36 -123 -117 -111 -198 8 -62 30 -100 78 -134 35 -26 50 -30 105 -30 122 0 193 70 193 190 0 138 -141 230 -265 172z"/><path d="M2261 5177 c-18 -6 -49 -26 -67 -45 -89 -92 -64 -249 48 -308 42 -22 144 -18 184 7 36 22 60 56 49 67 -4 4 -61 41 -128 82 -67 42 -123 83 -125 93 -3 17 44 52 84 63 31 8 99 -13 132 -41 33 -28 42 -24 42 17 0 25 -7 32 -52 53 -56 26 -110 30 -167 12z"/><path d="M2893 5180 c-39 -12 -91 -63 -109 -107 -32 -76 -4 -179 64 -231 31 -23 45 -27 106 -27 58 0 77 4 104 23 l32 23 0 -94 c0 -85 2 -95 19 -100 11 -3 22 -2 25 1 3 3 6 119 6 259 0 246 -1 253 -20 253 -15 0 -20 -7 -20 -25 l0 -25 -38 25 c-44 29 -119 40 -169 25z"/><path d="M4830 5004 c0 -105 4 -184 9 -184 5 0 16 -3 25 -6 14 -5 16 14 16 179 l0 185 -25 4 -25 5 0 -183z"/><path d="M5370 5177 c-72 -25 -103 -125 -60 -195 34 -55 116 -78 170 -47 14 8 28 14 32 15 12 0 2 -58 -12 -75 -15 -18 -92 -20 -139 -4 -39 14 -45 9 -30 -24 14 -30 34 -37 117 -37 57 0 67 3 93 29 l29 29 0 156 0 156 -25 0 c-15 0 -25 -6 -25 -14 0 -11 -8 -10 -37 5 -42 22 -64 23 -113 6z"/><path d="M7547 5175 c-77 -27 -117 -88 -117 -180 0 -31 6 -68 14 -83 52 -100 188 -135 278 -71 l28 20 0 -95 c0 -96 0 -96 25 -96 l25 0 -2 253 -3 252 -22 3 c-19 3 -23 -1 -23 -24 0 -26 -1 -26 -19 -10 -24 22 -87 45 -121 45 -14 0 -42 -6 -63 -14z"/><path d="M8157 5180 c-101 -32 -156 -145 -121 -247 30 -87 87 -127 176 -125 32 1 69 7 81 13 35 18 67 51 67 68 0 10 -45 42 -109 80 -153 90 -156 93 -140 119 8 12 33 30 57 39 51 19 102 8 150 -32 39 -32 42 -32 42 9 0 28 -6 38 -35 56 -39 24 -124 34 -168 20z"/><path d="M1625 4322 c-77 -37 -157 -122 -180 -192 -24 -73 -18 -209 13 -271 33 -67 102 -135 169 -167 49 -23 71 -27 143 -27 71 0 94 4 141 26 79 37 133 90 171 166 29 59 32 75 32 152 0 105 -28 176 -97 245 -72 72 -116 89 -232 94 -94 3 -104 1 -160 -26z"/><path d="M2490 4336 c-30 -7 -72 -20 -92 -30 -57 -28 -132 -113 -157 -179 -20 -56 -21 -71 -19 -380 l3 -321 43 -12 c32 -10 42 -10 42 -1 1 7 0 90 0 185 0 94 1 172 4 172 3 0 18 -12 33 -26 15 -14 51 -38 78 -52 41 -22 63 -27 125 -26 41 0 93 6 115 13 95 31 178 112 217 213 16 42 19 70 16 133 -5 98 -32 160 -97 225 -53 52 -98 76 -172 90 -62 12 -68 12 -139 -4z"/><path d="M3135 4334 c-105 -39 -168 -173 -135 -293 16 -61 87 -135 145 -151 65 -18 174 -8 219 19 l36 23 0 -57 c0 -31 -5 -65 -10 -76 -29 -53 -147 -65 -263 -25 -37 12 -70 20 -72 16 -2 -3 3 -27 12 -52 l15 -46 61 -11 c129 -22 145 -23 201 -11 61 13 107 44 134 94 15 27 17 69 20 297 l3 267 -35 6 c-45 9 -55 3 -48 -29 4 -25 -11 -35 -24 -14 -3 6 -30 22 -58 35 -59 28 -138 31 -201 8z"/><path d="M5909 4327 c-77 -40 -83 -64 -87 -329 l-3 -228 -46 0 -45 0 6 -31 c3 -17 6 -35 6 -40 0 -5 18 -9 40 -9 l40 0 0 -77 0 -78 38 -25 c20 -14 40 -26 45 -28 4 -2 7 44 7 102 l0 106 95 0 95 0 0 40 0 40 -95 0 -95 0 0 210 c0 135 4 218 11 234 16 34 82 60 129 50 54 -12 54 -12 57 32 3 49 -6 54 -98 54 -39 0 -69 -7 -100 -23z"/><path d="M8299 4341 c-79 -25 -160 -95 -199 -174 -97 -198 1 -433 204 -492 100 -29 225 -6 303 55 26 21 78 89 71 94 -7 6 -182 115 -331 206 -86 52 -156 100 -157 107 0 20 50 72 98 100 88 52 205 33 323 -52 27 -19 50 -35 52 -35 1 0 1 26 1 57 -2 53 -4 59 -35 80 -63 44 -133 63 -222 62 -45 0 -94 -4 -108 -8z"/><path d="M6261 3520 l-32 -40 36 -38 36 -37 35 38 35 38 -31 39 c-18 22 -35 40 -39 40 -4 0 -22 -18 -40 -40z"/><path d="M4101 2686 c-189 -189 -342 -349 -340 -355 2 -6 130 -137 284 -291 158 -159 276 -284 270 -288 -5 -4 -20 -19 -33 -33 l-23 -26 52 -54 c29 -30 58 -53 65 -51 7 1 10 -5 8 -15 -3 -12 10 -29 36 -52 l41 -33 36 37 c20 20 32 40 27 44 -5 3 -22 21 -38 39 -33 36 -18 44 18 10 48 -48 59 -51 19 -5 -40 47 -47 77 -17 73 13 -2 306 -287 496 -482 42 -43 110 -113 152 -154 l76 -74 40 39 c22 21 40 43 40 49 0 5 -15 -7 -33 -27 -18 -20 -37 -37 -42 -37 -17 0 -705 695 -703 709 2 8 9 16 16 19 8 2 157 -139 342 -324 180 -181 333 -330 338 -332 8 -2 407 388 476 467 l20 22 -244 244 c-135 135 -248 245 -252 245 -9 0 -468 -454 -468 -463 0 -18 45 23 244 229 l220 225 238 -238 c131 -131 237 -241 235 -246 -5 -15 -461 -467 -469 -465 -4 2 -154 149 -332 327 -256 255 -323 327 -317 340 5 9 133 140 285 292 152 152 276 279 276 282 0 6 -652 660 -681 684 -13 10 -72 -45 -358 -331z"/><path d="M3341 1896 l-333 -333 332 -332 c183 -182 335 -331 339 -331 12 0 555 549 549 556 -4 3 -46 -34 -95 -83 -48 -49 -169 -171 -267 -271 -99 -100 -185 -182 -191 -182 -11 0 -645 631 -645 642 0 9 628 637 640 641 5 1 178 -167 384 -372 207 -206 378 -372 382 -368 5 5 -748 767 -759 767 -1 0 -152 -150 -336 -334z"/><path d="M4960 1963 c-146 -147 -269 -274 -274 -283 -4 -8 115 108 266 258 l274 273 329 -326 330 -325 -328 -327 -327 -327 -305 304 c-169 168 -309 307 -313 310 -4 2 134 -137 306 -311 l312 -315 335 335 335 335 -333 333 c-182 183 -334 332 -337 332 -3 0 -124 -120 -270 -266z"/><path d="M3382 1857 l-294 -294 293 -292 292 -293 258 258 c142 142 256 260 253 263 -3 3 -116 -106 -252 -242 -136 -136 -252 -247 -257 -247 -6 0 -135 125 -287 277 l-277 278 282 283 282 282 357 -357 c196 -196 359 -355 362 -352 3 3 -158 168 -357 367 l-362 362 -293 -293z"/><path d="M5199 2113 c-21 -25 -22 -26 -2 -9 28 23 -20 65 426 -373 92 -90 167 -168 167 -173 0 -6 -11 -19 -25 -30 -14 -11 -30 -29 -36 -41 -7 -14 4 -7 30 18 22 21 41 46 41 55 0 9 -46 62 -102 117 -57 56 -184 183 -283 282 -98 100 -182 181 -185 181 -4 0 -17 -12 -31 -27z"/><path d="M4935 1850 c-121 -121 -215 -220 -210 -220 6 0 109 99 230 220 121 121 215 220 210 220 -6 0 -109 -99 -230 -220z"/><path d="M3426 1811 l-249 -249 250 -250 251 -249 238 238 c131 132 234 239 228 239 -6 0 -113 -103 -238 -228 l-228 -229 -232 234 c-127 129 -233 239 -235 245 -2 6 102 116 230 244 l234 234 337 -337 c186 -186 338 -333 338 -328 0 6 -152 162 -338 348 l-337 337 -249 -249z"/><path d="M3448 1789 l-220 -222 226 -226 227 -226 220 224 220 224 -223 223 c-123 123 -224 224 -226 224 -2 0 -102 -100 -224 -221z m382 -2 l65 -22 3 -132 3 -133 -109 0 -109 0 -17 43 c-24 63 -22 66 42 69 56 3 57 4 57 33 0 26 -5 30 -37 38 -76 18 -158 -48 -158 -128 0 -108 100 -165 203 -115 l42 20 32 -37 c18 -21 32 -43 33 -49 1 -35 -97 -75 -186 -77 -162 -2 -284 143 -254 303 13 68 32 101 82 144 78 67 191 83 308 43z"/><path d="M5001 1783 c-116 -119 -211 -219 -211 -222 0 -3 99 -105 219 -225 l219 -219 23 19 c13 11 114 110 224 222 l200 202 -220 220 c-121 121 -225 220 -231 220 -7 0 -107 -97 -223 -217z m267 27 l22 0 0 -250 0 -250 -27 0 c-16 0 -45 3 -65 6 l-38 7 0 242 c0 133 3 245 8 249 4 4 23 5 42 2 19 -3 45 -6 58 -6z"/><path d="M4440 1447 c-47 -46 -99 -99 -117 -118 -17 -19 -74 -77 -127 -129 -53 -52 -96 -99 -96 -104 0 -5 51 41 113 104 61 62 161 162 222 221 60 60 105 109 100 109 -6 0 -48 -38 -95 -83z"/><path d="M5678 1439 c-10 -5 -23 -20 -29 -32 -10 -18 -6 -17 20 7 39 37 42 45 9 25z"/><path d="M5595 1353 c-44 -49 -44 -53 0 -11 21 21 37 39 35 41 -3 2 -18 -12 -35 -30z"/><path d="M5519 1281 c-14 -15 -30 -33 -34 -41 -4 -8 10 2 31 22 21 21 36 39 34 41 -3 2 -17 -8 -31 -22z"/><path d="M4303 1128 c-73 -73 -136 -137 -140 -143 -4 -5 57 53 135 130 132 130 147 145 139 145 -1 0 -62 -60 -134 -132z"/><path d="M4499 1214 c38 -43 71 -70 71 -57 0 9 -67 74 -92 89 -7 4 2 -10 21 -32z"/><path d="M5430 1194 c-19 -18 -32 -35 -29 -38 3 -3 21 10 39 29 44 45 36 53 -10 9z"/><path d="M4230 1005 c-118 -118 -216 -218 -218 -223 -4 -13 416 -427 436 -430 11 -1 96 78 235 217 l218 218 -144 144 c-189 189 -295 289 -304 289 -5 0 -105 -97 -223 -215z m279 21 c8 -9 11 -85 9 -252 l-3 -239 -51 0 c-86 1 -84 -6 -84 260 0 127 3 235 7 238 12 13 110 7 122 -7z"/><path d="M5359 1121 c-14 -15 -30 -33 -34 -41 -4 -8 10 2 31 22 21 21 36 39 34 41 -3 2 -17 -8 -31 -22z"/><path d="M4628 1087 c29 -28 56 -56 60 -62 4 -5 18 -16 32 -24 14 -7 -9 21 -50 63 -41 41 -79 76 -85 76 -5 0 14 -24 43 -53z"/><path d="M3934 940 c-82 -83 -150 -152 -152 -154 -1 -2 4 -9 13 -16 13 -11 15 -10 10 2 -4 9 41 62 127 149 73 74 139 142 147 152 34 43 -6 6 -145 -133z"/><path d="M3971 886 c-58 -59 -98 -107 -92 -111 6 -3 11 -1 11 5 0 7 43 55 96 106 53 52 94 97 92 99 -2 3 -50 -42 -107 -99z"/><path d="M4115 941 c-48 -45 -120 -121 -114 -121 2 0 38 34 79 75 73 73 95 103 35 46z"/><path d="M4800 920 c6 -11 16 -20 22 -20 6 0 3 9 -7 20 -10 11 -20 20 -22 20 -2 0 1 -9 7 -20z"/><path d="M4920 800 c12 -8 8 -17 -25 -52 l-40 -43 44 41 c40 39 47 64 18 64 -7 0 -6 -4 3 -10z"/><path d="M5011 791 c-1 -8 -11 -26 -23 -40 l-22 -26 28 26 c16 15 26 33 23 40 -4 11 -6 11 -6 0z"/><path d="M5100 791 c0 -7 -39 -52 -87 -100 -129 -129 -134 -142 -8 -21 60 58 111 106 114 108 3 1 -1 8 -7 14 -9 9 -12 9 -12 -1z"/><path d="M3980 766 c0 -10 60 -69 65 -64 2 2 -12 19 -31 37 -19 19 -34 31 -34 27z"/><path d="M4750 515 c-191 -192 -217 -219 -205 -212 15 8 421 417 414 417 -2 0 -97 -92 -209 -205z"/><path d="M4809 664 c-18 -19 -27 -32 -19 -29 14 6 66 65 58 65 -2 0 -20 -16 -39 -36z"/><path d="M4060 686 c0 -11 59 -71 64 -65 3 2 -11 20 -30 38 -19 19 -34 31 -34 27z"/><path d="M4729 583 l-34 -38 38 34 c20 19 37 36 37 38 0 8 -8 0 -41 -34z"/><path d="M4140 607 c0 -11 39 -52 44 -46 2 2 -7 15 -20 29 -13 13 -24 21 -24 17z"/><path d="M4221 523 c36 -41 110 -115 144 -143 17 -14 -13 19 -65 72 -91 93 -131 129 -79 71z"/><path d="M4649 503 c-22 -24 -26 -31 -11 -20 21 14 59 57 50 57 -2 0 -20 -16 -39 -37z"/><path d="M4800 482 c-25 -26 -56 -60 -70 -77 l-25 -30 30 25 c41 34 119 119 114 124 -2 3 -24 -17 -49 -42z"/><path d="M4569 423 l-34 -37 43 33 c23 18 42 35 42 37 0 13 -20 0 -51 -33z"/><path d="M4490 345 c-24 -25 -40 -33 -53 -29 -13 4 -17 2 -13 -5 12 -18 40 -13 60 12 10 12 26 30 34 40 27 31 7 18 -28 -18z"/><path d="M4640 317 c-30 -28 -64 -63 -75 -77 l-20 -24 30 24 c31 26 131 130 124 130 -2 0 -29 -24 -59 -53z"/><path d="M4497 175 c-15 -19 -34 -35 -42 -35 -8 0 -15 -4 -15 -10 0 -5 4 -10 8 -10 11 0 87 79 81 84 -3 3 -17 -10 -32 -29z"/></g><g fill="#1a99d3"><path d="M5956 5307 c-17 -13 -16 -18 28 -100 l47 -86 -42 -73 c-23 -40 -61 -107 -85 -148 l-43 -75 30 -9 c16 -5 31 -7 33 -5 4 6 98 178 116 212 7 15 16 27 19 27 3 0 32 -54 63 -120 31 -66 63 -120 70 -120 47 1 43 14 -80 264 -67 135 -126 246 -130 246 -5 0 -16 -6 -26 -13z"/><path d="M4200 5067 l0 -245 25 -4 c22 -5 25 -2 25 26 l0 31 25 -27 c47 -50 135 -61 205 -25 116 58 141 216 49 308 -65 65 -167 76 -236 23 l-32 -24 -3 87 c-3 88 -3 88 -30 91 l-28 3 0 -244z m260 49 c13 -6 35 -27 48 -46 19 -28 23 -44 19 -83 -5 -58 -30 -96 -81 -121 -49 -24 -96 -15 -146 30 -50 45 -59 86 -32 145 39 89 106 115 192 75z"/><path d="M7201 5189 c-18 -4 -48 -21 -65 -38 l-31 -31 -3 -149 -3 -148 25 -5 26 -5 0 128 c0 73 5 139 11 152 22 49 91 61 134 25 33 -29 44 -79 45 -199 0 -81 3 -98 17 -103 9 -4 20 -3 25 2 5 5 7 87 6 183 -3 172 -3 174 -25 177 -16 2 -23 -2 -23 -12 0 -20 -9 -20 -30 -1 -25 23 -70 33 -109 24z"/><path d="M595 5172 c-78 -36 -123 -117 -111 -198 8 -62 30 -100 78 -134 35 -26 50 -30 105 -30 122 0 193 70 193 190 0 138 -141 230 -265 172z m168 -82 c51 -49 59 -100 27 -159 -13 -23 -37 -47 -56 -56 -143 -68 -269 110 -155 219 57 55 125 54 184 -4z"/><path d="M1982 5175 c-44 -19 -52 -47 -52 -186 l0 -119 -26 0 c-21 0 -25 -4 -22 -22 2 -15 11 -24 26 -26 19 -3 22 -9 22 -47 0 -34 5 -47 19 -55 30 -15 31 -14 31 45 l0 55 50 0 c47 0 50 2 50 25 0 23 -3 25 -50 25 l-50 0 0 113 c0 135 8 152 69 151 36 -1 41 1 41 21 0 35 -51 45 -108 20z"/><path d="M2261 5177 c-18 -6 -49 -26 -67 -45 -89 -92 -64 -249 48 -308 42 -22 144 -18 184 7 36 22 60 56 49 67 -4 4 -61 41 -128 82 -67 42 -123 83 -125 93 -3 17 44 52 84 63 31 8 99 -13 132 -41 33 -28 42 -24 42 17 0 25 -7 32 -52 53 -56 26 -110 30 -167 12z m27 -223 c127 -77 122 -71 77 -90 -35 -14 -42 -14 -79 0 -46 18 -86 68 -86 109 0 15 3 27 6 27 3 0 40 -21 82 -46z"/><path d="M2893 5180 c-39 -12 -91 -63 -109 -107 -32 -76 -4 -179 64 -231 31 -23 45 -27 106 -27 58 0 77 4 104 23 l32 23 0 -94 c0 -85 2 -95 19 -100 11 -3 22 -2 25 1 3 3 6 119 6 259 0 246 -1 253 -20 253 -15 0 -20 -7 -20 -25 l0 -25 -38 25 c-44 29 -119 40 -169 25z m136 -69 c65 -46 85 -128 47 -186 -36 -55 -117 -81 -169 -54 -65 33 -91 80 -81 144 15 100 126 152 203 96z"/><path d="M3240 5007 l0 -185 25 -4 25 -5 0 183 c0 105 -4 184 -9 184 -5 0 -16 3 -25 6 -14 5 -16 -14 -16 -179z"/><path d="M3407 5168 c-39 -23 -44 -43 -16 -61 12 -7 24 -4 46 12 40 30 89 25 116 -11 19 -25 19 -29 4 -51 -10 -16 -35 -29 -76 -41 -79 -22 -105 -53 -98 -116 7 -64 40 -90 114 -90 34 0 66 7 84 17 32 19 33 21 20 42 -7 11 -16 11 -55 -2 -58 -20 -103 -8 -112 30 -9 34 13 54 89 78 54 18 64 25 81 59 17 36 18 43 5 79 -26 73 -124 100 -202 55z"/><path d="M3798 5180 c-156 -47 -173 -280 -26 -356 39 -20 125 -17 177 7 l45 20 -20 20 c-19 18 -22 19 -50 4 -39 -20 -99 -19 -135 2 -32 19 -69 86 -69 124 1 34 31 89 61 111 39 29 97 33 141 10 31 -16 39 -17 49 -6 38 46 -83 91 -173 64z"/><path d="M4830 5005 c0 -106 4 -185 9 -185 5 0 17 -3 25 -6 15 -6 16 12 14 176 -3 179 -3 183 -25 191 l-23 8 0 -184z"/><path d="M5370 5177 c-72 -25 -103 -125 -60 -195 34 -55 116 -78 170 -47 14 8 28 14 32 15 12 0 2 -58 -12 -75 -15 -18 -92 -20 -139 -4 -39 14 -45 9 -30 -24 14 -30 34 -37 117 -37 57 0 67 3 93 29 l29 29 0 156 0 156 -25 0 c-15 0 -25 -6 -25 -14 0 -11 -8 -10 -37 5 -42 22 -64 23 -113 6z m116 -61 c14 -10 26 -30 30 -53 6 -33 4 -40 -25 -65 -37 -33 -78 -36 -114 -8 -31 25 -41 63 -25 98 24 50 81 62 134 28z"/><path d="M6575 5182 c-36 -13 -81 -44 -94 -64 -11 -18 -10 -24 8 -42 l22 -21 25 32 c58 75 184 45 184 -44 0 -44 -34 -78 -91 -93 -97 -26 -122 -48 -144 -128 -10 -33 21 -108 53 -130 59 -42 168 -34 213 14 l23 24 -22 23 c-15 14 -25 18 -30 11 -15 -22 -58 -44 -88 -44 -49 0 -84 34 -84 80 0 46 29 74 94 91 91 24 136 73 136 148 0 56 -13 85 -53 115 -36 28 -113 42 -152 28z"/><path d="M6942 5175 c-44 -19 -52 -47 -52 -186 l0 -119 -25 0 c-14 0 -25 -4 -25 -9 0 -23 14 -41 31 -41 16 0 19 -7 19 -41 0 -28 6 -46 18 -55 28 -22 32 -17 32 40 l0 55 53 3 c44 3 52 6 52 23 0 17 -8 20 -53 23 l-54 3 4 120 c3 107 5 122 23 135 12 9 31 13 48 10 32 -6 47 15 27 39 -15 19 -55 19 -98 0z"/><path d="M7547 5175 c-77 -27 -117 -88 -117 -180 0 -31 6 -68 14 -83 52 -100 188 -135 278 -71 l28 20 0 -95 c0 -96 0 -96 25 -96 l25 0 -2 253 -3 252 -22 3 c-19 3 -23 -1 -23 -24 0 -26 -1 -26 -19 -10 -24 22 -87 45 -121 45 -14 0 -42 -6 -63 -14z m139 -66 c118 -72 63 -249 -77 -249 -102 0 -164 124 -106 211 44 66 114 81 183 38z"/><path d="M8157 5180 c-101 -32 -156 -145 -121 -247 30 -87 87 -127 176 -125 32 1 69 7 81 13 35 18 67 51 67 68 0 10 -45 42 -109 80 -153 90 -156 93 -140 119 8 12 33 30 57 39 51 19 102 8 150 -32 39 -32 42 -32 42 9 0 28 -6 38 -35 56 -39 24 -124 34 -168 20z m46 -244 c42 -27 77 -52 77 -57 0 -4 -16 -12 -35 -18 -76 -21 -152 31 -162 110 l-6 43 24 -15 c13 -8 59 -37 102 -63z"/><path d="M8459 5167 c-37 -25 -43 -44 -18 -60 13 -8 23 -5 44 11 51 41 125 18 125 -37 0 -36 -16 -49 -81 -66 -72 -19 -99 -47 -99 -103 0 -35 6 -49 29 -73 38 -38 119 -43 174 -11 31 19 33 25 12 42 -12 10 -23 9 -55 -4 -36 -14 -44 -14 -76 -1 -31 13 -35 18 -32 47 3 29 8 34 48 47 90 27 111 40 126 77 34 81 -21 154 -116 154 -32 0 -58 -7 -81 -23z"/><path d="M280 5025 l0 -155 -25 0 c-20 0 -25 -5 -25 -25 0 -20 5 -25 25 -25 21 0 25 -5 25 -31 0 -71 58 -129 129 -129 23 0 30 5 33 25 4 21 1 25 -18 25 -46 0 -72 18 -83 57 -15 54 -16 53 44 53 52 0 55 1 55 25 0 24 -3 25 -55 25 l-55 0 0 155 0 155 -25 0 -25 0 0 -155z"/><path d="M940 5001 c0 -103 4 -181 9 -181 5 0 17 -3 27 -7 14 -5 16 -1 12 25 -2 18 -1 32 4 32 4 0 8 -4 8 -10 0 -24 123 -71 134 -51 11 18 -15 49 -47 55 -67 12 -90 61 -97 201 -5 105 -6 110 -27 113 l-23 3 0 -180z"/><path d="M1393 4928 l2 -252 28 -7 27 -7 0 259 0 259 -30 0 -29 0 2 -252z"/><path d="M1532 5003 l3 -178 29 -3 c18 -2 26 0 21 7 -9 16 7 13 33 -5 32 -22 125 -20 157 3 41 31 50 67 50 213 l0 135 -27 3 -28 3 0 -130 c0 -74 -5 -141 -11 -154 -11 -25 -47 -47 -75 -47 -22 0 -72 31 -81 49 -4 9 -10 75 -13 146 l-5 130 -28 3 -27 3 2 -178z"/><path d="M2550 5006 c0 -169 1 -176 21 -187 26 -13 42 4 33 36 -5 16 -1 15 24 -9 28 -26 113 -52 126 -38 12 11 -19 52 -39 52 -26 0 -70 32 -88 63 -6 12 -14 73 -17 137 l-5 115 -27 3 -28 3 0 -175z"/><path d="M4080 5001 c0 -103 4 -181 9 -181 5 0 17 -3 25 -6 15 -6 16 12 14 177 -3 182 -3 184 -25 187 l-23 3 0 -180z"/><path d="M4670 4926 l0 -254 25 -4 25 -5 0 258 0 259 -25 0 -25 0 0 -254z"/><path d="M4960 5001 c0 -174 1 -181 20 -181 11 0 20 7 20 15 0 12 6 11 33 -5 21 -13 50 -20 85 -20 48 0 58 4 88 34 l34 34 0 151 0 151 -25 0 -25 0 0 -136 0 -136 -29 -29 c-31 -31 -55 -36 -94 -18 -43 20 -52 46 -57 184 -5 125 -6 130 -27 133 l-23 3 0 -180z"/><path d="M5650 5000 c0 -103 4 -180 9 -180 5 0 16 -3 24 -6 11 -4 16 2 19 21 l3 26 22 -21 c24 -22 110 -43 119 -29 10 16 -17 49 -39 49 -70 0 -106 75 -107 218 l0 102 -25 0 -25 0 0 -180z"/><path d="M7900 5000 c0 -103 4 -180 9 -180 5 0 16 -3 25 -6 14 -5 16 14 16 180 l0 186 -25 0 -25 0 0 -180z"/><path d="M3246 4731 c-17 -18 -17 -21 0 -46 l17 -26 20 20 c18 17 19 24 9 46 -14 30 -23 31 -46 6z"/><path d="M4078 4726 c-16 -23 -16 -25 3 -42 19 -17 20 -17 41 4 21 21 21 22 3 42 -23 25 -26 25 -47 -4z"/><path d="M4832 4727 c-22 -23 -22 -24 -4 -40 24 -22 34 -21 50 3 10 16 10 24 0 40 -16 25 -20 25 -46 -3z"/><path d="M7905 4730 c-31 -34 10 -80 43 -47 14 14 14 20 2 42 -16 30 -22 31 -45 5z"/><path d="M5302 4342 c-47 -17 -66 -29 -109 -69 -18 -16 -17 -20 16 -55 l29 -31 28 27 c82 78 192 78 253 0 26 -33 26 -60 1 -101 -24 -39 -39 -48 -125 -68 -136 -31 -195 -87 -195 -183 0 -65 18 -110 58 -144 80 -67 197 -75 295 -20 59 33 66 49 39 83 l-20 23 -54 -27 c-82 -41 -175 -34 -218 18 -19 23 -16 92 5 115 17 19 41 27 168 60 174 45 208 256 57 356 -52 35 -155 42 -228 16z"/><path d="M7110 4347 c-19 -6 -56 -32 -81 -57 -63 -63 -69 -97 -69 -375 0 -184 2 -225 14 -225 7 0 28 -3 45 -6 l31 -6 0 228 c0 126 5 245 10 265 5 19 24 48 41 65 28 27 35 29 110 29 l80 0 35 -39 c54 -61 64 -112 64 -338 0 -161 3 -198 14 -198 7 0 28 -3 45 -6 l31 -6 0 325 0 325 -31 6 c-55 11 -59 9 -59 -31 l0 -38 -26 29 c-56 59 -163 82 -254 53z"/><path d="M590 4336 c-163 -35 -312 -183 -349 -347 -13 -56 -13 -172 0 -228 19 -84 60 -154 133 -227 77 -76 110 -95 207 -120 76 -20 187 -15 266 11 59 19 155 74 160 92 2 6 -9 26 -25 44 l-29 32 -30 -21 c-93 -66 -255 -90 -354 -53 -142 54 -232 194 -233 361 -1 110 22 167 100 250 87 91 139 114 259 115 82 0 97 -3 163 -34 l72 -34 0 -128 0 -129 -145 0 c-160 0 -158 1 -132 -63 l14 -32 182 3 182 3 -1 195 -2 194 -31 24 c-117 89 -266 123 -407 92z"/><path d="M1190 3885 l0 -463 36 -7 c20 -3 37 -5 39 -3 7 8 15 918 8 918 -4 0 -25 4 -45 9 l-38 9 0 -463z"/><path d="M1625 4322 c-77 -37 -157 -122 -180 -192 -24 -73 -18 -209 13 -271 33 -67 102 -135 169 -167 49 -23 71 -27 143 -27 71 0 94 4 141 26 79 37 133 90 171 166 29 59 32 75 32 152 0 105 -28 176 -97 245 -72 72 -116 89 -232 94 -94 3 -104 1 -160 -26z m241 -77 c48 -20 110 -80 135 -133 67 -141 -21 -318 -175 -353 -142 -31 -274 56 -305 202 -42 194 160 360 345 284z"/><path d="M2490 4336 c-30 -7 -72 -20 -92 -30 -57 -28 -132 -113 -157 -179 -20 -56 -21 -71 -19 -380 l3 -321 43 -12 c32 -10 42 -10 42 -1 1 7 0 90 0 185 0 94 1 172 4 172 3 0 18 -12 33 -26 15 -14 51 -38 78 -52 41 -22 63 -27 125 -26 41 0 93 6 115 13 95 31 178 112 217 213 16 42 19 70 16 133 -5 98 -32 160 -97 225 -53 52 -98 76 -172 90 -62 12 -68 12 -139 -4z m178 -105 c44 -22 94 -80 117 -135 21 -50 20 -174 -2 -206 -59 -89 -137 -133 -230 -132 -72 1 -123 24 -168 74 -52 57 -66 92 -67 165 -1 88 21 142 80 193 79 70 183 86 270 41z"/><path d="M3135 4334 c-105 -39 -168 -173 -135 -293 16 -61 87 -135 145 -151 65 -18 174 -8 219 19 l36 23 0 -57 c0 -31 -5 -65 -10 -76 -29 -53 -147 -65 -263 -25 -37 12 -70 20 -72 16 -2 -3 3 -27 12 -52 l15 -46 61 -11 c129 -22 145 -23 201 -11 61 13 107 44 134 94 15 27 17 69 20 297 l3 267 -35 6 c-45 9 -55 3 -48 -29 4 -25 -11 -35 -24 -14 -3 6 -30 22 -58 35 -59 28 -138 31 -201 8z m204 -97 c46 -27 71 -73 71 -127 0 -94 -75 -156 -180 -148 -67 5 -102 27 -130 84 -46 92 -8 178 92 209 51 16 100 10 147 -18z"/><path d="M3670 3885 l0 -462 31 -7 c17 -3 38 -6 45 -6 12 0 14 76 14 460 0 253 -3 460 -7 460 -5 0 -25 4 -45 9 l-38 9 0 -463z"/><path d="M5909 4327 c-77 -40 -83 -64 -87 -329 l-3 -228 -46 0 -45 0 6 -31 c3 -17 6 -35 6 -40 0 -5 18 -9 40 -9 l40 0 0 -77 0 -78 38 -25 c20 -14 40 -26 45 -28 4 -2 7 44 7 102 l0 106 95 0 95 0 0 40 0 40 -95 0 -95 0 0 210 c0 135 4 218 11 234 16 34 82 60 129 50 53 -12 54 -12 56 28 3 48 -14 58 -94 58 -42 0 -71 -7 -103 -23z"/><path d="M6251 4026 c1 -180 5 -328 9 -331 4 -2 26 -7 48 -11 l42 -7 0 321 c0 357 5 331 -68 347 l-33 7 2 -326z"/><path d="M6669 4327 c-79 -42 -84 -58 -87 -324 l-3 -233 -48 0 -48 0 10 -40 c11 -38 13 -40 49 -40 l38 0 0 -77 0 -78 37 -25 c20 -14 39 -25 42 -25 2 0 5 45 5 100 l1 100 98 3 97 3 0 39 0 40 -95 0 c-92 0 -95 1 -95 23 -3 174 3 403 11 421 17 36 55 51 121 49 l58 -2 0 38 c0 46 -9 51 -89 51 -41 0 -71 -7 -102 -23z"/><path d="M7769 4327 c-31 -16 -51 -36 -66 -67 -22 -42 -23 -56 -23 -267 l0 -222 -49 -3 -49 -3 12 -35 c10 -31 16 -35 49 -38 l37 -3 0 -78 0 -78 40 -27 c22 -14 42 -26 45 -26 3 0 5 47 5 105 l0 105 95 0 95 0 0 40 0 40 -95 0 -95 0 0 209 c0 115 4 221 9 234 14 37 88 63 141 49 l40 -10 0 43 c0 50 -7 55 -89 55 -41 0 -71 -7 -102 -23z"/><path d="M8299 4341 c-79 -25 -160 -95 -199 -174 -97 -198 1 -433 204 -492 100 -29 225 -6 303 55 26 21 78 89 71 94 -7 6 -182 115 -331 206 -86 52 -156 100 -157 107 0 20 50 72 98 100 88 52 205 33 323 -52 27 -19 50 -35 52 -35 1 0 1 26 1 57 -2 53 -4 59 -35 80 -63 44 -133 63 -222 62 -45 0 -94 -4 -108 -8z m89 -441 c84 -52 152 -98 152 -101 0 -17 -93 -51 -139 -51 -142 2 -248 118 -242 265 l1 28 38 -23 c21 -13 106 -66 190 -118z"/><path d="M4300 3880 c0 -443 1 -460 19 -460 10 0 33 -3 50 -6 l31 -6 0 459 0 460 -37 7 c-21 3 -44 6 -50 6 -10 0 -13 -99 -13 -460z"/><path d="M4550 4021 c0 -176 4 -322 9 -325 5 -3 25 -8 45 -11 36 -6 36 -6 36 31 l0 38 28 -27 c115 -110 320 -79 383 58 16 36 19 68 19 291 l0 252 -22 6 c-13 3 -33 6 -45 6 l-23 0 0 -251 0 -252 -43 -42 c-57 -58 -115 -68 -184 -34 -40 20 -53 34 -78 84 l-30 60 -3 212 c-4 207 -4 211 -25 217 -12 3 -32 6 -44 6 l-23 0 0 -319z"/><path d="M6262 3521 l-31 -39 34 -38 35 -39 35 38 36 38 -31 39 c-18 22 -35 40 -39 40 -4 0 -22 -17 -39 -39z"/><path d="M4101 2686 c-189 -189 -342 -349 -340 -355 2 -6 129 -136 283 -290 l279 -279 -32 -34 c-17 -18 -26 -35 -20 -37 6 -1 155 142 333 320 l322 322 -239 237 -240 236 -240 -239 -240 -239 234 -229 c129 -125 229 -228 222 -229 -6 0 -116 104 -244 231 l-232 230 251 252 252 252 245 -245 c135 -135 245 -249 245 -255 0 -5 -149 -158 -330 -340 -295 -295 -328 -331 -312 -342 17 -10 59 29 365 335 l347 347 -275 275 c-151 151 -279 276 -285 278 -9 3 -167 -151 -440 -431 l-124 -128 254 -254 c140 -140 250 -255 245 -255 -13 0 -515 502 -515 515 0 12 565 575 577 575 4 0 138 -130 298 -290 l289 -289 -353 -348 c-276 -272 -351 -352 -346 -365 4 -10 12 -18 19 -18 14 0 736 721 736 735 0 6 -144 154 -320 330 l-319 319 -22 -20 c-16 -14 -590 -589 -629 -631 -3 -3 119 -126 270 -273 151 -148 272 -271 269 -274 -3 -3 -131 118 -283 271 l-278 276 336 336 335 335 330 -329 c182 -182 331 -334 331 -340 0 -5 -163 -173 -362 -372 -199 -199 -363 -369 -364 -379 -2 -11 9 -5 33 19 19 21 39 37 44 37 5 0 9 5 9 11 0 15 26 39 34 32 3 -4 6 1 6 10 0 10 4 17 8 17 5 0 33 25 63 56 30 30 168 169 307 308 138 140 252 256 252 259 0 6 -652 660 -681 684 -13 10 -72 -45 -358 -331z m576 -128 c117 -117 213 -216 213 -219 0 -3 -100 -106 -221 -228 -201 -201 -223 -220 -238 -206 -9 8 -110 106 -224 218 l-209 202 222 223 c122 122 227 222 233 222 7 0 107 -96 224 -212z"/><path d="M4365 2579 c-33 -11 -68 -28 -78 -38 -17 -16 -16 -19 15 -59 34 -45 51 -50 82 -27 22 16 73 20 94 6 29 -18 8 -46 -49 -66 -75 -27 -103 -47 -123 -88 -67 -143 72 -267 236 -211 83 28 93 58 36 112 -23 21 -27 22 -54 7 -49 -25 -99 -15 -92 20 2 11 26 26 68 41 80 29 116 66 126 130 10 72 -18 133 -76 161 -69 33 -116 36 -185 12z"/></g><g fill="#293e79"><path d="M4202 5068 l3 -243 23 -3 c18 -3 22 1 22 23 l0 27 30 -26 c120 -101 300 -10 300 152 0 152 -168 239 -291 151 -15 -10 -30 -19 -33 -19 -3 0 -7 39 -8 88 -3 82 -4 87 -26 90 l-22 3 2 -243z m237 61 c139 -43 108 -279 -37 -279 -38 0 -98 28 -126 59 -48 53 -18 175 54 213 40 21 59 22 109 7z"/><path d="M5953 5303 c-9 -3 1 -32 32 -94 39 -76 44 -93 34 -112 -6 -12 -43 -78 -82 -145 -57 -100 -68 -125 -56 -133 34 -21 40 -14 132 161 19 35 39 66 44 67 5 2 35 -51 68 -117 33 -66 64 -120 70 -120 41 1 35 19 -82 258 -115 234 -125 250 -160 235z"/><path d="M612 5178 c-47 -13 -109 -78 -123 -130 -17 -65 2 -135 49 -180 50 -48 72 -58 132 -58 64 0 108 18 142 58 78 93 55 235 -48 293 -37 21 -110 29 -152 17z m117 -53 c16 -8 40 -28 55 -45 48 -57 29 -162 -37 -205 -90 -59 -217 15 -217 126 0 96 116 168 199 124z"/><path d="M2004 5183 c-12 -2 -32 -15 -45 -29 -22 -24 -24 -35 -27 -155 -4 -129 -4 -129 -28 -129 -32 0 -32 -28 1 -40 21 -8 25 -16 25 -48 0 -26 7 -45 20 -57 11 -10 20 -14 21 -9 1 5 2 32 3 59 l1 50 53 0 c47 0 52 2 52 22 0 21 -5 23 -52 23 l-53 0 2 117 c1 108 3 119 23 135 12 10 37 18 56 18 27 0 34 4 34 20 0 11 -6 20 -12 20 -7 0 -22 2 -33 4 -11 2 -30 2 -41 -1z"/><path d="M2299 5181 c-161 -22 -214 -238 -82 -338 32 -25 45 -28 109 -28 76 0 110 15 140 60 12 19 4 26 -121 103 -74 46 -135 87 -135 91 0 10 40 46 67 60 12 6 35 11 52 11 32 0 121 -38 121 -52 0 -4 5 -8 11 -8 6 0 9 14 7 33 -2 25 -10 35 -38 48 -47 23 -77 27 -131 20z m8 -235 c111 -69 115 -79 38 -91 -47 -7 -98 16 -127 55 -20 28 -36 100 -22 100 5 0 55 -29 111 -64z"/><path d="M2935 5183 c-11 -2 -30 -6 -42 -9 -37 -7 -90 -62 -109 -109 -40 -106 24 -226 134 -250 51 -11 115 3 145 30 l26 25 3 -97 c3 -93 4 -98 26 -101 l22 -3 0 249 c0 219 -2 251 -16 256 -24 9 -24 8 -24 -26 l0 -31 -22 20 c-40 36 -98 55 -143 46z m85 -62 c73 -38 98 -117 62 -191 -61 -124 -262 -76 -262 63 0 110 107 178 200 128z"/><path d="M3434 5175 c-16 -7 -38 -20 -48 -28 -19 -14 -19 -15 -2 -32 15 -16 19 -16 34 -2 47 43 117 39 142 -7 19 -37 4 -63 -48 -81 -26 -10 -60 -22 -75 -27 -63 -24 -72 -115 -16 -162 37 -31 100 -35 154 -9 38 18 42 25 22 41 -9 8 -26 6 -59 -6 -37 -13 -51 -14 -71 -5 -67 31 -50 88 33 113 83 25 98 36 110 80 13 47 -4 89 -46 116 -31 21 -93 25 -130 9z"/><path d="M3797 5175 c-50 -17 -85 -50 -108 -100 -56 -121 31 -264 162 -265 45 0 129 28 129 44 0 28 -22 35 -54 19 -126 -65 -252 67 -187 195 35 68 112 90 186 55 31 -15 37 -15 45 -3 11 18 5 27 -33 47 -42 21 -93 24 -140 8z"/><path d="M5400 5183 c-76 -27 -110 -67 -110 -128 0 -36 36 -100 66 -115 23 -13 112 -10 147 5 14 6 17 2 17 -23 0 -17 -7 -37 -15 -45 -24 -24 -85 -30 -134 -13 l-43 16 7 -28 c4 -15 8 -29 10 -31 2 -2 33 -6 69 -8 74 -6 120 8 139 41 15 27 23 316 9 316 -6 0 -17 3 -26 6 -11 4 -16 1 -16 -10 0 -20 2 -20 -45 4 -41 21 -50 22 -75 13z m73 -55 c12 -6 27 -18 34 -27 19 -24 16 -85 -5 -104 -64 -58 -162 -24 -162 58 1 66 73 106 133 73z"/><path d="M6577 5179 c-34 -9 -97 -56 -97 -71 0 -6 7 -19 15 -28 15 -16 18 -15 49 16 29 29 41 34 79 34 63 0 101 -33 100 -85 -1 -50 -31 -78 -105 -101 -36 -11 -74 -31 -94 -50 -30 -28 -34 -37 -34 -84 0 -56 19 -98 54 -120 56 -35 140 -30 199 12 l29 21 -21 20 c-19 19 -22 20 -38 5 -10 -9 -31 -22 -47 -28 -59 -22 -126 26 -126 90 0 31 41 67 91 80 109 29 156 83 146 169 -4 38 -12 52 -47 84 -24 20 -52 37 -64 38 -11 0 -30 2 -41 3 -11 1 -33 -1 -48 -5z"/><path d="M6955 5176 c-55 -24 -60 -38 -64 -178 -3 -127 -5 -133 -38 -129 -26 4 -9 -31 20 -42 12 -5 17 -17 17 -45 0 -35 22 -72 43 -72 4 0 7 27 7 60 l0 60 50 0 c44 0 50 2 50 21 0 19 -5 21 -50 17 l-50 -3 0 122 c0 139 8 158 67 151 28 -3 33 -1 33 18 0 14 -8 24 -22 28 -29 7 -28 8 -63 -8z"/><path d="M7170 5172 c-59 -32 -71 -68 -68 -217 3 -126 4 -130 26 -133 22 -3 22 -3 22 128 0 75 5 140 11 152 6 11 26 26 45 34 42 18 75 5 108 -39 18 -25 21 -46 25 -153 3 -121 4 -125 25 -122 11 2 20 6 19 11 -2 4 -3 81 -3 171 0 155 -1 164 -20 169 -15 4 -20 0 -20 -14 0 -17 -3 -16 -36 6 -44 30 -87 32 -134 7z"/><path d="M7556 5175 c-49 -17 -102 -69 -117 -113 -18 -53 -6 -125 27 -173 57 -82 173 -103 249 -45 19 15 35 23 36 19 0 -4 1 -48 2 -98 2 -85 3 -90 25 -93 l22 -3 0 249 c0 219 -2 251 -16 256 -29 11 -36 6 -32 -19 3 -14 1 -28 -3 -31 -5 -3 -9 -1 -9 4 0 14 -74 51 -111 56 -19 2 -52 -2 -73 -9z m122 -55 c54 -24 87 -88 76 -146 -14 -78 -102 -135 -174 -114 -59 17 -110 81 -110 137 0 42 41 106 80 125 45 23 75 22 128 -2z"/><path d="M8157 5176 c-92 -34 -133 -100 -125 -201 8 -99 79 -165 177 -165 29 0 66 7 84 16 30 15 66 51 67 65 0 8 -215 143 -242 152 -25 9 -22 34 6 62 47 47 142 42 206 -11 l30 -26 0 34 c0 29 -6 37 -37 55 -51 29 -119 36 -166 19z m33 -227 c55 -34 100 -65 100 -70 0 -4 -17 -13 -38 -20 -58 -17 -116 2 -146 49 -28 42 -43 102 -27 102 6 0 56 -28 111 -61z"/><path d="M8474 5171 c-50 -23 -61 -38 -41 -58 13 -14 18 -13 43 5 72 52 162 11 135 -61 -7 -18 -24 -28 -69 -41 -80 -22 -102 -41 -109 -93 -5 -39 -2 -46 30 -78 30 -30 41 -35 84 -35 31 0 60 7 82 21 30 18 32 22 19 36 -14 13 -19 13 -46 -1 -64 -33 -122 -9 -122 49 0 32 3 35 43 46 107 29 137 55 137 120 0 84 -97 131 -186 90z"/><path d="M286 5172 c-3 -3 -6 -72 -6 -154 l0 -148 -25 0 c-14 0 -25 -4 -25 -9 0 -23 14 -41 31 -41 14 0 19 -7 19 -28 0 -15 8 -43 18 -61 34 -64 133 -94 140 -43 3 19 -1 22 -32 22 -27 0 -39 6 -55 29 -12 16 -21 41 -21 55 0 25 2 26 55 26 37 0 55 4 55 13 0 20 -16 39 -31 37 -8 -1 -29 -2 -46 -1 l-33 1 0 149 c0 139 -1 149 -19 154 -11 3 -22 2 -25 -1z"/><path d="M943 5004 c2 -161 4 -179 20 -182 12 -3 17 3 17 22 0 31 16 43 25 17 10 -33 125 -72 125 -42 0 23 -14 41 -32 41 -10 0 -32 7 -47 15 -44 22 -61 78 -61 195 0 55 -4 100 -9 100 -5 0 -16 3 -25 6 -13 5 -15 -16 -13 -172z"/><path d="M1402 4926 l3 -251 23 -3 22 -3 0 249 0 250 -25 4 -25 5 2 -251z"/><path d="M1540 5000 c0 -173 1 -180 20 -180 11 0 20 7 20 15 0 20 7 19 37 -5 31 -24 101 -27 143 -5 51 26 60 59 60 208 0 138 -3 147 -41 147 -5 0 -9 -62 -9 -140 0 -126 -2 -142 -20 -160 -42 -42 -107 -36 -144 14 -18 23 -22 45 -25 149 -3 114 -8 136 -33 137 -5 0 -8 -81 -8 -180z"/><path d="M2560 5002 c0 -171 1 -180 20 -185 17 -4 20 0 20 26 l0 30 23 -20 c12 -11 32 -26 44 -32 22 -11 83 -15 83 -5 0 19 -24 44 -43 44 -27 1 -54 21 -79 57 -15 23 -18 48 -18 141 0 61 -4 112 -9 112 -5 0 -16 3 -25 6 -14 5 -16 -14 -16 -174z"/><path d="M3247 5013 c1 -92 2 -174 2 -180 1 -7 10 -13 21 -13 20 0 20 5 18 178 -3 168 -4 177 -23 180 -19 3 -20 -2 -18 -165z"/><path d="M4080 5001 l0 -181 23 0 22 0 -1 177 c-2 173 -3 178 -23 181 -21 3 -21 1 -21 -177z"/><path d="M4672 4928 l3 -253 23 -3 22 -3 0 249 c0 260 0 262 -41 262 -6 0 -8 -101 -7 -252z"/><path d="M4830 5000 l0 -180 23 0 24 0 -1 173 c-1 102 -5 175 -11 179 -32 24 -35 9 -35 -172z"/><path d="M4960 5000 c0 -173 1 -180 20 -180 14 0 20 7 20 21 0 20 1 20 31 -5 47 -40 132 -35 176 10 26 25 33 68 33 194 0 108 -3 129 -16 134 -9 3 -20 4 -25 0 -5 -3 -9 -65 -9 -139 0 -130 -1 -135 -25 -160 -30 -29 -79 -33 -114 -9 -39 28 -51 73 -51 193 0 107 -4 121 -36 121 -2 0 -4 -81 -4 -180z"/><path d="M5650 5000 l0 -180 25 0 c21 0 25 5 25 28 1 23 3 25 13 12 23 -29 66 -50 101 -50 34 0 35 1 24 25 -7 16 -19 25 -35 25 -70 0 -103 67 -103 209 0 99 -4 111 -41 111 -5 0 -9 -77 -9 -180z"/><path d="M7907 5173 c-8 -8 -9 -299 -1 -330 3 -11 14 -23 25 -26 18 -5 19 3 19 173 0 153 -2 179 -16 184 -19 7 -19 7 -27 -1z"/><path d="M3257 4735 c-20 -14 -22 -36 -5 -53 17 -17 26 -15 38 8 16 30 -8 63 -33 45z"/><path d="M4080 4725 c-12 -22 -12 -28 3 -42 13 -13 19 -14 31 -3 19 15 21 41 4 58 -17 17 -23 15 -38 -13z"/><path d="M4837 4732 c-16 -17 -16 -23 -5 -41 16 -26 20 -26 42 -2 15 17 15 20 -1 40 -18 22 -19 22 -36 3z"/><path d="M7907 4733 c-22 -25 -21 -35 2 -50 15 -10 22 -9 35 6 15 17 15 20 -1 40 -18 22 -19 22 -36 4z"/><path d="M5311 4341 c-56 -20 -98 -46 -115 -74 -9 -13 -5 -22 16 -44 l27 -27 23 21 c30 28 106 63 138 63 42 0 107 -36 124 -69 20 -38 20 -64 1 -101 -17 -33 -50 -50 -135 -70 -118 -28 -177 -77 -187 -157 -7 -63 8 -110 50 -153 44 -45 90 -63 167 -62 72 0 142 25 174 61 20 22 20 22 -6 48 l-26 26 -33 -24 c-34 -24 -124 -37 -172 -25 -59 14 -95 89 -67 141 14 26 81 58 144 70 100 17 166 73 184 152 23 102 -35 197 -137 227 -70 20 -103 20 -170 -3z"/><path d="M7131 4348 c-66 -19 -109 -55 -142 -118 -23 -43 -24 -56 -27 -284 -2 -131 0 -242 5 -246 4 -4 25 -11 45 -14 l37 -7 3 253 c3 243 4 254 25 284 57 79 186 83 257 8 46 -50 56 -106 56 -331 0 -166 3 -203 14 -203 7 0 28 -3 45 -6 l31 -6 0 326 0 326 -22 0 c-13 0 -33 3 -45 6 -20 6 -22 3 -16 -30 7 -42 -13 -50 -35 -15 -7 11 -36 31 -65 45 -55 25 -108 29 -166 12z"/><path d="M655 4339 c-105 -9 -142 -21 -217 -72 -73 -50 -147 -143 -179 -224 -19 -48 -23 -77 -23 -168 0 -98 3 -117 29 -179 52 -126 161 -230 285 -272 67 -22 195 -25 265 -5 63 18 155 63 177 87 16 18 15 21 -10 52 l-27 32 -35 -23 c-62 -42 -121 -59 -215 -64 -76 -4 -99 -2 -148 17 -172 65 -270 295 -207 485 19 58 33 79 90 135 88 89 149 113 270 108 73 -2 96 -8 153 -36 l68 -34 -3 -131 -3 -132 -143 -3 c-126 -2 -143 -5 -138 -18 3 -9 9 -27 12 -40 l6 -24 179 0 179 0 0 200 0 199 -57 34 c-119 69 -186 85 -308 76z"/><path d="M1668 4337 c-99 -38 -173 -102 -212 -186 -17 -37 -21 -66 -21 -141 0 -84 3 -102 28 -152 36 -74 120 -151 188 -173 69 -23 206 -17 269 12 59 26 131 98 161 159 21 42 24 63 24 154 0 91 -3 111 -23 148 -34 63 -93 124 -154 157 -44 24 -67 30 -138 32 -55 2 -98 -2 -122 -10z m212 -92 c55 -28 108 -84 127 -134 25 -63 22 -164 -5 -216 -26 -52 -87 -109 -136 -129 -48 -20 -145 -21 -190 -2 -46 19 -114 82 -136 127 -70 136 0 310 146 365 49 18 148 13 194 -11z"/><path d="M2492 4335 c-75 -17 -123 -43 -178 -100 -80 -83 -79 -77 -82 -463 l-3 -342 26 -10 c56 -21 55 -25 55 175 0 102 2 185 4 185 2 0 20 -16 41 -35 57 -54 91 -68 182 -73 93 -5 147 9 217 57 132 91 182 279 112 425 -69 144 -217 215 -374 181z m165 -94 c87 -40 153 -147 153 -250 0 -94 -50 -168 -145 -212 -128 -61 -262 -17 -325 107 -20 40 -25 64 -25 125 0 72 2 80 38 132 21 31 50 63 64 72 71 47 170 57 240 26z"/><path d="M3149 4336 c-116 -41 -175 -154 -149 -282 10 -45 21 -65 55 -100 61 -60 104 -77 190 -72 54 4 80 11 112 31 24 15 45 27 48 27 9 0 5 -84 -6 -123 -8 -30 -18 -42 -47 -54 -48 -21 -145 -18 -225 7 -34 11 -65 20 -69 20 -3 0 2 -21 11 -47 16 -47 18 -48 76 -60 91 -19 202 -16 251 6 91 41 106 104 102 421 l-3 215 -37 3 c-36 3 -38 2 -38 -27 0 -37 -9 -39 -40 -7 -45 49 -156 69 -231 42z m188 -90 c69 -39 100 -155 58 -219 -43 -66 -182 -96 -241 -51 -49 36 -67 70 -72 131 -5 78 22 121 93 145 64 22 115 20 162 -6z"/><path d="M5955 4343 c-39 -6 -90 -46 -112 -86 -15 -27 -18 -68 -21 -259 l-4 -228 -45 0 -45 0 7 -32 c9 -40 22 -50 58 -44 l27 6 0 -79 c0 -78 0 -79 34 -105 19 -14 39 -26 45 -26 7 0 11 37 11 103 l0 102 92 0 93 0 0 35 0 35 -95 3 -95 3 3 217 c2 166 6 222 17 239 20 29 77 46 131 38 l44 -6 0 40 c0 23 -1 41 -2 42 -21 4 -120 6 -143 2z"/><path d="M6260 4020 c0 -308 1 -330 18 -330 9 0 27 -3 40 -6 l22 -6 0 326 0 326 -27 6 c-16 3 -34 7 -40 10 -10 3 -13 -67 -13 -326z"/><path d="M6692 4336 c-41 -11 -88 -64 -101 -113 -6 -21 -11 -131 -11 -245 l0 -208 -45 0 c-49 0 -50 -2 -34 -49 11 -30 15 -32 45 -29 l34 4 0 -77 c0 -76 0 -77 34 -103 19 -14 37 -26 40 -26 3 0 7 45 8 101 l3 101 95 2 95 1 0 35 0 35 -97 3 -98 3 0 187 c1 282 11 307 130 307 l70 0 0 37 c0 34 -2 37 -37 43 -45 7 -86 4 -131 -9z"/><path d="M7796 4335 c-58 -20 -93 -60 -105 -117 -6 -27 -11 -139 -11 -248 l0 -200 -46 0 -46 0 7 -32 c10 -47 13 -50 48 -46 l32 3 3 -80 c3 -79 3 -80 37 -102 19 -13 38 -23 42 -23 5 0 8 45 8 101 l0 101 92 0 c85 -1 91 1 97 21 15 56 14 57 -94 57 l-100 0 0 200 c0 226 7 257 61 286 24 12 46 15 86 10 l53 -6 0 39 c0 32 -4 40 -22 45 -38 10 -101 6 -142 -9z"/><path d="M8265 4321 c-70 -33 -136 -96 -168 -161 -33 -68 -36 -204 -6 -285 29 -79 112 -162 187 -189 68 -24 218 -19 271 9 42 22 121 99 121 118 0 8 -46 42 -102 77 -57 35 -148 91 -203 125 -55 34 -119 72 -142 85 -41 23 -42 24 -28 51 21 39 89 94 134 107 83 25 181 3 272 -62 27 -20 51 -36 54 -36 3 0 5 24 5 54 l0 53 -77 39 c-70 36 -84 39 -167 42 -82 2 -97 -1 -151 -27z m95 -398 c105 -65 190 -121 190 -125 0 -3 -19 -16 -43 -27 -125 -60 -274 -7 -329 117 -24 53 -36 152 -19 152 6 0 97 -53 201 -117z"/><path d="M1192 3883 l3 -457 35 -7 c19 -4 36 -6 37 -5 4 3 4 908 1 911 -2 1 -20 5 -41 9 l-37 7 2 -458z"/><path d="M3670 3886 c0 -250 3 -457 8 -459 4 -2 24 -7 44 -11 l37 -7 -1 456 c0 250 -3 456 -6 459 -4 2 -24 6 -44 10 l-38 7 0 -455z"/><path d="M4300 3886 l0 -456 23 -5 c12 -3 33 -6 47 -8 l25 -2 3 458 2 457 -34 0 c-19 0 -41 3 -50 6 -14 6 -16 -38 -16 -450z"/><path d="M4560 4334 c-2 -48 1 -638 3 -640 1 0 19 -4 40 -7 l37 -6 0 42 0 41 33 -31 c52 -50 94 -66 169 -66 91 0 151 31 193 98 l30 48 3 259 c3 243 2 258 -15 258 -10 0 -28 3 -40 6 l-23 6 0 -236 c0 -199 -3 -242 -16 -269 -24 -46 -44 -67 -83 -83 -84 -35 -172 -3 -217 79 l-29 52 -3 223 c-3 199 -5 222 -20 222 -9 0 -27 3 -39 6 -13 4 -23 2 -23 -2z"/><path d="M6272 3527 c-18 -18 -32 -37 -32 -42 1 -6 14 -26 30 -45 l30 -34 30 32 c17 18 30 36 30 40 0 5 -51 82 -54 82 -1 0 -16 -15 -34 -33z"/><path d="M4520 1725 c-7 -8 -8 -15 -2 -15 5 0 15 7 22 15 7 8 8 15 2 15 -5 0 -15 -7 -22 -15z"/></g></svg>