<?xml version="1.0" encoding="utf-8"?>
<!-- Generator: Adobe Illustrator 23.0.1, SVG Export Plug-In . SVG Version: 6.00 Build 0)  -->
<svg version="1.1" id="Layer_1" xmlns="http://www.w3.org/2000/svg" xmlns:xlink="http://www.w3.org/1999/xlink" x="0px" y="0px"
	 viewBox="0 0 512 512" style="enable-background:new 0 0 512 512;" xml:space="preserve">
<style type="text/css">
	.st0{fill:#6f94c1;}
</style>
<g>
	<g>
		<g>
			<path class="st0" d="M124.5,170.2c38,32.1,104.5,88.7,124.1,106.3c2.6,2.4,5.5,3.6,8.4,3.6c2.9,0,5.7-1.2,8.4-3.6
				c19.5-17.6,86.1-74.1,124.1-106.3c2.4-2,2.7-5.5,0.8-7.9c-4.4-5.7-11-8.9-18.1-8.9H141.8c-7.1,0-13.7,3.2-18.1,8.9
				C121.8,164.7,122.1,168.2,124.5,170.2z"/>
			<path class="st0" d="M391.9,187.6c-2.1-1-4.4-0.6-6.2,0.8c-42.1,35.7-95.7,81.4-112.6,96.7c-9.5,8.6-22.6,8.6-32.1,0
				c-18-16.3-78.3-67.5-112.7-96.6c-1.7-1.5-4.1-1.8-6.2-0.8c-2.1,1-3.3,3-3.3,5.2v144.9c0,12.6,10.3,22.9,23.1,22.9h230.4
				c12.7,0,23.1-10.3,23.1-23.1V192.8C395.2,190.5,393.9,188.5,391.9,187.6z"/>
		</g>
	</g>
</g>
</svg>
