<svg id="BACKGROUND" xmlns="http://www.w3.org/2000/svg" xmlns:xlink="http://www.w3.org/1999/xlink" viewBox="0 0 750 373.4"><defs><style>.cls-1{fill:url(#linear-gradient);}.cls-2{fill:url(#linear-gradient-2);}.cls-3{fill:#de7e41;}.cls-4{fill:url(#linear-gradient-3);}.cls-5{fill:url(#linear-gradient-4);}.cls-6{fill:url(#linear-gradient-5);}.cls-7{fill:#2c0c19;}</style><linearGradient id="linear-gradient" x1="384.75" y1="35.28" x2="380.56" y2="109.17" gradientUnits="userSpaceOnUse"><stop offset="0" stop-color="#ffb05c"/><stop offset="1" stop-color="#ffc875"/></linearGradient><linearGradient id="linear-gradient-2" x1="386.05" y1="107.78" x2="380.94" y2="184.33" gradientUnits="userSpaceOnUse"><stop offset="0" stop-color="#e8924d"/><stop offset="1" stop-color="#ffb05c"/></linearGradient><linearGradient id="linear-gradient-3" x1="480.37" y1="240.48" x2="541.67" y2="348.81" gradientUnits="userSpaceOnUse"><stop offset="0" stop-color="#bf5047"/><stop offset="0.88" stop-color="#de7e42"/></linearGradient><linearGradient id="linear-gradient-4" x1="375.86" y1="146.06" x2="374.74" y2="311.11" gradientUnits="userSpaceOnUse"><stop offset="0" stop-color="#912838"/><stop offset="1" stop-color="#bf5047"/></linearGradient><linearGradient id="linear-gradient-5" x1="374.81" y1="265.83" x2="377.51" y2="407.52" gradientUnits="userSpaceOnUse"><stop offset="0" stop-color="#4a1623"/><stop offset="0.21" stop-color="#511825"/><stop offset="0.5" stop-color="#631c2a"/><stop offset="0.84" stop-color="#812433"/><stop offset="1" stop-color="#912838"/></linearGradient></defs><title>hillsb</title><path class="cls-1" d="M750,61.3V373.4H0V40.6c22.1-15.1,43.8-31,70.1-38,45.2-12,84.1,21.2,127.7,27,21.7,2.9,43.3-6.4,65.2-6.2,38.3.3,70.1,28.8,107.6,35.7,39.9,7.2,79.5-10.7,116.7-26.1s67.3-25.4,104.3-9.5c32.4,13.9,67.1,45,102.3,50.7C710.9,77,731.5,64.7,750,61.3Z"/><path class="cls-2" d="M750,186.4v187H0V173.6l169.3-82,2.7-1.3,5-2.4c21.6-10.4,44.4-20.2,68-21.2l.8-3.5.8,3.5a87,87,0,0,1,11.4.5,93.9,93.9,0,0,1,17.5,3.7l1.6-7.2,2,8.3.6.3.8-3.7,1,4.3c12.6,4.5,24.8,10.7,37.2,16.1l.9-3.8,1.1,4.7c11.3,4.8,22.9,8.9,35.2,10.2a101.4,101.4,0,0,0,14.6.4l1.3-5.6,1.3,5.5h.6l1.3-5.5,1.2,5.3c12.9-.9,25.8-3.1,38.4-3.4l1-4.6.7,2.7,2.3-10,2.3,9.8,1.1-4.8,1.6,6.9h1.5l1-4.3,1,4.5A64.8,64.8,0,0,1,441,100l1.2-5.1,1.3,6,1.4.5.5-2.3.6,2.8c10.3,4.5,18.6,12.2,27.3,19.2a97.9,97.9,0,0,0,8.2,6.2l.2-.9.3,1.3,3.2,2.1,1.2-5.3,1,4.4.8-3.3,1.5,6.7,1.8.8.7-3.2.9,4,2.5.9,1.1-4.9,1.3,5.7.9.2.5-2.4.6,2.7c14.2,3.4,29,.2,43.9-2.9l1.2-5.6,1.2,5.1,1.8-.4,1.4-6,1.3,5.5c8.2-1.7,16.5-3,24.8-2.8a78.8,78.8,0,0,1,27.3,5.7l.7-2.9.6,2.8,1-4.2,1.3,5.7c3,1.3,6,2.7,8.9,4.3l.9-3.6,1,4.6c15.3,8.2,29.8,19.1,45,28.3a183.2,183.2,0,0,0,16.2,8.9,96.8,96.8,0,0,0,28.9,8.8l6.8.5c7.7.4,15.6-.2,23.5-.7Z"/><path class="cls-3" d="M682.6,225.1a524.9,524.9,0,0,1-157.7-9.8l-14.8-3.4c-42.3-10.6-82.8-26.3-122.7-43.4l-.5-2.1-.4,1.7-9.7-4.1-1-4.6-.9,3.8-.3-.2-.4-1.6-.3,1.3c-35.4-15.4-70.6-31.4-106.6-45.5l-.6-2.5-.4,2.1-1.1-.4-1.1-5.2-1,4.3-2.8-1-.7-3.3-.7,2.8-1.9-.8-1.5-6.2-.7,3.3-1.1-4.5-1.3,5.7-2.8-1-.6-2.7-.5,2.2c-12.1-4.4-24.3-8.5-36.8-12.2l-1-4.5-.9,3.9-6.2-1.8-1.4-6.3-.8,3.3-1-4.5L199,94.1l-7.5-2-.5-2.2-.5,2-1.4-.4-1.5-6.6-1.3,5.9-9.1-2.2-1.3-5.7L174.7,88l-5.4-1.2c-7.5-1.6-15.1-3.1-22.7-4.3l-1-4.4-.9,4.1-1.4-.3-.9-3.8-.8,3.6-5-.8-.9-3.9-.8,3.7c-33.7-4.6-67.6-5.2-100.3.2l-.9-4-1,4.3-2.6.4-.8-3.4-.9,3.7-3.8.8-.2-1-.3,1.1-4.8,1L18.1,79,17,83.9,14.7,74,12.1,85.5,0,88.9V373.4H750V214.6A546,546,0,0,1,682.6,225.1Z"/><path class="cls-4" d="M750,108V373.4H211c31.7-12.8,56.1-40,82.9-63l6.5-5.4c15.4-12.6,31.8-23.3,51-28.9,33.4-9.8,70.6-2.2,103.8-12.6,23.7-7.5,42.8-23.2,61.8-39l7.9-6.6a24.3,24.3,0,0,1,2.5-2c14.6-12,29.8-23.1,47.5-29.9a137.1,137.1,0,0,1,23.2-6.5c21.2-4.2,43.6-5.2,64.2-9.8,14.7-3.3,28.4-8.3,39.9-17.8s19.4-21.9,30.1-32.1A57.7,57.7,0,0,1,750,108Z"/><path class="cls-5" d="M743.8,315.9,616.2,263l-20.9-8.7-12.3-5-1.8-7.7-1.4,6.3-1.7-.6L575,233.5l-2.7,11.4-5.7-2.2-2.1-9.2-1.7,7.6-4-1.5-3.6-16-1.8,7.6L551,220.9l-3.3,14.4-6.5-2.4-1.2-5.1-1,4.3c-7.3-2.7-14.6-5.2-22-7.6-20-6.5-38.4-11.3-56.5-14.1l-1-4.1-.9,3.9c-5.4-.8-10.7-1.4-16.1-1.8l-2.8-11.9-1.7,7.6-2.4-10.3-3.3,14.1c-5.3-.1-10.7-.1-16.2.2l-2.3-9.8-2.3,10.1h-.6l-5-21.7-5.2,22.7-6.2.8-1.3-5.6-1.4,6c-5.5.8-11.1,1.8-16.8,3.1C322.8,225,271.7,244.3,219,235h-.8l-1.4-5.9-1.2,5.4a127.3,127.3,0,0,1-21-6.4l-3.5-15.1-2.4,10.3-1.3-5.9-1.6,7c-29.3-13.4-55.9-34.6-86-48l-1-4.5-.9,3.7a159.4,159.4,0,0,0-18.3-6.7L78,161.9,76.6,168a111.6,111.6,0,0,0-12.8-2.6l-1.4-6-1,4.5-3.1-13.5-3.3,14-4.4-.3-2.5-10.7-2.4,10.7-8.4.3-.6-2.9-.7,3A113,113,0,0,0,24.7,166l-2.5-10.8-2.6,11.3-5.3-22.9L8.2,170.1c-2.7.8-5.4,1.7-8.2,2.8V373.4H750V318.6Z"/><path class="cls-6" d="M750,180.5V373.4H0V270.3c25.1-16,51.1-30.6,79.6-38.9,3.3-1,6.6-1.7,9.8-2.4l5.7-24.4,5.2,22.8,4.8-.3,2.8-12,2.2,9.9,4.1-17.9,4.7,20.1a127.3,127.3,0,0,1,30.4,6.2l1.5-6.6,1.8,7.7a183.1,183.1,0,0,1,36.6,18.1c15.5,9.7,31.3,21.3,46.6,32.1s29.4,23.2,48.3,22.8a63.9,63.9,0,0,0,9.8-1.1l6.5-1.4c9.9-2.4,19.6-5.3,29.6-4.1,7.2.9,13.6,3.9,19.9,7.7l.8-3.8,1.2,5,5.3,3.5,4.4-19.1,6,26a96.6,96.6,0,0,0,9.4,5.2l3.2,1.4c25.3,10.1,54.5,2.8,80.7-5.7,13.4-4.4,26.8-9.1,40.1-14l5.6-24.6,4.8,20.6,3.1-1.2,2.2-9.5,1.8,8a1021.5,1021.5,0,0,0,97.6-44.5h.1l2-1c13.8-7.3,27.4-14.8,40.9-22.7l1.3-5.6.8-3.4.8,3.3.8,3.6,6.8-4,6.9-4.2,6.1-3.7,1.9-1.2,3.3-14.2,2.2-9.6,2.5,10.7,1.6,7.3c3-1.8,5.9-3.5,8.9-5.1l1.6-7.3,1.3,5.6A192,192,0,0,1,737,190.3l.7-3.1,2.1-9.3v0l1.6,6.9,1.6-7,3.2-13.6,3.7,13.6Z"/><path class="cls-7" d="M724.1,321.3l-10.8-18.9-7.2,22.5-5.3-12.6-5.7,18.5H693l-7.2-31.7L682.4,321l-7.1-31.1-6.6,42h-.1l-3.7-13.8-3.6,14.2L631.9,334l-5.5-15.7-3.1,11.1-5.4-19.6-3.8,24.4-3.6-10.7L607,335.6l-10.7.8-2.1-9-1.9,9.3-4.3.3-4.3-18.9-3.8,19.6-10,.8-2.7-7.8-2.6,8.2c-14.3,1.2-28.6,2.5-42.7,3.9l-5.1-15.7-4,14.5-7.2-18.8-6.9,22.4-8.3.8-3.2-13.9-2.3,14.5-2.7.3-5.5-24.1-4,25.2-34.2,4-6.4-14.4-4,13.4-3-9.1-2.7,12.2c-14.2,1.8-28.3,3.7-42.2,5.7l-7.3-27.2-6.7,29.2-8.9,1.3-1.6-6.8-1.9,7.3-15.3,2.3-10.3-33.2-11.1,29.1-6.2-22.5-8.8,27.3-24-3.6-8.7-27-8.5,24.6-8.6-1.2-8.5-42.8L234.6,357l-1.7-.2L227.6,331,222,355.3l-11.2-1.4-8.3-29-5.6,16.5-6-37.7L182.6,334l-4.7-17.2-10.7,30.6-9.3.2-32.6-3.4-7-27.7-5.7,21.4L102.2,273,91.4,322.2,86,287.4,74,339.5H72.6l-9.9-31.8L54.6,327,43.5,292.3,26.8,321.4,6.4,230.7s-2.7,9-6.4,21.7v121H750V305.6c-5.7-19.6-12.7-43-12.7-43Z"/></svg>