<svg id="Layer_1" data-name="Layer 1" xmlns="http://www.w3.org/2000/svg" xmlns:xlink="http://www.w3.org/1999/xlink" viewBox="0 0 805.92 447.6"><defs><style>.cls-1,.cls-10{fill:none;}.cls-2{clip-path:url(#clip-path);}.cls-3{opacity:0.63;}.cls-4{clip-path:url(#clip-path-4);}.cls-5{fill:#aee6ff;}.cls-6{opacity:0.39;}.cls-7{clip-path:url(#clip-path-5);}.cls-8{fill:#514a51;}.cls-9{fill:#ffe35a;}.cls-10{stroke:#876c58;stroke-linecap:round;stroke-linejoin:round;stroke-width:0.35px;}.cls-11{fill:#fff;}.cls-12{fill:#ffa9a9;}</style><clipPath id="clip-path"><rect class="cls-1" x="393.6" y="244.6" width="38.6" height="38.6"/></clipPath><clipPath id="clip-path-4"><rect class="cls-1" x="401.96" y="255.69" width="7.96" height="11.48"/></clipPath><clipPath id="clip-path-5"><rect class="cls-1" x="395.77" y="258.93" width="10.61" height="8.72"/></clipPath></defs><title>bee</title><g id="bee"><g class="cls-2"><g class="cls-2"><g class="cls-2"><g class="cls-3"><g class="cls-4"><path class="cls-5" d="M406.8,267.17s4.16-6.82,2.88-9.23a4.08,4.08,0,0,0-7.6,2.85,8.59,8.59,0,0,0,4.72,6.38"/></g></g><g class="cls-6"><g class="cls-7"><path class="cls-5" d="M406.38,266.6s-3.22-7.31-5.93-7.63a4.08,4.08,0,0,0-2,7.86,8.62,8.62,0,0,0,7.94-.23"/></g></g><path class="cls-8" d="M404.49,269.38a4.53,4.53,0,0,1,.55-2.56c-3.69.42-5,2.79-4.83,5s3.36,6,8.48,4.66A8.18,8.18,0,0,0,413,274h0c-5.12,1.3-8.33-2.37-8.48-4.66"/><path class="cls-9" d="M407.69,266.48v0a13.61,13.61,0,0,1-2.29.35l-.36,0a4.53,4.53,0,0,0-.55,2.56c.15,2.29,3.36,6,8.48,4.66h0a8.63,8.63,0,0,0,1.52-2.64c-4.13.21-6.66-2.89-6.8-4.92"/><path class="cls-8" d="M411.26,264.58c-1.45.73-1.9,1.43-3.57,1.86,0,0,0,0,0,0a5.1,5.1,0,0,0,6.8,4.92,16.92,16.92,0,0,1,1-2.59,6.17,6.17,0,0,1-4.24-4.23"/><path class="cls-9" d="M415.5,268.81a1.2,1.2,0,0,1,.6-.5c1.83-.61-.84-5.57-4.51-3.89l-.33.16a6.17,6.17,0,0,0,4.24,4.23"/><polygon class="cls-8" points="400.71 272.75 398.37 275.19 401.62 274.31 400.71 272.75"/><path class="cls-9" d="M424.88,263.38c0,3.89-3.78,7-8.44,7s-8.44-3.14-8.44-7,3.78-7,8.44-7,8.44,3.15,8.44,7"/><path class="cls-10" d="M415.82,266.39a1.42,1.42,0,0,0,2.53.26"/><path class="cls-8" d="M414.52,263.18a1.53,1.53,0,1,1-1.52-1.53,1.53,1.53,0,0,1,1.52,1.53"/><path class="cls-11" d="M412.89,262.67a.41.41,0,1,1-.81,0,.41.41,0,1,1,.81,0"/><path class="cls-8" d="M422.41,264a1.53,1.53,0,1,1-1.53-1.53,1.53,1.53,0,0,1,1.53,1.53"/><path class="cls-11" d="M420.78,263.31a.41.41,0,0,1-.41.41.41.41,0,1,1,0-.81.41.41,0,0,1,.41.4"/><path class="cls-12" d="M412.46,265.61a1.11,1.11,0,0,1-2.22,0,1.11,1.11,0,1,1,2.22,0"/><path class="cls-12" d="M423,266.69a1.11,1.11,0,1,1-1.11-1.11,1.11,1.11,0,0,1,1.11,1.11"/><path class="cls-8" d="M416.5,257.06s-2.14-8.45-6.21-8.25-.82,5.3.81,2.45c0,0,.72-1.41,2.45.61,1.22,1.42,2.44,3.26,2.25,5.42.6.08.7-.23.7-.23"/><path class="cls-8" d="M419.38,257.69s3.62-7.93,7.59-7-.14,5.36-1.24,2.27c0,0-.45-1.52-2.51.16-1.46,1.19-3,2.77-3.19,4.93-.6,0-.65-.35-.65-.35"/></g></g></g></g></svg>