<svg id="Layer_1" data-name="Layer 1" xmlns="http://www.w3.org/2000/svg" viewBox="0 0 134.72 30.98"><defs><style>.cls-1{fill:#fff;}.cls-2{fill:#a8d6e2;}</style></defs><title>cloud2</title><g id="cloud1"><path class="cls-1" d="M123.74,30C106,26.72,36.37,32.22,6.24,29.51,3.75,29.28.56,28.34.5,25.84a3.86,3.86,0,0,1,1.2-2.63c4.87-5.2,14.9-1.54,19.72-6.78,1.46-1.58,2.13-3.7,3.1-5.62C28.62,2.72,39.08-1.5,47.64,1.49c3.79,1.32,7,3.79,10.69,5.47s8.32,2.81,12,1.31C74.35,6.64,81.84,1,93.81,3.9c4.61,1.12,5.78,7.63,8.08,10,2,2,5.21,2,8,1.71C125,14,141.2,22,131.47,29.22"/><path class="cls-2" d="M123.89,29.43c-13-2.25-26.79-1.12-39.85-.82C65.47,29,46.9,29.77,28.33,29.72c-7.29,0-14.85.19-22.09-.78A3.82,3.82,0,0,1,5,21.76a11,11,0,0,1,3.53-1c2.15-.37,4.34-.43,6.5-.8,4.06-.71,6.66-2.33,8.66-6,3-5.46,5.9-9.89,12.19-12C43-.3,48.75,2.45,55,5.86c3.79,2.07,8,4,12.42,3.64,3.22-.26,5.86-2.13,8.74-3.39,6.14-2.69,17.07-4.95,21.47,1.6,2,3,2.71,6.81,6.43,8.17,2.38.88,5,.32,7.46.19a39.59,39.59,0,0,1,10.8.82c5.26,1.18,16.31,5.71,8.75,11.93-.55.46.24,1.25.8.8,6.43-5.3.81-10.42-5.16-12.62-5.45-2-11.08-2.24-16.81-1.92-4.51.26-7.53-.88-9.62-4.85-1.07-2.05-2.1-4.35-4-5.76C89-.84,78.38,4.11,71.38,7.19c-8.3,3.64-14.68-2.48-21.86-5.56a19.63,19.63,0,0,0-14-.64A20.15,20.15,0,0,0,25.45,8.22c-2.18,3-2.77,7.17-6.21,9.24-2.89,1.73-6.55,1.61-9.77,2.06S1.59,20.84.29,24.28,2.12,29.35,5,29.9c8.25,1.58,17.42,1,25.78,1,11,0,21.89-.3,32.83-.59,11.84-.31,23.67-.69,35.5-.78,8.09-.05,16.49-.36,24.49,1,.71.12,1-1,.3-1.08Z"/></g></svg>