<svg id="Layer_1" data-name="Layer 1" xmlns="http://www.w3.org/2000/svg" viewBox="0 0 142.4 29.31"><defs><style>.cls-1{fill:#fff;}.cls-2{fill:#a8d6e2;}</style></defs><title>cloud1</title><g id="cloud2"><path class="cls-1" d="M23,27.59c41.76.61,77.3.19,119-2.74.67-4-3.58-7.25-7.6-8.08s-8.35-.32-12.15-1.89c-8-3.28-12-14.9-20.68-14.4-5.14.29-8.75,4.95-13.28,7.35-10.78,5.71-24.35-2.16-36.16,1-4,1.06-7.51,3.32-11.13,5.26C27.94,21,1.2,16.73.47,25.56c-.26,3.2,9.77,3.55,14.16,2.65"/><path class="cls-2" d="M23,28.05c39.7.57,79.35,0,119-2.74a.47.47,0,0,0,.46-.46c.21-5.48-4.95-8.13-9.74-8.82-5.09-.73-10-.56-14.17-4-2.56-2.07-4.6-4.69-6.92-7C108.45,2,104.67-.79,100,.21c-3,.64-5.48,2.66-7.9,4.45-4,3-8.06,4.75-13.18,4.84-8,.13-15.87-2.74-23.89-1.72-7.32.93-12.87,6-19.82,8C28.83,17.63,22.1,18,15.52,18.71c-4.06.45-8.79.69-12.43,2.73C1.29,22.44-1,24.81.49,27c2.39,3.39,11,2.28,14.27,1.7.59-.1.34-1-.25-.9-3.16.55-8.73,1.23-11.63-.44-5-2.89,1.9-5.75,4.41-6.39C14,19.23,21,19.26,27.83,18.25A51.1,51.1,0,0,0,37.62,16c4-1.42,7.43-3.93,11.32-5.55,9.9-4.14,19.82.14,30,0a20.83,20.83,0,0,0,9.53-2.2c4.29-2.27,7.87-7,13-7.29,8-.47,12.3,9.53,18.35,13.26,3.1,1.92,6.53,2.17,10.08,2.51,2.68.26,9.9.92,10.82,4.68,1.08,4.47-5.91,3.47-8.63,3.64q-16.52,1-33.05,1.6c-25.36.86-50.73.85-76.1.49a.47.47,0,0,0,0,.93Z"/></g></svg>