<svg id="Layer_1" data-name="Layer 1" xmlns="http://www.w3.org/2000/svg" viewBox="0 0 2400 600" preserveAspectRatio="none"><defs><style>.cls-1{fill:#49cef2;}</style></defs><title>wave2</title><path class="cls-1" d="M2402.92,603,2400,138s-51-13.27-96-14c-123-2-172,42-301,46-78.22,2.43-263.61-57.54-357-61-108-4-178.93,50.87-255,43-58-6-104-38-128-39-47-2-72,30-120,25-30.58-3.19-92.74-44.67-147-26s-89.66,12-129.41,4S778.71,150.44,734,148c-55.54-3-72.42-41-139.94-39-41.73,1.23-123.93,51-200.32,27C355.69,124,314.16,86.37,254,96c-39.06,6.25-85,41.37-148,26S0,112.93,0,112.93V600Z"/></svg>