<?xml version="1.0" encoding="utf-8"?>
<!-- Generator: Adobe Illustrator 23.0.1, SVG Export Plug-In . SVG Version: 6.00 Build 0)  -->
<svg version="1.1" id="Layer_1" xmlns="http://www.w3.org/2000/svg" xmlns:xlink="http://www.w3.org/1999/xlink" x="0px" y="0px"
	 viewBox="0 0 9611.7 603.5" style="enable-background:new 0 0 9611.7 603.5;" xml:space="preserve">
<style type="text/css">
	.st0{fill:#49CEF2;}
</style>
<path class="st0" d="M4805.8,603.5l-2.9-465c0,0-51-13.3-96-14c-123-2-172,42-301,46c-78.2,2.4-263.6-57.5-357-61
	c-108-4-178.9,50.9-255,43c-58-6-104-38-128-39c-47-2-72,30-120,25c-30.6-3.2-92.7-44.7-147-26s-89.7,12-129.4,4
	s-87.9,34.4-132.6,32c-55.5-3-72.4-41-139.9-39c-41.7,1.2-123.9,51-200.3,27c-38.1-12-79.6-49.6-139.7-40c-39.1,6.3-85,41.4-148,26
	s-106-9.1-106-9.1v487.1L4805.8,603.5z"/>
<path class="st0" d="M9611.7,601.5l-2.9-465c0,0-51-13.3-96-14c-123-2-172,42-301,46c-78.2,2.4-263.6-57.5-357-61
	c-108-4-178.9,50.9-255,43c-58-6-104-38-128-39c-47-2-72,30-120,25c-30.6-3.2-92.7-44.7-147-26s-89.7,12-129.4,4
	s-87.9,34.4-132.6,32c-55.5-3-72.4-41-139.9-39c-41.7,1.2-123.9,51-200.3,27c-38.1-12-79.6-49.6-139.7-40c-39.1,6.3-85,41.4-148,26
	s-106-9.1-106-9.1v487.1L9611.7,601.5z"/>
<path class="st0" d="M2402.9,600.5V113.4c0,0-43-6.3-106,9.1s-108.9-19.8-148-26c-60.2-9.6-101.7,28-139.7,40
	c-76.4,24-158.6-25.8-200.3-27c-67.5-2-84.4,36-139.9,39c-44.7,2.4-92.8-40-132.6-32s-75.2,14.7-129.4-4s-116.4,22.8-147,26
	c-48,5-73-27-120-25c-24,1-70,33-128,39c-76.1,7.9-147-47-255-43c-93.4,3.5-278.8,63.4-357,61c-129-4-178-48-301-46
	c-45,0.7-96,14-96,14L0,603.5L2402.9,600.5z"/>
<path class="st0" d="M7208.8,598.5V111.4c0,0-43-6.3-106,9.1s-108.9-19.8-148-26c-60.2-9.6-101.7,28-139.7,40
	c-76.4,24-158.6-25.8-200.3-27c-67.5-2-84.4,36-139.9,39c-44.7,2.4-92.8-40-132.6-32s-75.1,14.7-129.4-4
	c-54.3-18.7-116.4,22.8-147,26c-48,5-73-27-120-25c-24,1-70,33-128,39c-76.1,7.9-147-47-255-43c-93.4,3.5-278.8,63.4-357,61
	c-129-4-178-48-301-46c-45,0.7-96,14-96,14l-2.9,465L7208.8,598.5z"/>
</svg>
