<?xml version="1.0" encoding="utf-8"?>
<!-- Generator: Adobe Illustrator 23.0.1, SVG Export Plug-In . SVG Version: 6.00 Build 0)  -->
<svg version="1.1" id="Layer_1" xmlns="http://www.w3.org/2000/svg" xmlns:xlink="http://www.w3.org/1999/xlink" x="0px" y="0px"
	 viewBox="0 0 9616 600.5" style="enable-background:new 0 0 9616 600.5;" xml:space="preserve">
<style type="text/css">
	.st0{fill:#4B9AEF;}
</style>
<path class="st0" d="M2404,600.5h2404V80.7c0,0-29,28.5-63.3,21.4S4634.1,55.6,4572,74.6c-62.2,19-79.9,27.1-125.5,19
	c-45.6-8.1-91.8,32.4-142.2,21.6c-50.4-10.8-85.5-47.1-137.4-37.6c-51.9,9.5-93.9,43.2-139.9,27.9c-65.4-21.6-115.6,20.3-160.1,14.2
	c-44.5-6.1-118.9-48.9-187.9-39.1c-44.8,6.4-70,40.5-142.2,24.8s-95.8-25.2-122.3-27.5c-68.8-6.1-150.6,23.8-205.1,29.5
	c-36.5,3.8-90.8-18.5-143.3-16.3c-101.5,4.4-52.7,45.8-256.7-2c-87.5-20.5-141,33.6-218.9,35.6c-96.4,2.4-125.1-13.4-186.4-21.4
	V600.5z"/>
<path class="st0" d="M7212,600.5h2404V80.7c0,0-29,28.5-63.3,21.4c-34.3-7.1-110.5-46.5-172.7-27.5c-62.2,19-79.9,27.1-125.5,19
	c-45.6-8.1-91.8,32.4-142.2,21.6s-85.5-47.1-137.4-37.6s-93.9,43.2-139.9,27.9c-65.5-21.6-115.6,20.3-160.1,14.2
	s-118.9-48.9-187.9-39.1c-44.8,6.4-70,40.5-142.2,24.8s-95.8-25.2-122.3-27.5c-68.8-6.1-150.7,23.8-205.1,29.5
	c-36.5,3.8-90.8-18.5-143.3-16.3c-101.5,4.4-52.7,45.8-256.7-2c-87.5-20.5-141,33.6-218.9,35.6c-96.4,2.4-125.1-13.4-186.4-21.4
	V600.5z"/>
<path class="st0" d="M2404,103.5c-61.3,8-90,23.8-186.4,21.4c-77.9-2-131.4-56.1-218.9-35.6c-204,47.8-155.2,6.4-256.7,2
	c-52.4-2.3-106.8,20.1-143.3,16.3c-54.5-5.7-136.4-35.6-205.1-29.5c-26.5,2.3-50.1,11.9-122.3,27.5s-97.4-18.5-142.2-24.8
	c-68.9-9.8-143.3,33-187.9,39.1S846.6,84,781.1,105.6c-46.1,15.2-88-18.5-139.9-27.9s-87,26.7-137.4,37.6s-96.7-29.7-142.2-21.6
	s-63.3,0-125.5-19S97.7,95,63.3,102.1S0,80.7,0,80.7v519.8h2404V103.5z"/>
<path class="st0" d="M7212,103.5c-61.3,8-90,23.8-186.4,21.4c-77.9-2-131.4-56.1-218.9-35.6c-204,47.8-155.2,6.4-256.7,2
	c-52.4-2.3-106.8,20.1-143.3,16.3c-54.5-5.7-136.4-35.6-205.1-29.5c-26.5,2.3-50.1,11.9-122.3,27.5s-97.4-18.5-142.2-24.8
	c-68.9-9.8-143.3,33-187.9,39.1c-44.5,6.1-94.7-35.8-160.1-14.2c-46.1,15.2-88-18.5-139.9-27.9c-51.9-9.5-87,26.7-137.4,37.6
	c-50.4,10.8-96.7-29.7-142.2-21.6c-45.6,8.1-63.3,0-125.5-19c-62.2-19-138.4,20.3-172.7,27.5S4808,80.7,4808,80.7v519.8h2404V103.5z
	"/>
</svg>
