<?xml version="1.0" encoding="utf-8"?>
<!-- Generator: Adobe Illustrator 23.0.1, SVG Export Plug-In . SVG Version: 6.00 Build 0)  -->
<svg version="1.1" id="Layer_1" xmlns="http://www.w3.org/2000/svg" xmlns:xlink="http://www.w3.org/1999/xlink" x="0px" y="0px"
	 viewBox="0 0 2400 600" style="enable-background:new 0 0 2400 600;" xml:space="preserve">
<style type="text/css">
	.st0{fill:#4B9AEF;}
</style>
<title>wave1</title>
<path class="st0" d="M2404,103c-61.3,8-90,23.8-186.4,21.4c-77.9-2-131.4-56.1-218.9-35.6c-204,47.8-155.2,6.4-256.7,2
	c-52.4-2.3-106.8,20.1-143.3,16.3c-54.5-5.7-136.4-35.6-205.1-29.5c-26.5,2.3-50.1,11.9-122.3,27.5s-97.4-18.5-142.2-24.8
	c-68.9-9.8-143.3,33-187.9,39.1s-94.7-35.8-160.1-14.2c-46.1,15.2-88-18.5-139.9-27.9s-87,26.7-137.4,37.6S407.1,85,361.5,93.1
	s-63.3,0-125.5-19S97.7,94.5,63.3,101.6S0,80.2,0,80.2V600h2404V103z"/>
</svg>
