<svg id="Layer_1" data-name="Layer 1" xmlns="http://www.w3.org/2000/svg" viewBox="0 0 2400 600"><defs><style>.cls-1{fill:#4b9aef;}</style></defs><title>wave1</title><path class="cls-1" d="M2404,103c-61.26,8-90,23.8-186.39,21.36-77.9-2-131.36-56.12-218.9-35.6-204,47.8-155.2,6.44-256.72,2-52.43-2.27-106.81,20.09-143.26,16.28-54.49-5.71-136.38-35.6-205.14-29.5-26.49,2.35-50.06,11.87-122.31,27.5s-97.44-18.49-142.21-24.84c-68.94-9.79-143.33,33-187.86,39.08s-94.66-35.82-160.11-14.19c-46.08,15.24-88-18.46-139.93-27.95s-87,26.72-137.43,37.57S407.08,85,361.51,93.12s-63.3,0-125.48-19S97.65,94.47,63.34,101.59,0,80.23,0,80.23V600H2404Z"/></svg>