<?xml version="1.0" encoding="utf-8"?>
<!-- Generator: Adobe Illustrator 23.0.1, SVG Export Plug-In . SVG Version: 6.00 Build 0)  -->
<svg version="1.1" id="Layer_1" xmlns="http://www.w3.org/2000/svg" xmlns:xlink="http://www.w3.org/1999/xlink" x="0px" y="0px"
	 viewBox="0 0 9610.4 603" style="enable-background:new 0 0 9610.4 603;" xml:space="preserve">
<style type="text/css">
	.st0{fill:#47F4EF;}
</style>
<path class="st0" d="M2402.9,93c0,0,57,59,164.3,63s173.3-30,210.7-37s112.3,0.2,181,26.1s135.8,24.1,212.9-5
	c77.1-29.1,83.9-7.5,195.6,22.9c114,31,176.8,9.1,235.5,4c92-8,174.6,22.2,233,27c122,10,138.1-21.3,255-40
	c162-26,243.3,10.5,364,27c188.8,25.8,348-33,348-33l3,455H2402.9V93z"/>
<path class="st0" d="M7207.4,91.6c0,0,57,59,164.3,63c107.3,4,173.3-30,210.7-37c37.5-7,112.3,0.2,181,26.1s135.8,24.1,212.9-5
	c77.1-29.1,83.9-7.5,195.6,22.9c114,31,176.8,9.1,235.5,4c92-8,174.6,22.2,233,27c122,10,138.2-21.3,255-40
	c162-26,243.3,10.5,364,27c188.8,25.8,348-33,348-33l3,455H7207.4V91.6z"/>
<path class="st0" d="M7207.4,601.6H4804.5l3-455c0,0,159.2,58.8,348,33c120.7-16.5,202-53,364-27c116.8,18.8,133,50,255,40
	c58.4-4.8,141-35,233-27c58.6,5.1,121.5,27,235.5-4c111.7-30.4,118.5-52,195.6-22.9c77.1,29.1,144.2,30.9,212.9,5
	s143.5-33.1,181-26.1c37.5,7,103.4,41,210.7,37c107.3-4,164.3-63,164.3-63V601.6z"/>
<path class="st0" d="M2402.9,601.6H0l3-455c0,0,159.2,58.8,348,33c120.7-16.5,202-53,364-27c116.8,18.8,133,50,255,40
	c58.4-4.8,141-35,233-27c58.7,5.1,121.5,27,235.5-4c111.7-30.4,118.5-52,195.6-22.9c77.1,29.1,144.2,30.9,212.9,5
	c68.7-25.9,143.5-33.1,181-26.1s103.4,41,210.7,37s164.3-63,164.3-63V601.6z"/>
</svg>
